<svg width="120" height="120" viewBox="0 0 120 120" fill="none" xmlns="http://www.w3.org/2000/svg">
<g clip-path="url(#clip0_376_109)">
<path d="M116.425 103.317C116.194 103.78 115.935 104.228 115.663 104.691C115.269 105.343 114.875 105.982 114.44 106.594C113.407 108.103 112.197 109.531 110.864 110.863C110.674 111.054 110.484 111.244 110.293 111.434C110.293 111.434 110.28 111.448 110.266 111.462C109.886 111.815 109.491 112.169 109.111 112.508L109.083 112.536C96.8347 123.032 78.3732 122.488 66.7633 110.877C66.4779 110.591 66.1924 110.279 65.9069 109.98L65.8797 110.007L62.6578 106.784C62.549 106.676 62.4402 106.58 62.3179 106.485C60.8497 105.33 58.7017 105.425 57.3422 106.784L54.1203 110.007L54.0931 109.98C53.8076 110.279 53.5222 110.578 53.2367 110.877C41.0423 123.073 21.3164 123.073 9.13561 110.877C-3.0452 98.6947 -3.0452 78.953 9.13561 66.7708C9.43469 66.4853 9.73377 66.1862 10.0464 65.9279L10.0193 65.9007L13.2412 62.6784C14.6007 61.3188 14.6958 59.1706 13.5403 57.7022C13.4451 57.5934 13.3499 57.471 13.2412 57.3623L10.0193 54.14L10.0464 54.1128C9.74737 53.8273 9.44828 53.5417 9.1492 53.2562C-0.747706 43.3446 -2.61017 28.4704 3.5482 16.7097C3.79291 16.2474 4.03761 15.7987 4.30951 15.3364C4.70375 14.6838 5.098 14.0448 5.53302 13.433C5.56021 13.3922 5.5874 13.3514 5.61459 13.3242L6.02243 12.7532C6.93327 11.5023 7.96647 10.3059 9.10842 9.16377C9.29874 8.97343 9.48907 8.78308 9.67939 8.59273C9.67939 8.59273 9.69299 8.57914 9.70658 8.56554C10.0872 8.21204 10.4815 7.85854 10.8621 7.51863L10.8893 7.49144C23.1381 -3.03201 41.6268 -2.48816 53.2367 9.12298C53.5222 9.4085 53.8076 9.72122 54.0795 10.0203L54.1067 9.99314L57.6413 13.5282C59.1096 14.6974 61.2575 14.6022 62.617 13.229L65.8389 10.0067L65.8661 10.0339C66.1516 9.73481 66.4371 9.4357 66.7226 9.13658C78.9034 -3.0592 98.6428 -3.0592 110.824 9.13658C123.004 21.3188 123.018 41.0604 110.824 53.2426C110.538 53.5282 110.225 53.8137 109.926 54.0856L109.954 54.1128L106.732 57.3351C105.372 58.6947 105.277 60.8293 106.433 62.3113L109.981 65.8599L109.954 65.8871C110.266 66.159 110.565 66.4581 110.851 66.7437C120.761 76.6417 122.61 91.5431 116.411 103.304L116.425 103.317Z" fill="white"/>
</g>
<defs>
<clipPath id="clip0_376_109">
<rect width="120" height="120" fill="white"/>
</clipPath>
</defs>
</svg>
