<svg width="900" height="900" viewBox="0 0 900 900" fill="none" xmlns="http://www.w3.org/2000/svg">
<g clip-path="url(#clip0_359_28)">
<path d="M469.774 899.032C471.469 898.79 473.163 898.677 474.728 898.435C476.293 898.192 477.987 898.079 479.569 897.837C573.285 883.44 644.992 802.643 644.992 704.916C644.992 702.382 644.863 699.719 644.75 697.168H645.234V668.617C645.234 655.672 655.625 645.149 668.695 645.149H697.223V644.907C699.756 645.036 702.306 645.149 704.968 645.149C812.706 645.149 900.016 557.702 900.016 450.048C900.016 342.282 812.706 254.948 704.968 254.948C702.306 254.948 699.772 255.077 697.223 255.077V254.835H668.695C655.641 254.835 645.234 244.441 645.234 231.367V202.816H644.75C644.879 200.282 644.992 197.731 644.992 195.068C644.992 97.4535 573.285 16.5435 479.569 2.27574C478.003 2.03364 476.309 1.79154 474.728 1.54944C473.163 1.30734 471.469 1.19436 469.774 0.952261C463.239 0.35508 456.591 0 449.814 0C443.167 0 436.632 0.355081 430.113 0.968402C331.798 11.0075 255.024 94.0963 255.024 195.101C255.024 197.764 255.154 200.298 255.267 202.848H254.895V231.4C254.895 244.457 244.246 254.867 231.321 254.867H202.906V255.109C200.244 254.98 197.711 254.867 195.048 254.867C87.3102 254.851 0 342.298 0 450.065C0 557.719 87.3102 645.036 195.048 645.036C197.711 645.036 200.244 645.036 202.906 644.907V645.149H231.321C244.262 645.149 254.895 655.672 254.895 668.617V697.168H255.267C255.137 699.702 255.024 702.365 255.024 704.916C255.024 806.033 331.798 889.009 430.113 899.048C436.648 899.645 443.167 900.016 449.814 900.016C456.591 900.016 463.239 899.645 469.774 899.048V899.032Z" fill="#D5ECF2"/>
</g>
<defs>
<clipPath id="clip0_359_28">
<rect width="900" height="900" fill="white"/>
</clipPath>
</defs>
</svg>
