<svg width="101" height="101" viewBox="0 0 101 101" fill="none" xmlns="http://www.w3.org/2000/svg">
<path fill-rule="evenodd" clip-rule="evenodd" d="M50.3005 45.8913L52.6386 43.5532C65.063 31.1288 82.347 27.782 96.162 37.746L96.4371 37.9293C96.4829 37.9752 96.5326 38.0096 96.5823 38.044C96.6319 38.0784 96.6816 38.1127 96.7275 38.1586C98.057 39.2742 98.6836 41.0928 98.1945 42.896C98.164 43.0183 98.1334 43.11 98.0876 43.217C97.8736 43.8588 97.5374 44.409 97.0942 44.8827L96.8497 45.1272L67.126 74.8509C57.8192 84.1577 42.7358 84.1424 33.4443 74.8509L27.4079 68.8145L27.4079 68.7839L3.49136 44.8674C3.04818 44.3936 2.71198 43.8435 2.49803 43.2016C2.45219 43.0947 2.42162 43.003 2.39105 42.8807C1.90202 41.0774 2.52857 39.2589 3.85812 38.1433C3.90396 38.0974 3.95363 38.063 4.00329 38.0287C4.05296 37.9943 4.10263 37.9599 4.14848 37.914L4.42357 37.7306C18.2386 27.7667 35.5226 31.1135 47.947 43.5378L50.3005 45.8913Z" fill="#CDE667"/>
<path d="M31.746 60.266C30.8407 60.266 30.0753 60.1213 29.45 59.832C28.834 59.5427 28.3627 59.146 28.036 58.642C27.7093 58.1287 27.546 57.55 27.546 56.906H29.492C29.492 57.1767 29.5667 57.4427 29.716 57.704C29.8653 57.956 30.1033 58.1613 30.43 58.32C30.766 58.4787 31.2047 58.558 31.746 58.558C32.2313 58.558 32.6373 58.488 32.964 58.348C33.2907 58.208 33.5333 58.026 33.692 57.802C33.8507 57.5687 33.93 57.3073 33.93 57.018C33.93 56.654 33.776 56.3647 33.468 56.15C33.16 55.926 32.684 55.786 32.04 55.73L31.144 55.66C30.164 55.576 29.38 55.2727 28.792 54.75C28.2133 54.218 27.924 53.518 27.924 52.65C27.924 51.9967 28.078 51.4367 28.386 50.97C28.694 50.494 29.1233 50.13 29.674 49.878C30.234 49.6167 30.8873 49.486 31.634 49.486C32.4087 49.486 33.076 49.6213 33.636 49.892C34.196 50.1627 34.63 50.5453 34.938 51.04C35.246 51.5253 35.4 52.0993 35.4 52.762H33.454C33.454 52.482 33.384 52.2253 33.244 51.992C33.1133 51.7493 32.9127 51.558 32.642 51.418C32.3807 51.2687 32.0447 51.194 31.634 51.194C31.242 51.194 30.9153 51.2593 30.654 51.39C30.3927 51.5207 30.1967 51.698 30.066 51.922C29.9353 52.146 29.87 52.3887 29.87 52.65C29.87 52.9673 29.9867 53.2473 30.22 53.49C30.4533 53.7233 30.822 53.8587 31.326 53.896L32.222 53.98C32.95 54.036 33.5893 54.19 34.14 54.442C34.6907 54.694 35.1153 55.0347 35.414 55.464C35.722 55.8933 35.876 56.4113 35.876 57.018C35.876 57.662 35.708 58.2313 35.372 58.726C35.036 59.2113 34.5553 59.5893 33.93 59.86C33.314 60.1307 32.586 60.266 31.746 60.266ZM40.2136 60.266C39.5509 60.266 38.9769 60.154 38.4916 59.93C38.0156 59.706 37.6143 59.4073 37.2876 59.034C36.9703 58.6607 36.7323 58.2407 36.5736 57.774C36.4149 57.3073 36.3356 56.8313 36.3356 56.346V56.08C36.3356 55.5667 36.4149 55.0767 36.5736 54.61C36.7416 54.134 36.9889 53.714 37.3156 53.35C37.6423 52.9767 38.0436 52.6827 38.5196 52.468C39.0049 52.244 39.5649 52.132 40.1996 52.132C40.8623 52.132 41.4549 52.2627 41.9776 52.524C42.5003 52.776 42.9156 53.1307 43.2236 53.588C43.5409 54.0453 43.7183 54.5773 43.7556 55.184H41.8656C41.8189 54.792 41.6509 54.4653 41.3616 54.204C41.0816 53.9427 40.6943 53.812 40.1996 53.812C39.7703 53.812 39.4109 53.9147 39.1216 54.12C38.8416 54.3253 38.6316 54.61 38.4916 54.974C38.3516 55.3287 38.2816 55.7393 38.2816 56.206C38.2816 56.654 38.3469 57.06 38.4776 57.424C38.6176 57.788 38.8276 58.0727 39.1076 58.278C39.3969 58.4833 39.7656 58.586 40.2136 58.586C40.5496 58.586 40.8389 58.5253 41.0816 58.404C41.3243 58.2827 41.5156 58.1147 41.6556 57.9C41.8049 57.6853 41.8983 57.4427 41.9356 57.172H43.8256C43.7883 57.788 43.6063 58.3293 43.2796 58.796C42.9623 59.2533 42.5376 59.6127 42.0056 59.874C41.4829 60.1353 40.8856 60.266 40.2136 60.266ZM44.6845 60V49.78H46.6305V55.744H46.2945C46.2945 54.9787 46.3925 54.33 46.5885 53.798C46.7845 53.266 47.0738 52.86 47.4565 52.58C47.8485 52.3 48.3432 52.16 48.9405 52.16H49.0245C49.8925 52.16 50.5505 52.4587 50.9985 53.056C51.4465 53.6533 51.6705 54.5213 51.6705 55.66V60H49.7245V55.478C49.7245 54.9927 49.5845 54.61 49.3045 54.33C49.0338 54.05 48.6745 53.91 48.2265 53.91C47.7505 53.91 47.3632 54.0687 47.0645 54.386C46.7752 54.694 46.6305 55.1 46.6305 55.604V60H44.6845ZM56.7166 60.266C56.0446 60.266 55.452 60.1587 54.9386 59.944C54.4253 59.7293 53.9913 59.44 53.6366 59.076C53.282 58.7027 53.0113 58.2827 52.8246 57.816C52.6473 57.3493 52.5586 56.864 52.5586 56.36V56.066C52.5586 55.5433 52.652 55.0487 52.8386 54.582C53.0346 54.106 53.31 53.686 53.6646 53.322C54.0286 52.9487 54.4673 52.6593 54.9806 52.454C55.494 52.2393 56.0726 52.132 56.7166 52.132C57.3606 52.132 57.9393 52.2393 58.4526 52.454C58.966 52.6593 59.4 52.9487 59.7546 53.322C60.1186 53.686 60.394 54.106 60.5806 54.582C60.7673 55.0487 60.8606 55.5433 60.8606 56.066V56.36C60.8606 56.864 60.7673 57.3493 60.5806 57.816C60.4033 58.2827 60.1373 58.7027 59.7826 59.076C59.428 59.44 58.994 59.7293 58.4806 59.944C57.9673 60.1587 57.3793 60.266 56.7166 60.266ZM56.7166 58.6C57.1926 58.6 57.594 58.4973 57.9206 58.292C58.2473 58.0773 58.4946 57.7927 58.6626 57.438C58.8306 57.074 58.9146 56.6633 58.9146 56.206C58.9146 55.7393 58.826 55.3287 58.6486 54.974C58.4806 54.61 58.2286 54.3253 57.8926 54.12C57.566 53.9053 57.174 53.798 56.7166 53.798C56.2593 53.798 55.8626 53.9053 55.5266 54.12C55.2 54.3253 54.948 54.61 54.7706 54.974C54.5933 55.3287 54.5046 55.7393 54.5046 56.206C54.5046 56.6633 54.5886 57.074 54.7566 57.438C54.934 57.7927 55.186 58.0773 55.5126 58.292C55.8393 58.4973 56.2406 58.6 56.7166 58.6ZM65.5186 60.266C64.8466 60.266 64.2539 60.1587 63.7406 59.944C63.2273 59.7293 62.7933 59.44 62.4386 59.076C62.0839 58.7027 61.8133 58.2827 61.6266 57.816C61.4493 57.3493 61.3606 56.864 61.3606 56.36V56.066C61.3606 55.5433 61.4539 55.0487 61.6406 54.582C61.8366 54.106 62.1119 53.686 62.4666 53.322C62.8306 52.9487 63.2693 52.6593 63.7826 52.454C64.2959 52.2393 64.8746 52.132 65.5186 52.132C66.1626 52.132 66.7413 52.2393 67.2546 52.454C67.7679 52.6593 68.2019 52.9487 68.5566 53.322C68.9206 53.686 69.1959 54.106 69.3826 54.582C69.5693 55.0487 69.6626 55.5433 69.6626 56.066V56.36C69.6626 56.864 69.5693 57.3493 69.3826 57.816C69.2053 58.2827 68.9393 58.7027 68.5846 59.076C68.2299 59.44 67.7959 59.7293 67.2826 59.944C66.7693 60.1587 66.1813 60.266 65.5186 60.266ZM65.5186 58.6C65.9946 58.6 66.3959 58.4973 66.7226 58.292C67.0493 58.0773 67.2966 57.7927 67.4646 57.438C67.6326 57.074 67.7166 56.6633 67.7166 56.206C67.7166 55.7393 67.6279 55.3287 67.4506 54.974C67.2826 54.61 67.0306 54.3253 66.6946 54.12C66.3679 53.9053 65.9759 53.798 65.5186 53.798C65.0613 53.798 64.6646 53.9053 64.3286 54.12C64.0019 54.3253 63.7499 54.61 63.5726 54.974C63.3953 55.3287 63.3066 55.7393 63.3066 56.206C63.3066 56.6633 63.3906 57.074 63.5586 57.438C63.7359 57.7927 63.9879 58.0773 64.3146 58.292C64.6413 58.4973 65.0426 58.6 65.5186 58.6ZM70.7645 60V49.78H72.7105V60H70.7645ZM69.8125 51.236V49.78H72.7105V51.236H69.8125Z" fill="#3A6B0C"/>
</svg>
