<svg width="100" height="101" viewBox="0 0 100 101" fill="none" xmlns="http://www.w3.org/2000/svg">
<path d="M33.0515 7.2707C38.4795 -0.0997672 49.0124 -1.33607 55.9996 4.57716C59.4845 7.52643 64.074 8.82561 68.5877 8.14055C77.6376 6.76703 85.9597 13.3407 86.7191 22.4627C87.0978 27.0123 89.4245 31.1763 93.1005 33.8835C100.471 39.3115 101.707 49.8444 95.7941 56.8316C92.8448 60.3165 91.5456 64.9061 92.2307 69.4198C93.6042 78.4697 87.0305 86.7917 77.9086 87.5511C73.3589 87.9299 69.195 90.2565 66.4877 93.9326C61.0597 101.303 50.5268 102.539 43.5396 96.6261C40.0547 93.6769 35.4652 92.3777 30.9515 93.0627C21.9016 94.4363 13.5795 87.8626 12.8201 78.7406C12.4414 74.191 10.1147 70.027 6.43865 67.3197C-0.931817 61.8917 -2.16812 51.3589 3.74511 44.3717C6.69438 40.8867 7.99356 36.2972 7.3085 31.7835C5.93498 22.7336 12.5087 14.4116 21.6306 13.6522C26.1803 13.2734 30.3442 10.9468 33.0515 7.2707Z" fill="#CFECF3"/>
<path d="M12.4354 59.0112L8.65779 49.1645L10.7018 48.9246L13.8377 57.5075L13.2579 57.2514L14.6483 57.0881L14.0741 57.4798L14.7381 48.8455L16.4344 48.6464L15.5222 58.6489L12.4354 59.0112ZM18.4978 58.2997L15.1135 48.8014L16.8794 48.5942L19.7749 56.8106L19.1395 56.561L20.5022 56.4011L20.0113 56.7829L20.8243 47.7364L22.757 47.5096L21.6402 57.9308L18.4978 58.2997ZM27.7355 57.4832C27.0866 57.5594 26.5035 57.515 25.9861 57.3502C25.4779 57.1843 25.0399 56.935 24.6719 56.6023C24.3121 56.2593 24.0216 55.8658 23.8004 55.4219C23.5884 54.9769 23.4541 54.5134 23.3975 54.0314L23.3665 53.7672C23.3077 53.2666 23.33 52.7753 23.4331 52.2934C23.5445 51.801 23.7366 51.3556 24.0093 50.9571C24.2902 50.5482 24.6545 50.2094 25.1023 49.9407C25.5489 49.6628 26.0828 49.4874 26.7038 49.4145C27.5196 49.3187 28.2221 49.4195 28.8114 49.7168C29.409 50.0038 29.8811 50.4229 30.2277 50.9743C30.5732 51.5164 30.7852 52.1211 30.8635 52.7885L30.9451 53.4838L24.257 54.2688L24.1183 53.0869L29.5967 52.4439L29.0674 53.098C29.0108 52.616 28.8928 52.2117 28.7135 51.885C28.5342 51.5584 28.29 51.3192 27.9809 51.1675C27.6811 51.0148 27.3179 50.9634 26.8915 51.0135C26.4651 51.0635 26.115 51.2033 25.8412 51.4328C25.5675 51.6623 25.3735 51.9716 25.2595 52.3609C25.1536 52.7399 25.1306 53.1842 25.1904 53.6941C25.2459 54.1668 25.3696 54.5799 25.5614 54.9333C25.7521 55.2774 26.013 55.5381 26.3439 55.7154C26.6737 55.8834 27.075 55.9397 27.5478 55.8842C28.0205 55.8287 28.3944 55.6908 28.6692 55.4706C28.943 55.2412 29.1053 54.9825 29.1561 54.6946L30.9359 54.4857C30.8856 55.0178 30.7257 55.4971 30.4562 55.9234C30.1867 56.3497 29.8189 56.6983 29.3526 56.9692C28.8956 57.239 28.3565 57.4103 27.7355 57.4832ZM32.3502 56.6737L31.1588 46.5234L33.0916 46.2965L34.283 56.4469L32.3502 56.6737ZM30.383 48.0805L30.2133 46.6344L33.0916 46.2965L33.2613 47.7426L30.383 48.0805ZM39.1762 56.1403C38.5181 56.2176 37.9349 56.1733 37.4268 56.0074C36.9279 55.8404 36.4945 55.5906 36.1265 55.2578C35.7678 54.9241 35.4825 54.5347 35.2705 54.0897C35.0585 53.6447 34.9242 53.1812 34.8677 52.6992L34.8367 52.435C34.7768 51.9251 34.7985 51.4292 34.9017 50.9472C35.013 50.4549 35.2097 50.0089 35.4917 49.6093C35.7726 49.2005 36.137 48.8617 36.5847 48.593C37.0406 48.3139 37.5837 48.1374 38.2141 48.0634C38.8722 47.9862 39.4761 48.0469 40.0257 48.2455C40.5741 48.4348 41.028 48.7387 41.3872 49.157C41.7557 49.5742 41.9938 50.0819 42.1016 50.6801L40.2245 50.9004C40.1325 50.5165 39.9275 50.2117 39.6097 49.9858C39.3011 49.7589 38.9012 49.6743 38.4099 49.732C37.9835 49.782 37.6386 49.9259 37.3752 50.1636C37.121 50.4001 36.9456 50.7073 36.849 51.0852C36.7513 51.4537 36.7297 51.8698 36.7841 52.3333C36.8363 52.7782 36.9485 53.1738 37.1207 53.5201C37.3022 53.8653 37.544 54.1235 37.846 54.2948C38.1573 54.465 38.5354 54.524 38.9804 54.4718C39.3141 54.4326 39.5944 54.3386 39.8212 54.1899C40.0481 54.0411 40.2185 53.8519 40.3326 53.6224C40.4558 53.3918 40.5203 53.1399 40.5258 52.8667L42.4029 52.6464C42.4376 53.2625 42.32 53.8214 42.0499 54.323C41.7881 54.8142 41.4082 55.2205 40.9103 55.5421C40.4217 55.8626 39.8436 56.062 39.1762 56.1403ZM47.2457 55.1932C46.5783 55.2715 45.9772 55.234 45.4423 55.0806C44.9075 54.9273 44.4427 54.6905 44.048 54.3703C43.6522 54.0409 43.3345 53.6553 43.0947 53.2136C42.8641 52.7708 42.7195 52.2991 42.6607 51.7985L42.6265 51.5065C42.5655 50.9874 42.6006 50.4853 42.7316 50C42.8707 49.5044 43.0952 49.0552 43.405 48.6523C43.723 48.2391 44.125 47.9006 44.6109 47.6368C45.0957 47.3638 45.6579 47.1897 46.2975 47.1146C46.9371 47.0396 47.5244 47.0787 48.0592 47.2321C48.593 47.3762 49.0578 47.6129 49.4535 47.9424C49.8575 48.2615 50.1799 48.6465 50.4208 49.0975C50.6606 49.5392 50.8109 50.0196 50.8719 50.5387L50.9061 50.8307C50.9649 51.3313 50.9288 51.8242 50.7978 52.3094C50.6761 52.7936 50.4608 53.2417 50.1521 53.6539C49.8423 54.0567 49.445 54.3947 48.9602 54.6677C48.4754 54.9408 47.9039 55.1159 47.2457 55.1932ZM47.0515 53.5385C47.5243 53.4831 47.9109 53.3343 48.2114 53.0923C48.5108 52.841 48.7233 52.5294 48.8488 52.1576C48.9732 51.7765 49.0088 51.3588 48.9554 50.9046C48.901 50.4411 48.7651 50.0436 48.5476 49.712C48.3384 49.3701 48.0549 49.1168 47.6972 48.952C47.3478 48.7769 46.9459 48.716 46.4917 48.7693C46.0375 48.8226 45.6561 48.9754 45.3474 49.2278C45.0469 49.4698 44.8298 49.7819 44.6961 50.1641C44.5613 50.537 44.5211 50.9552 44.5755 51.4187C44.6288 51.8729 44.7601 52.271 44.9694 52.613C45.1869 52.9445 45.4704 53.1979 45.8198 53.373C46.1682 53.5389 46.5788 53.594 47.0515 53.5385ZM52.3276 54.3289L51.4414 46.7787L52.9709 46.5992L53.3511 49.8389L53.2121 49.8553C53.1229 49.0951 53.1457 48.4487 53.2805 47.9161C53.4142 47.3741 53.6559 46.9511 54.0055 46.6469C54.3633 46.3324 54.8295 46.1414 55.4042 46.0739L55.4877 46.0641C56.0716 45.9956 56.5695 46.0734 56.9811 46.2976C57.4009 46.5115 57.7339 46.8671 57.9802 47.3644C58.2347 47.8514 58.4066 48.475 58.4958 49.2351L58.0092 49.2922C57.9199 48.5321 57.9427 47.8857 58.0776 47.353C58.2206 46.81 58.4669 46.3864 58.8165 46.0822C59.1742 45.7677 59.6405 45.5767 60.2152 45.5092L60.2986 45.4994C60.8826 45.4309 61.3851 45.5082 61.8059 45.7313C62.2257 45.9452 62.5634 46.3002 62.819 46.7965C63.0828 47.2824 63.2593 47.9054 63.3485 48.6655L63.8544 52.9759L61.9217 53.2028L61.3946 48.7116C61.3391 48.2388 61.1745 47.8776 60.9008 47.6278C60.6261 47.3687 60.2663 47.2653 59.8213 47.3175C59.3764 47.3697 59.0369 47.5599 58.8029 47.8881C58.5678 48.207 58.4791 48.6121 58.5368 49.1034L59.0574 53.539L57.1246 53.7658L56.5975 49.2746C56.542 48.8019 56.3774 48.4406 56.1038 48.1908C55.829 47.9317 55.4692 47.8283 55.0242 47.8805C54.5793 47.9328 54.2398 48.123 54.0058 48.4512C53.7707 48.7701 53.682 49.1752 53.7397 49.6665L54.2603 54.102L52.3276 54.3289ZM68.6344 52.6827C67.9855 52.7588 67.4024 52.7145 66.885 52.5497C66.3768 52.3838 65.9388 52.1345 65.5708 51.8018C65.211 51.4587 64.9205 51.0653 64.6993 50.6214C64.4873 50.1764 64.353 49.7129 64.2964 49.2308L64.2654 48.9667C64.2067 48.4661 64.2289 47.9748 64.3321 47.4928C64.4434 47.0005 64.6355 46.5551 64.9082 46.1566C65.1891 45.7477 65.5535 45.4089 66.0012 45.1402C66.4478 44.8623 66.9817 44.6868 67.6027 44.6139C68.4185 44.5182 69.121 44.619 69.7104 44.9163C70.3079 45.2033 70.78 45.6224 71.1266 46.1738C71.4722 46.7159 71.6841 47.3206 71.7624 47.988L71.844 48.6832L65.156 49.4683L65.0172 48.2864L70.4956 47.6433L69.9663 48.2975C69.9097 47.8155 69.7918 47.4112 69.6125 47.0845C69.4332 46.7578 69.1889 46.5187 68.8798 46.367C68.58 46.2143 68.2168 46.1629 67.7904 46.213C67.364 46.263 67.0139 46.4028 66.7402 46.6322C66.4664 46.8617 66.2724 47.1711 66.1584 47.5604C66.0525 47.9393 66.0295 48.3837 66.0893 48.8935C66.1448 49.3663 66.2685 49.7794 66.4603 50.1327C66.6511 50.4768 66.9119 50.7376 67.2428 50.9148C67.5727 51.0829 67.974 51.1391 68.4467 51.0837C68.9195 51.0282 69.2933 50.8903 69.5681 50.6701C69.8419 50.4406 70.0042 50.1819 70.055 49.8941L71.8348 49.6852C71.7845 50.2173 71.6246 50.6966 71.3551 51.1229C71.0856 51.5492 70.7178 51.8978 70.2515 52.1687C69.7945 52.4384 69.2555 52.6098 68.6344 52.6827ZM78.7504 51.3262C78.0551 51.4078 77.4701 51.3872 76.9952 51.2643C76.5285 51.1312 76.1589 50.8644 75.8863 50.4642C75.6127 50.0546 75.433 49.4837 75.347 48.7514L74.5579 41.9087L76.3655 41.6965L77.1693 48.6643C77.2128 49.0351 77.3439 49.3111 77.5625 49.4921C77.7892 49.6629 78.088 49.7265 78.4588 49.6829L79.6407 49.5442L79.8349 51.1989L78.7504 51.3262ZM73.7644 45.5963L73.5979 44.1781L78.9373 43.5514L79.1038 44.9696L73.7644 45.5963ZM84.3698 50.8357C83.7024 50.9141 83.1012 50.8766 82.5664 50.7232C82.0315 50.5698 81.5667 50.3331 81.1721 50.0129C80.7763 49.6835 80.4585 49.2979 80.2187 48.8561C79.9882 48.4133 79.8435 47.9416 79.7848 47.4411L79.7505 47.1491C79.6896 46.63 79.7246 46.1278 79.8556 45.6426C79.9948 45.147 80.2193 44.6977 80.5291 44.2949C80.8471 43.8816 81.249 43.5431 81.7349 43.2794C82.2197 43.0063 82.7819 42.8323 83.4216 42.7572C84.0612 42.6821 84.6484 42.7213 85.1833 42.8746C85.717 43.0187 86.1818 43.2555 86.5776 43.5849C86.9815 43.904 87.3039 44.289 87.5448 44.74C87.7846 45.1818 87.935 45.6622 87.9959 46.1813L88.0302 46.4733C88.0889 46.9738 88.0528 47.4667 87.9218 47.952C87.8001 48.4361 87.5849 48.8843 87.2762 49.2964C86.9663 49.6993 86.569 50.0372 86.0842 50.3103C85.5994 50.5833 85.0279 50.7585 84.3698 50.8357ZM84.1756 49.1811C84.6483 49.1256 85.0349 48.9768 85.3355 48.7348C85.6349 48.4836 85.8473 48.172 85.9728 47.8002C86.0973 47.4191 86.1328 47.0014 86.0795 46.5472C86.0251 46.0837 85.8892 45.6862 85.6717 45.3546C85.4624 45.0127 85.1789 44.7593 84.8213 44.5945C84.4718 44.4194 84.07 44.3585 83.6158 44.4118C83.1616 44.4651 82.7801 44.618 82.4714 44.8704C82.1709 45.1124 81.9538 45.4245 81.8201 45.8067C81.6854 46.1796 81.6452 46.5978 81.6996 47.0613C81.7529 47.5155 81.8842 47.9136 82.0935 48.2555C82.3109 48.5871 82.5944 48.8404 82.9439 49.0155C83.2922 49.1814 83.7028 49.2366 84.1756 49.1811Z" fill="#006391"/>
</svg>
