<svg width="1328" height="226" viewBox="0 0 1328 226" fill="none" xmlns="http://www.w3.org/2000/svg">
<path d="M77.9069 9.77166H125.616C127.894 9.77166 129.95 11.2234 130.728 13.3731L203.166 214.079C204.445 217.653 201.833 221.422 198.054 221.422H167.295C164.988 221.422 162.932 219.942 162.154 217.764C156.986 202.939 151.679 187.752 146.705 170.079C146.038 167.706 143.899 166.059 141.454 166.059H62.819C60.3739 166.059 58.2344 167.706 57.5675 170.079C52.6494 187.724 47.5367 202.912 42.3963 217.736C41.6461 219.942 39.5621 221.394 37.2558 221.394H5.44085C1.66195 221.394 -0.949929 217.625 0.32823 214.051L72.7665 13.3452C73.5445 11.1676 75.6007 9.74374 77.8791 9.74374L77.9069 9.77166ZM131.645 126.331C123.837 104.08 115.418 80.3774 107.638 57.9868C107.249 56.898 106.221 56.1721 105.082 56.1721H99.7467C98.6075 56.1721 97.5794 56.898 97.1904 57.9868C89.188 80.3774 80.7411 104.108 72.9332 126.359C72.3219 128.146 73.6278 129.989 75.5173 129.989H129.089C130.978 129.989 132.284 128.146 131.673 126.359L131.645 126.331Z" fill="#469EE0"/>
<path d="M243.262 4.32748H270.158C273.159 4.32748 275.605 6.78431 275.605 9.7995V215.921C275.605 218.937 273.159 221.393 270.158 221.393H243.262C240.261 221.393 237.816 218.937 237.816 215.921V9.7995C237.816 6.78431 240.261 4.32748 243.262 4.32748Z" fill="#469EE0"/>
<path d="M328.924 69.9918H542.349C545.35 69.9918 547.795 72.4486 547.795 75.4638V215.922C547.795 218.937 545.35 221.394 542.349 221.394H515.452C512.451 221.394 510.006 218.937 510.006 215.922V110.194C510.006 107.179 507.56 104.722 504.56 104.722H459.852C456.851 104.722 454.406 107.179 454.406 110.194V215.922C454.406 218.937 451.961 221.394 448.96 221.394H422.063C419.062 221.394 416.617 218.937 416.617 215.922V110.194C416.617 107.179 414.171 104.722 411.171 104.722H366.713C363.712 104.722 361.267 107.179 361.267 110.194V215.922C361.267 218.937 358.822 221.394 355.821 221.394H328.924C325.923 221.394 323.478 218.937 323.478 215.922V75.4638C323.478 72.4486 325.923 69.9918 328.924 69.9918Z" fill="#469EE0"/>
<path d="M588.946 145.958C588.946 95.7605 621.595 65.6365 657.494 65.6365C679.084 65.6365 695.284 76.4968 703.647 90.3165H704.203V75.4359C704.203 72.4207 706.648 69.9639 709.649 69.9639H736.268C739.269 69.9639 741.714 72.4207 741.714 75.4359V215.894C741.714 218.909 739.269 221.366 736.268 221.366H711.26C708.26 221.366 705.814 218.909 705.814 215.894V202.102H705.009C694.2 219.188 675.055 225.721 657.217 225.721C614.287 225.721 588.918 190.181 588.918 145.958H588.946ZM666.136 189.65C688.532 189.65 704.203 170.387 704.203 145.427C704.203 120.468 688.004 101.735 665.858 101.735C643.713 101.735 628.069 119.91 628.069 145.148C628.069 170.387 643.99 189.65 666.136 189.65Z" fill="#469EE0"/>
<path d="M781.532 145.958C781.532 96.8494 814.737 65.6365 858.472 65.6365C888.953 65.6365 915.128 80.7683 926.881 107.626C928.104 110.446 926.742 113.712 923.908 114.885L898.623 125.159C895.955 126.248 892.899 125.075 891.676 122.451C884.98 107.989 872.17 101.986 858.472 101.986C835.798 101.986 820.683 120.971 820.683 145.679C820.683 172.815 838.494 189.65 860.083 189.65C874.81 189.65 887.758 182.029 895.261 167.176C896.567 164.607 899.54 163.407 902.179 164.496L927.687 174.854C930.521 175.998 931.883 179.293 930.66 182.084C918.684 209.612 892.371 226 859.833 226C815.292 226 781.56 195.346 781.56 145.958H781.532Z" fill="#469EE0"/>
<path d="M986.261 0.000213623C999.487 0.000213623 1009.49 10.5813 1009.49 23.0609C1009.49 40.7332 992.568 53.3245 973.618 44.1114C972.951 43.7764 972.312 43.3297 971.784 42.7992C953.39 24.4289 965.81 0.000213623 986.289 0.000213623H986.261ZM972.535 69.9918H999.431C1002.43 69.9918 1004.88 72.4486 1004.88 75.4638V215.922C1004.88 218.937 1002.43 221.394 999.431 221.394H972.535C969.534 221.394 967.088 218.937 967.088 215.922V75.4638C967.088 72.4486 969.534 69.9918 972.535 69.9918Z" fill="#469EE0"/>
<path d="M1067.73 173.095V109.915C1067.73 106.9 1065.28 104.443 1062.28 104.443H1043.47C1040.47 104.443 1038.02 101.986 1038.02 98.9712V76.6643C1038.02 73.7608 1040.27 71.3877 1043.14 71.2202C1054.97 70.4943 1067.7 66.5578 1067.7 48.5504V32.5811C1067.7 29.5659 1070.14 27.109 1073.15 27.109H1100.04C1103.04 27.109 1105.49 29.5659 1105.49 32.5811V64.5198C1105.49 67.535 1107.93 69.9918 1110.94 69.9918H1140.81C1143.81 69.9918 1146.25 72.4486 1146.25 75.4638V98.9712C1146.25 101.986 1143.81 104.443 1140.81 104.443H1110.94C1107.93 104.443 1105.49 106.9 1105.49 109.915V159.526C1105.49 173.904 1105.49 191.549 1126 191.549C1130.5 191.549 1134.89 190.711 1138.97 189.315C1142.53 188.115 1146.25 190.683 1146.25 194.452V216.815C1146.25 219.021 1144.97 221.031 1142.94 221.868C1135.89 224.8 1127.22 226 1118.19 226C1067.7 226 1067.7 188.841 1067.7 173.095H1067.73Z" fill="#469EE0"/>
<path d="M1175.2 145.958C1175.2 95.7605 1207.88 65.6365 1243.78 65.6365C1265.37 65.6365 1281.57 76.4968 1289.93 90.3165H1290.49V75.4359C1290.49 72.4207 1292.93 69.9639 1295.93 69.9639H1322.55C1325.55 69.9639 1328 72.4207 1328 75.4359V215.894C1328 218.909 1325.55 221.366 1322.55 221.366H1297.55C1294.55 221.366 1292.1 218.909 1292.1 215.894V202.102H1291.29C1280.49 219.188 1261.34 225.721 1243.5 225.721C1200.57 225.721 1175.2 190.181 1175.2 145.958ZM1252.42 189.65C1274.82 189.65 1290.49 170.387 1290.49 145.427C1290.49 120.468 1274.29 101.735 1252.14 101.735C1230 101.735 1214.36 119.91 1214.36 145.148C1214.36 170.387 1230.28 189.65 1252.42 189.65Z" fill="#469EE0"/>
</svg>
