<?xml version="1.0" encoding="UTF-8"?> <svg xmlns="http://www.w3.org/2000/svg" id="Layer_2" data-name="Layer 2" viewBox="0 0 748.14 192.53"><defs><style> .cls-1 { fill: #231f20; } .cls-1, .cls-2, .cls-3 { stroke-width: 0px; } .cls-2 { fill: #469ee0; } .cls-3 { fill: #79a800; } </style></defs><g id="Layer_10" data-name="Layer 10"><g><g><path class="cls-3" d="M92.46,114.35v-13.97c0-2.01-1.63-3.64-3.64-3.64h-5.48c-1.61,0-2.91-1.3-2.91-2.91v-5.48c0-2.01-1.63-3.64-3.64-3.64h-5.48c-1.61,0-2.91-1.3-2.91-2.91v-5.48c0-2.01-1.63-3.64-3.64-3.64h-13.93c-2.52,0-3.78,3.05-2,4.83l38.81,38.84c1.78,1.78,4.83.52,4.83-2Z"></path><path class="cls-3" d="M123.43,114.35v-13.97c0-2.01,1.63-3.64,3.64-3.64h5.48c1.61,0,2.91-1.3,2.91-2.91v-5.48c0-2.01,1.63-3.64,3.64-3.64h5.48c1.61,0,2.91-1.3,2.91-2.91v-5.48c0-2.01,1.63-3.64,3.64-3.64h13.93c2.52,0,3.78,3.05,2,4.83l-38.81,38.84c-1.78,1.78-4.83.52-4.83-2Z"></path><path class="cls-3" d="M214.62,168.28l-11.2,19.4c-1.73,3-4.94,4.85-8.4,4.85h-22.96s-.04,0-.04,0c-.07,0-.14,0-.21,0h0c-.5-.01-1-.13-1.47-.36-.08-.04-.15-.08-.23-.12-1.67-.96-2.27-3.06-1.41-4.75l.02-.04s.04-.08.06-.13l.04-.08s.02-.02.02-.03c.03-.05.06-.11.11-.16,0-.01.02-.03.03-.04,1.41-2.07,4.73-5.82,5.51-6.64,7.62-8.07,16.59-12.54,16.59-12.54h0c-.02-.32-.57-10.19,2.56-20.65.21-.69.92-2.85,1.69-4.91.45-1.2.91-2.36,1.31-3.19,0-.02.01-.03.02-.04.02-.06.05-.12.08-.17,0,0,0-.02,0-.02t0,0h0s.04-.08.04-.08c.23-.39.51-.72.84-.99,1.13-.91,2.74-1.09,4.07-.32.55.32.99.76,1.3,1.28h0l11.58,20.04c1.73,3,1.73,6.7,0,9.7Z"></path><path class="cls-1" d="M111.03,69.88c-.13.23-.3.44-.48.62.17-.19.33-.4.48-.62Z"></path><path class="cls-2" d="M52.89,136.47l2.27,4.48c2.21,4.36,5.75,7.9,10.11,10.11l4.48,2.27c2.05,1.04,2.05,3.97,0,5.01l-4.48,2.27c-4.36,2.21-7.9,5.75-10.11,10.11l-2.27,4.48c-1.04,2.05-3.97,2.05-5.01,0l-2.27-4.48c-2.21-4.36-5.75-7.9-10.11-10.11l-4.48-2.27c-2.05-1.04-2.05-3.97,0-5.01l4.48-2.27c4.36-2.21,7.9-5.75,10.11-10.11l2.27-4.48c1.04-2.05,3.97-2.05,5.01,0Z"></path><path class="cls-3" d="M89.97,169.13c0-1.24-.64-2.45-1.8-3.12-.9-.52-1.92-.6-2.84-.32-9.13,2.18-23.46,13.11-27.36,21.6h0c-.86,1.7-.25,3.79,1.41,4.75.08.04.15.08.23.12.46.23.96.35,1.45.36h0s19.19,0,19.19,0c5.36,0,9.7-4.34,9.7-9.7v-13.69s0,0,0,0Z"></path><path class="cls-2" d="M111.2,1.99l2.93,5.79c2.85,5.63,7.43,10.21,13.06,13.06l5.79,2.93c2.65,1.34,2.65,5.13,0,6.47l-5.79,2.93c-5.63,2.85-10.21,7.43-13.06,13.06l-2.93,5.79c-1.34,2.65-5.13,2.65-6.47,0l-2.93-5.79c-2.85-5.63-7.43-10.21-13.06-13.06l-5.79-2.93c-2.65-1.34-2.65-5.13,0-6.47l5.79-2.93c5.63-2.85,10.21-7.43,13.06-13.06l2.93-5.79c1.34-2.65,5.13-2.65,6.47,0Z"></path><path class="cls-2" d="M183.68,105l-.9-1.55-4.58-7.94-2.74-4.74c-.54-.93-1.58-1.47-2.65-1.33-2.06.26-4.06,1.19-5.64,2.77-3.32,3.31-3.74,8.42-1.29,12.2.17.26-.02.59-.32.59h-3.97c-.13,0-.26,0-.39,0-5.38,0-9.75,4.36-9.75,9.75s4.36,9.75,9.75,9.75c.13,0,.26,0,.39,0h0s27.34,0,27.34,0c2.67,0,4.34-2.89,3-5.2l-8.25-14.29Z"></path><path class="cls-2" d="M32.17,105.08l.9-1.55,4.58-7.94,2.74-4.74c.54-.93,1.58-1.47,2.65-1.33,2.06.26,4.06,1.19,5.64,2.77,3.32,3.31,3.74,8.42,1.29,12.2-.17.26.02.59.32.59h3.97c.13,0,.26,0,.39,0,5.38,0,9.75,4.36,9.75,9.75s-4.36,9.75-9.75,9.75c-.13,0-.26,0-.39,0h0s-27.34,0-27.34,0c-2.67,0-4.34-2.89-3-5.2l8.25-14.29Z"></path><path class="cls-3" d="M158.07,52.66h0c-.14-.24-.3-.46-.5-.66-.02-.02-.03-.04-.05-.06-6.15-6.79-18.04-9.67-26.38-5.89-5.18,2.35-11.57,8.56-14.92,14.92,0,0-3.82,6.16-4.88,8.33-.06.13-.13.24-.2.36-.03.06-.06.11-.1.17-.13.23-.3.44-.48.62,0,.01-.02.02-.02.03-.67.68-1.59,1.08-2.57,1.08-.98,0-1.9-.4-2.57-1.08,0,0-.02-.02-.02-.03-.18-.18-.34-.39-.48-.62-.04-.05-.07-.11-.1-.17-.07-.12-.14-.23-.2-.36-1.06-2.17-4.88-8.33-4.88-8.33-3.35-6.35-9.74-12.57-14.92-14.92-8.34-3.78-20.23-.89-26.38,5.89-.02.02-.04.04-.05.06-.2.2-.36.42-.5.65h0c-.64,1.09-.7,2.48-.02,3.65.5.87,1.31,1.45,2.2,1.69,0,0,.01,0,.02,0,.42.12,2.03.45,2.56.59,17.32,4.58,32.7,18.12,36.76,35.58,1.05,4.49.82,17.97.27,31.81-.48,12.18-1.21,24.63-1.54,31.47,0,.07-.01.14-.01.21,0,.95.7,1.73,1.6,1.86.04,0,.08.02.13.02,2.61.31,5.33.48,8.14.48h0s0,0,0,0,0,0,0,0h0c2.8,0,5.53-.17,8.14-.48.04,0,.09,0,.13-.02.91-.14,1.6-.92,1.6-1.86,0-.07,0-.14-.01-.21-.33-6.84-1.06-19.3-1.54-31.47-.55-13.84-.78-27.32.27-31.81,4.05-17.45,19.43-31,36.76-35.58.53-.14,2.14-.46,2.56-.59,0,0,.01,0,.02,0,.9-.23,1.71-.82,2.2-1.69.67-1.17.62-2.56-.02-3.64Z"></path><path class="cls-3" d="M153.8,127.96s-.08-.04-.12-.06c-.24-.12-.51-.18-.77-.19h-17.25c-5.36,0-9.7,4.35-9.7,9.7v17.11h0v.14h0c0,.27.07.53.19.77.02.04.04.08.06.12.38.65,1.09,1,1.79.94.05,0,.1-.01.15-.02.04,0,.09-.01.13-.02,6.85-1.11,10.86-7.05,10.86-14.2v-1.35h1.35c7.16,0,13.1-4.01,14.2-10.86.01-.04.02-.09.02-.13,0-.05.02-.1.02-.15.06-.7-.28-1.41-.94-1.79Z"></path><path class="cls-3" d="M80.27,127.7h-17.25c-.26,0-.53.07-.77.19-.04.02-.08.04-.12.06-.65.38-1,1.09-.94,1.79,0,.05.01.1.02.15,0,.04.01.09.02.13,1.11,6.85,7.05,10.86,14.2,10.86h1.35v1.35c0,7.16,4.01,13.1,10.86,14.2.04.01.09.02.13.02.05,0,.1.02.15.02.7.06,1.41-.28,1.79-.94.02-.04.04-.08.06-.12.12-.24.18-.51.19-.77h0v-.14h0v-17.11c0-5.36-4.35-9.7-9.7-9.7Z"></path><path class="cls-2" d="M168.04,136.47l2.27,4.48c2.21,4.36,5.75,7.9,10.11,10.11l4.48,2.27c2.05,1.04,2.05,3.97,0,5.01l-4.48,2.27c-4.36,2.21-7.9,5.75-10.11,10.11l-2.27,4.48c-1.04,2.05-3.97,2.05-5.01,0l-2.27-4.48c-2.21-4.36-5.75-7.9-10.11-10.11l-4.48-2.27c-2.05-1.04-2.05-3.97,0-5.01l4.48-2.27c4.36-2.21,7.9-5.75,10.11-10.11l2.27-4.48c1.04-2.05,3.97-2.05,5.01,0Z"></path><path class="cls-3" d="M125.96,169.13c0-1.24.64-2.45,1.8-3.12.9-.52,1.92-.6,2.84-.32,9.13,2.18,23.46,13.11,27.36,21.6h0c.86,1.7.25,3.79-1.41,4.75-.08.04-.15.08-.23.12-.46.23-.96.35-1.45.36h0s-19.19,0-19.19,0c-5.36,0-9.7-4.34-9.7-9.7v-13.69s0,0,0,0Z"></path><path class="cls-3" d="M1.3,168.28l11.2,19.4c1.73,3,4.94,4.85,8.4,4.85h22.96s.04,0,.04,0c.07,0,.14,0,.21,0h0c.5-.01,1-.13,1.47-.36.08-.04.15-.08.23-.12,1.67-.96,2.27-3.06,1.41-4.75l-.02-.04s-.04-.08-.06-.13l-.04-.08s-.02-.02-.02-.03c-.03-.05-.06-.11-.11-.16,0-.01-.02-.03-.03-.04-1.41-2.07-4.73-5.82-5.51-6.64-7.62-8.07-16.59-12.54-16.59-12.54h0c.02-.32.57-10.19-2.56-20.65-.21-.69-.92-2.85-1.69-4.91-.45-1.2-.91-2.36-1.31-3.19,0-.02-.01-.03-.02-.04-.02-.06-.05-.12-.08-.17,0,0,0-.02,0-.02t0,0h0s-.04-.08-.04-.08c-.23-.39-.51-.72-.84-.99-1.13-.91-2.74-1.09-4.07-.32-.55.32-.99.76-1.3,1.28h0l-11.58,20.04c-1.73,3-1.73,6.7,0,9.7Z"></path></g><g><g><path class="cls-2" d="M298.24,30.24h17.17c.82,0,1.56.52,1.84,1.29l26.07,71.89c.46,1.28-.48,2.63-1.84,2.63h-11.07c-.83,0-1.57-.53-1.85-1.31-1.86-5.31-3.77-10.75-5.56-17.08-.24-.85-1.01-1.44-1.89-1.44h-28.3c-.88,0-1.65.59-1.89,1.44-1.77,6.32-3.61,11.76-5.46,17.07-.27.79-1.02,1.31-1.85,1.31h-11.45c-1.36,0-2.3-1.35-1.84-2.63l26.07-71.89c.28-.78,1.02-1.29,1.84-1.29ZM317.58,71.99c-2.81-7.97-5.84-16.46-8.64-24.48-.14-.39-.51-.65-.92-.65h-1.92c-.41,0-.78.26-.92.65-2.88,8.02-5.92,16.52-8.73,24.49-.22.64.25,1.3.93,1.3h19.28c.68,0,1.15-.66.93-1.3Z"></path><path class="cls-2" d="M357.75,28.29h9.68c1.08,0,1.96.88,1.96,1.96v73.83c0,1.08-.88,1.96-1.96,1.96h-9.68c-1.08,0-1.96-.88-1.96-1.96V30.25c0-1.08.88-1.96,1.96-1.96Z"></path><path class="cls-2" d="M388.58,51.81h76.81c1.08,0,1.96.88,1.96,1.96v50.31c0,1.08-.88,1.96-1.96,1.96h-9.68c-1.08,0-1.96-.88-1.96-1.96v-37.87c0-1.08-.88-1.96-1.96-1.96h-16.09c-1.08,0-1.96.88-1.96,1.96v37.87c0,1.08-.88,1.96-1.96,1.96h-9.68c-1.08,0-1.96-.88-1.96-1.96v-37.87c0-1.08-.88-1.96-1.96-1.96h-16c-1.08,0-1.96.88-1.96,1.96v37.87c0,1.08-.88,1.96-1.96,1.96h-9.68c-1.08,0-1.96-.88-1.96-1.96v-50.31c0-1.08.88-1.96,1.96-1.96Z"></path><path class="cls-2" d="M482.16,79.02c0-17.98,11.75-28.77,24.67-28.77,7.77,0,13.6,3.89,16.61,8.84h.2v-5.33c0-1.08.88-1.96,1.96-1.96h9.58c1.08,0,1.96.88,1.96,1.96v50.31c0,1.08-.88,1.96-1.96,1.96h-9c-1.08,0-1.96-.88-1.96-1.96v-4.94h-.29c-3.89,6.12-10.78,8.46-17.2,8.46-15.45,0-24.58-12.73-24.58-28.57ZM509.94,94.67c8.06,0,13.7-6.9,13.7-15.84s-5.83-15.65-13.8-15.65-13.6,6.51-13.6,15.55,5.73,15.94,13.7,15.94Z"></path><path class="cls-2" d="M551.47,79.02c0-17.59,11.95-28.77,27.69-28.77,10.97,0,20.39,5.42,24.62,15.04.44,1.01-.05,2.18-1.07,2.6l-9.1,3.68c-.96.39-2.06-.03-2.5-.97-2.41-5.18-7.02-7.33-11.95-7.33-8.16,0-13.6,6.8-13.6,15.65,0,9.72,6.41,15.75,14.18,15.75,5.3,0,9.96-2.73,12.66-8.05.47-.92,1.54-1.35,2.49-.96l9.18,3.71c1.02.41,1.51,1.59,1.07,2.59-4.31,9.86-13.78,15.73-25.49,15.73-16.03,0-28.17-10.98-28.17-28.67Z"></path><path class="cls-2" d="M625.15,26.74c4.76,0,8.36,3.79,8.36,8.26,0,6.33-6.09,10.84-12.91,7.54-.24-.12-.47-.28-.66-.47-6.62-6.58-2.15-15.33,5.22-15.33ZM620.21,51.81h9.68c1.08,0,1.96.88,1.96,1.96v50.31c0,1.08-.88,1.96-1.96,1.96h-9.68c-1.08,0-1.96-.88-1.96-1.96v-50.31c0-1.08.88-1.96,1.96-1.96Z"></path><path class="cls-2" d="M654.47,88.74v-22.63c0-1.08-.88-1.96-1.96-1.96h-6.77c-1.08,0-1.96-.88-1.96-1.96v-7.99c0-1.04.81-1.89,1.84-1.95,4.26-.26,8.84-1.67,8.84-8.12v-5.72c0-1.08.88-1.96,1.96-1.96h9.68c1.08,0,1.96.88,1.96,1.96v11.44c0,1.08.88,1.96,1.96,1.96h10.75c1.08,0,1.96.88,1.96,1.96v8.42c0,1.08-.88,1.96-1.96,1.96h-10.75c-1.08,0-1.96.88-1.96,1.96v17.77c0,5.15,0,11.47,7.38,11.47,1.62,0,3.2-.3,4.67-.8,1.28-.43,2.62.49,2.62,1.84v8.01c0,.79-.46,1.51-1.19,1.81-2.54,1.05-5.66,1.48-8.91,1.48-18.17,0-18.17-13.31-18.17-18.95Z"></path><path class="cls-2" d="M693.15,79.02c0-17.98,11.76-28.77,24.68-28.77,7.77,0,13.6,3.89,16.61,8.84h.2v-5.33c0-1.08.88-1.96,1.96-1.96h9.58c1.08,0,1.96.88,1.96,1.96v50.31c0,1.08-.88,1.96-1.96,1.96h-9c-1.08,0-1.96-.88-1.96-1.96v-4.94h-.29c-3.89,6.12-10.78,8.46-17.2,8.46-15.45,0-24.58-12.73-24.58-28.57ZM720.94,94.67c8.06,0,13.7-6.9,13.7-15.84s-5.83-15.65-13.8-15.65-13.6,6.51-13.6,15.55,5.73,15.94,13.7,15.94Z"></path></g><g><path class="cls-2" d="M268.21,175.83l7.26-2.54c2.32,8.56,8.27,12.05,14.51,12.05,5.73,0,11.61-2.76,11.61-9.07s-5.66-7.69-10.81-9.29l-5.23-1.6c-5.59-1.74-15.38-5.37-15.38-16.04s9-15.82,18.94-15.82,16.98,5.52,19.16,13.35l-7.11,2.9c-1.89-5.52-6.17-9.14-12.41-9.14s-10.38,3.27-10.38,8.13c0,6.1,6.97,8.42,10.96,9.72l5.73,1.81c5.81,1.89,14.95,4.43,14.95,14.95s-8.56,17.27-19.96,17.27c-9.65,0-18.8-5.01-21.84-16.69Z"></path><path class="cls-2" d="M317.94,171.26c0-12.92,8.64-21.41,20.32-21.41,7.91,0,15.02,3.92,18.07,11.97l-6.97,2.76c-1.81-5.15-6.1-7.77-11.25-7.77-7.55,0-12.48,6.17-12.48,14.37,0,8.71,5.59,14.44,12.92,14.44,5.88,0,10.23-3.56,12.34-9l6.82,2.68c-3.05,8.42-10.31,13.21-19.3,13.21-11.76,0-20.46-8.35-20.46-21.26Z"></path><path class="cls-2" d="M366.34,133.23h7.4v24.67h.14c3.05-5.59,7.84-8.06,13.21-8.06,7.26,0,14.44,4.5,14.44,16.11v25.33h-7.4v-22.06c0-7.84-3.34-12.41-9.36-12.41-6.68,0-11.03,5.44-11.03,12.85v21.63h-7.4v-58.06Z"></path><path class="cls-2" d="M411.34,171.26c0-12.56,8.42-21.41,20.54-21.41s20.39,8.85,20.39,21.41-8.42,21.26-20.39,21.26-20.54-8.71-20.54-21.26ZM431.88,185.63c7.47,0,12.63-5.95,12.63-14.37s-5.15-14.44-12.63-14.44-12.77,5.95-12.77,14.44,5.15,14.37,12.77,14.37Z"></path><path class="cls-2" d="M460.07,171.26c0-12.56,8.42-21.41,20.54-21.41s20.39,8.85,20.39,21.41-8.42,21.26-20.39,21.26-20.54-8.71-20.54-21.26ZM480.6,185.63c7.47,0,12.63-5.95,12.63-14.37s-5.15-14.44-12.63-14.44-12.77,5.95-12.77,14.44,5.15,14.37,12.77,14.37Z"></path><path class="cls-2" d="M511.3,133.23h7.4v58.06h-7.4v-58.06Z"></path></g></g></g></g></svg> 