<svg width="529" height="528" viewBox="0 0 529 528" fill="none" xmlns="http://www.w3.org/2000/svg">
<path d="M263.334 527.93C408.734 527.93 526.604 410.034 526.604 264.601C526.604 119.168 408.734 1.27075 263.334 1.27075C117.933 1.27075 0.0632935 119.168 0.0632935 264.601C0.0632935 410.034 117.933 527.93 263.334 527.93Z" fill="#DAEDF2"/>
<path d="M263.333 514.489C401.314 514.489 513.169 402.61 513.169 264.601C513.169 126.591 401.314 14.7126 263.333 14.7126C125.353 14.7126 13.4975 126.591 13.4975 264.601C13.4975 402.61 125.353 514.489 263.333 514.489Z" fill="url(#paint0_linear_383_3)"/>
<path d="M263.333 514.47C401.3 514.47 513.144 402.6 513.144 264.601C513.144 126.602 401.3 14.7317 263.333 14.7317C125.367 14.7317 13.5228 126.602 13.5228 264.601C13.5228 402.6 125.367 514.47 263.333 514.47Z" fill="#CDE667"/>
<path d="M368.28 491.361C327.591 510.196 284.424 517.157 242.73 513.654L263.334 264.613L263.346 264.601L483.892 381.948C459.217 428.432 419.717 467.543 368.286 491.354L368.28 491.361Z" fill="#2883BF"/>
<path d="M242.73 513.654C156.117 506.408 75.7512 454.095 36.6238 369.581C23.9481 342.185 16.6397 313.677 14.2943 285.231L263.315 264.607L263.327 264.62L242.724 513.66L242.73 513.654Z" fill="#79A800"/>
<path d="M263.321 264.607L14.3005 285.231C6.26513 188.066 55.9883 91.7915 146.008 43.999L262.992 263.975L263.321 264.601V264.607Z" fill="#3B6C34"/>
<path d="M439.542 87.3845L262.992 263.975L146.008 43.9989C150.048 41.8555 154.17 39.807 158.374 37.8596C255.899 -7.29635 367.54 15.7875 439.542 87.3845Z" fill="#7FC0EB"/>
<path d="M483.886 381.961L263.34 264.613L263.327 264.626L263.315 264.613L262.986 263.987L439.536 87.3972C459.969 107.712 477.203 131.94 490.018 159.633C524.164 233.418 519.27 315.302 483.879 381.967L483.886 381.961Z" fill="#006492"/>
<mask id="mask0_383_3" style="mask-type:luminance" maskUnits="userSpaceOnUse" x="13" y="14" width="501" height="501">
<path d="M439.979 441.286C342.423 538.869 184.244 538.869 86.6883 441.286C-10.8677 343.703 -10.8677 185.499 86.6883 87.9157C184.244 -9.66722 342.423 -9.66722 439.979 87.9157C537.535 185.499 537.535 343.703 439.979 441.286Z" fill="white"/>
</mask>
<g mask="url(#mask0_383_3)">
<path d="M444.854 82.1875L262.904 264.177" stroke="white" stroke-width="3.12336" stroke-miterlimit="10"/>
<path d="M507.669 394.606L263.34 264.601" stroke="white" stroke-width="3.12336" stroke-miterlimit="10"/>
<path d="M133.365 20.2197L263.334 264.607" stroke="white" stroke-width="3.12336" stroke-miterlimit="10"/>
<path d="M-144.731 298.401L263.334 264.601" stroke="white" stroke-width="3.12336" stroke-miterlimit="10"/>
<path d="M229.549 672.787L263.334 264.601" stroke="white" stroke-width="3.12336" stroke-miterlimit="10"/>
</g>
<path d="M258.094 60.6906C256.615 60.9604 255.298 60.9307 254.142 60.6014C252.986 60.2721 251.996 59.7506 251.171 59.0368C250.361 58.3203 249.71 57.4977 249.216 56.5692C248.723 55.6406 248.393 54.7208 248.227 53.8097L248.137 53.3168C247.951 52.3011 247.926 51.2718 248.059 50.2288C248.208 49.1831 248.545 48.1956 249.07 47.2664C249.595 46.3372 250.329 45.5397 251.272 44.8737C252.228 44.19 253.415 43.7188 254.834 43.4599C256.313 43.1901 257.647 43.2246 258.835 43.5633C260.036 43.8844 261.053 44.4705 261.887 45.3214C262.719 46.1574 263.319 47.2054 263.688 48.4654L260.484 49.0499C260.228 48.3249 259.845 47.7467 259.334 47.3151C258.836 46.8659 258.249 46.5716 257.576 46.4322C256.899 46.2778 256.165 46.2728 255.374 46.4172C254.567 46.5644 253.876 46.8371 253.301 47.2353C252.722 47.6186 252.271 48.1023 251.945 48.6865C251.619 49.2706 251.407 49.9266 251.309 50.6546C251.225 51.3798 251.259 52.1606 251.412 52.997C251.559 53.8036 251.8 54.5313 252.134 55.1802C252.484 55.8264 252.923 56.3713 253.451 56.8151C253.977 57.2439 254.579 57.5429 255.259 57.7123C255.953 57.8789 256.718 57.8859 257.554 57.7333C258.779 57.5098 259.755 57.0231 260.483 56.273C261.222 55.5053 261.582 54.5599 261.562 53.4369L264.766 52.8523C264.829 54.0446 264.628 55.1848 264.163 56.2728C263.698 57.3608 262.959 58.2983 261.945 59.0852C260.931 59.8721 259.647 60.4072 258.094 60.6906Z" fill="white"/>
<path d="M268.725 59.5327C267.635 59.6186 266.66 59.5204 265.8 59.2379C264.94 58.9555 264.199 58.5418 263.578 57.9969C262.955 57.4368 262.462 56.7903 262.1 56.0574C261.752 55.3233 261.546 54.5476 261.482 53.7303L261.444 53.2535C261.378 52.4059 261.466 51.5918 261.709 50.8111C261.966 50.0141 262.358 49.2978 262.887 48.6622C263.43 48.0102 264.104 47.4848 264.91 47.0862C265.715 46.6724 266.64 46.4243 267.684 46.3419C268.728 46.2596 269.681 46.3596 270.541 46.642C271.399 46.9094 272.14 47.323 272.763 47.8831C273.4 48.4268 273.9 49.0727 274.264 49.8207C274.626 50.5536 274.841 51.3439 274.908 52.1915L274.945 52.6683C275.01 53.4856 274.92 54.2846 274.677 55.0653C274.449 55.8447 274.072 56.5599 273.544 57.2106C273.016 57.8463 272.349 58.371 271.544 58.7848C270.739 59.1986 269.799 59.4479 268.725 59.5327ZM268.511 56.8309C269.283 56.7701 269.921 56.5522 270.425 56.1774C270.927 55.7875 271.291 55.2943 271.519 54.6976C271.744 54.0858 271.828 53.4091 271.77 52.6675C271.71 51.9107 271.514 51.2561 271.181 50.7036C270.862 50.1348 270.417 49.7054 269.846 49.4154C269.288 49.1091 268.639 48.9851 267.897 49.0436C267.156 49.1022 266.526 49.327 266.009 49.7181C265.505 50.0928 265.133 50.5867 264.892 51.1997C264.65 51.7975 264.558 52.4748 264.618 53.2316C264.677 53.9733 264.865 54.6285 265.184 55.1973C265.517 55.7498 265.962 56.1792 266.52 56.4855C267.076 56.7767 267.739 56.8918 268.511 56.8309Z" fill="white"/>
<path d="M274.911 58.7758L275.196 46.4128L277.701 46.4706L277.578 51.7755L277.351 51.7702C277.38 50.5104 277.571 49.4669 277.924 48.6398C278.277 47.7975 278.785 47.1714 279.448 46.7614C280.126 46.3518 280.958 46.1584 281.944 46.1811L282.081 46.1842C283.553 46.2182 284.658 46.722 285.395 47.6958C286.132 48.6543 286.479 50.0747 286.436 51.9568L286.272 59.0377L283.108 58.9647L283.277 51.6107C283.295 50.8517 283.089 50.2319 282.659 49.7513C282.245 49.2709 281.659 49.022 280.9 49.0045C280.126 48.9867 279.49 49.215 278.993 49.6896C278.512 50.1493 278.262 50.7813 278.243 51.5858L278.076 58.8488L274.911 58.7758Z" fill="white"/>
<path d="M291.561 60.1454C289.871 59.9596 288.582 59.459 287.694 58.6436C286.823 57.8147 286.434 56.7639 286.528 55.4912L289.358 55.8022C289.357 56.2297 289.548 56.6403 289.933 57.0338C290.317 57.4274 290.962 57.6739 291.868 57.7734C292.622 57.8563 293.233 57.786 293.701 57.5624C294.184 57.3405 294.451 56.9956 294.502 56.5278C294.547 56.1203 294.409 55.7767 294.088 55.4971C293.783 55.2192 293.227 54.9977 292.42 54.8327L291.346 54.6001C289.989 54.2983 288.976 53.7898 288.306 53.0747C287.636 52.3596 287.359 51.4738 287.475 50.4174C287.568 49.5722 287.857 48.8861 288.343 48.3591C288.828 47.832 289.457 47.4658 290.228 47.2603C291.015 47.0413 291.892 46.9849 292.858 47.0911C294.367 47.2569 295.553 47.7232 296.416 48.4901C297.279 49.257 297.662 50.2843 297.567 51.5721L294.737 51.2611C294.753 50.8352 294.582 50.4498 294.222 50.1049C293.863 49.7599 293.314 49.5468 292.574 49.4656C291.91 49.3926 291.383 49.4645 290.993 49.6813C290.602 49.898 290.385 50.2101 290.34 50.6176C290.297 51.01 290.407 51.3276 290.671 51.5704C290.949 51.8148 291.416 52.0113 292.072 52.1597L293.146 52.3923C294.579 52.7024 295.667 53.2267 296.41 53.9652C297.169 54.7054 297.488 55.6263 297.367 56.728C297.277 57.543 296.973 58.2274 296.454 58.7813C295.952 59.3218 295.282 59.7141 294.446 59.9583C293.609 60.2024 292.648 60.2648 291.561 60.1454Z" fill="white"/>
<path d="M301.257 61.8046C300.198 61.6033 299.314 61.25 298.607 60.7446C297.914 60.242 297.364 59.6428 296.955 58.947C296.561 58.254 296.308 57.5105 296.196 56.7165C296.085 55.9225 296.102 55.1377 296.25 54.3621L296.331 53.937C296.486 53.1166 296.762 52.3576 297.157 51.66C297.57 50.9504 298.093 50.3543 298.726 49.8718C299.361 49.3744 300.092 49.0264 300.918 48.8279C301.761 48.6174 302.69 48.6085 303.705 48.8012C304.764 49.0025 305.671 49.3913 306.427 49.9677C307.186 50.5292 307.742 51.2221 308.095 52.0465C308.463 52.8738 308.585 53.7779 308.461 54.7587L305.44 54.1847C305.485 53.544 305.315 52.971 304.932 52.4654C304.564 51.9628 303.985 51.6363 303.194 51.4861C302.508 51.3557 301.903 51.4106 301.378 51.6509C300.868 51.894 300.446 52.2851 300.112 52.8243C299.78 53.3486 299.544 53.9836 299.402 54.7294C299.266 55.4454 299.247 56.114 299.346 56.7354C299.459 57.3597 299.708 57.8784 300.093 58.2916C300.493 58.7076 301.051 58.9836 301.767 59.1197C302.304 59.2218 302.785 59.2127 303.209 59.0925C303.634 58.9723 303.991 58.7619 304.28 58.4614C304.584 58.1637 304.806 57.8042 304.948 57.383L307.969 57.957C307.722 58.9301 307.267 59.74 306.603 60.3865C305.957 61.021 305.169 61.4663 304.24 61.7224C303.325 61.9813 302.331 62.0087 301.257 61.8046Z" fill="white"/>
<path d="M306.29 62.5437L309.353 50.5626L312.42 51.3467L309.357 63.3278L306.29 62.5437ZM307.09 52.4286L307.676 50.1339L312.42 51.3467L311.833 53.6414L307.09 52.4286ZM310.845 49.4161C310.242 49.2619 309.833 48.9928 309.617 48.6087C309.421 48.2136 309.382 47.7807 309.503 47.31C309.631 46.8099 309.874 46.4411 310.232 46.2036C310.605 45.97 311.093 45.9302 311.697 46.0844C312.3 46.2386 312.701 46.5058 312.902 46.8862C313.103 47.2666 313.139 47.7068 313.011 48.2069C312.891 48.6776 312.649 49.0391 312.287 49.2912C311.929 49.5287 311.448 49.5703 310.845 49.4161Z" fill="white"/>
<path d="M316.246 65.9755C315.209 65.6282 314.351 65.1564 313.67 64.56C312.989 63.9636 312.469 63.2931 312.11 62.5484C311.756 61.7892 311.555 61.0015 311.509 60.1852C311.476 59.3738 311.59 58.5793 311.851 57.8019L312.002 57.3484C312.272 56.5422 312.672 55.8274 313.201 55.2041C313.749 54.5711 314.391 54.0656 315.126 53.6874C315.88 53.2996 316.707 53.08 317.604 53.0285C318.507 52.9627 319.455 53.0961 320.449 53.4289C321.442 53.7617 322.279 54.2263 322.96 54.8226C323.646 55.4046 324.166 56.0752 324.52 56.8343C324.893 57.5839 325.101 58.374 325.143 59.2047C325.19 60.021 325.078 60.8322 324.808 61.6384L324.656 62.0919C324.396 62.8693 324.001 63.5697 323.472 64.1931C322.957 64.8213 322.33 65.3316 321.59 65.7242C320.855 66.1024 320.036 66.3245 319.133 66.3903C318.231 66.4562 317.268 66.3179 316.246 65.9755ZM317.107 63.4057C317.841 63.6517 318.513 63.7007 319.123 63.5528C319.738 63.3904 320.266 63.0792 320.709 62.6189C321.156 62.1442 321.498 61.5542 321.734 60.8488C321.975 60.129 322.051 59.4497 321.96 58.811C321.889 58.1627 321.648 57.5934 321.235 57.1031C320.842 56.6031 320.293 56.235 319.588 55.9987C318.882 55.7624 318.215 55.7229 317.586 55.8804C316.976 56.0284 316.44 56.3372 315.979 56.8071C315.522 57.2625 315.173 57.8501 314.932 58.57C314.695 59.2754 314.613 59.9522 314.684 60.6005C314.774 61.2392 315.016 61.8085 315.409 62.3085C315.807 62.794 316.373 63.1597 317.107 63.4057Z" fill="white"/>
<path d="M325.92 69.7903C324.62 69.202 323.804 68.3164 323.472 67.1333C323.155 65.9565 323.378 64.5242 324.141 62.8365L327.098 56.3003L329.982 57.6051L326.913 64.3903C326.6 65.082 326.543 65.7229 326.743 66.3132C326.949 66.8896 327.384 67.3279 328.048 67.6283C328.711 67.9287 329.348 67.9584 329.957 67.7173C330.58 67.4824 331.057 66.9984 331.389 66.2653L334.401 59.6045L337.286 60.9093L332.18 72.1973L329.897 71.1647L332.065 66.3715L332.294 66.4747C331.781 67.6091 331.207 68.4909 330.572 69.1204C329.937 69.7498 329.242 70.1267 328.486 70.2512C327.73 70.3757 326.916 70.2409 326.044 69.8466L325.92 69.7903Z" fill="white"/>
<path d="M336.99 75.4656C335.507 74.6323 334.518 73.6666 334.02 72.5684C333.543 71.4644 333.598 70.3453 334.183 69.2112L336.664 70.6062C336.496 70.9991 336.511 71.4519 336.711 71.9647C336.91 72.4774 337.407 72.957 338.201 73.4033C338.863 73.7753 339.453 73.9501 339.97 73.9276C340.501 73.9126 340.882 73.6999 341.113 73.2896C341.313 72.9322 341.321 72.5621 341.136 72.1792C340.964 71.8038 340.539 71.3821 339.861 70.9142L338.964 70.2793C337.834 69.4699 337.101 68.605 336.765 67.6845C336.429 66.7641 336.521 65.8406 337.042 64.9142C337.459 64.173 337.994 63.6551 338.647 63.3604C339.3 63.0658 340.022 62.975 340.812 63.0881C341.622 63.1954 342.451 63.4871 343.298 63.9633C344.621 64.7072 345.53 65.601 346.023 66.6447C346.516 67.6883 346.467 68.7838 345.874 69.9311L343.392 68.5361C343.574 68.1507 343.567 67.7289 343.372 67.2707C343.177 66.8126 342.755 66.4012 342.106 66.0367C341.524 65.7093 341.011 65.5689 340.567 65.6153C340.123 65.6618 339.8 65.8637 339.599 66.221C339.406 66.5651 339.383 66.9005 339.53 67.2272C339.691 67.5613 340.044 67.9251 340.589 68.3186L341.486 68.9535C342.682 69.8001 343.477 70.7088 343.872 71.6797C344.28 72.658 344.213 73.6303 343.67 74.5965C343.268 75.3112 342.72 75.8216 342.025 76.1279C341.351 76.4283 340.582 76.5269 339.717 76.4238C338.852 76.3207 337.943 76.0013 336.99 75.4656Z" fill="white"/>
<path d="M460.687 203.359L477.94 196.656L479.235 199.989L461.982 206.692L460.687 203.359ZM464.754 213.828L470.176 205.67L471.626 209.402L466.267 217.725L464.754 213.828ZM467.326 203.481L470.026 202.432L471.722 206.798C471.959 207.408 472.288 207.884 472.708 208.225C473.135 208.582 473.624 208.797 474.175 208.871C474.726 208.945 475.291 208.87 475.87 208.645C476.465 208.414 476.94 208.085 477.297 207.658C477.654 207.231 477.869 206.742 477.943 206.191C478.023 205.656 477.945 205.083 477.708 204.473L476.012 200.106L478.852 199.003L480.411 203.017C480.946 204.394 481.205 205.663 481.187 206.822C481.175 207.997 480.861 209.02 480.244 209.89C479.628 210.76 478.693 211.438 477.441 211.925L477.066 212.07C475.798 212.563 474.648 212.686 473.616 212.438C472.589 212.207 471.678 211.669 470.882 210.826C470.086 209.982 469.421 208.872 468.886 207.495L467.326 203.481Z" fill="white"/>
<path d="M466.272 221.452C465.965 220.317 465.891 219.268 466.048 218.304C466.209 217.356 466.538 216.511 467.033 215.769C467.549 215.038 468.172 214.417 468.904 213.907C469.64 213.412 470.429 213.052 471.272 212.824L471.734 212.699C472.609 212.463 473.489 212.373 474.374 212.43C475.279 212.498 476.123 212.723 476.903 213.103C477.705 213.495 478.404 214.054 479 214.78C479.612 215.502 480.065 216.406 480.358 217.492C480.743 218.918 480.748 220.195 480.374 221.322C480.021 222.46 479.4 223.411 478.51 224.173C477.636 224.93 476.616 225.467 475.449 225.782L474.233 226.11L471.076 214.416L473.142 213.858L475.729 223.437L474.425 222.667C475.268 222.44 475.957 222.123 476.491 221.718C477.025 221.313 477.386 220.816 477.574 220.226C477.767 219.652 477.763 218.992 477.562 218.247C477.361 217.501 477.02 216.915 476.539 216.488C476.059 216.061 475.457 215.798 474.735 215.697C474.032 215.609 473.236 215.685 472.344 215.925C471.518 216.149 470.815 216.477 470.237 216.912C469.675 217.342 469.28 217.875 469.051 218.51C468.839 219.141 468.844 219.87 469.068 220.697C469.291 221.523 469.635 222.152 470.099 222.584C470.579 223.01 471.082 223.231 471.608 223.245L472.448 226.357C471.488 226.408 470.593 226.25 469.763 225.882C468.934 225.515 468.217 224.952 467.612 224.194C467.012 223.452 466.565 222.538 466.272 221.452Z" fill="white"/>
<path d="M468.525 232.176C468.202 230.324 468.337 228.801 468.93 227.607C469.542 226.426 470.538 225.69 471.919 225.398L472.459 228.5C472.005 228.63 471.628 228.96 471.328 229.489C471.029 230.019 470.965 230.78 471.138 231.772C471.282 232.599 471.545 233.226 471.927 233.654C472.311 234.098 472.759 234.276 473.272 234.186C473.718 234.108 474.041 233.856 474.239 233.43C474.44 233.02 474.504 232.361 474.431 231.453L474.348 230.241C474.251 228.707 474.479 227.474 475.032 226.543C475.586 225.611 476.441 225.044 477.599 224.843C478.525 224.681 479.343 224.777 480.052 225.131C480.761 225.484 481.344 226.039 481.799 226.794C482.274 227.564 482.604 228.477 482.789 229.536C483.077 231.19 482.947 232.593 482.398 233.745C481.849 234.898 480.876 235.621 479.478 235.916L478.938 232.815C479.395 232.701 479.752 232.4 480.008 231.913C480.263 231.425 480.321 230.776 480.179 229.965C480.052 229.238 479.814 228.7 479.463 228.352C479.113 228.004 478.715 227.869 478.268 227.947C477.838 228.022 477.535 228.237 477.358 228.591C477.184 228.962 477.119 229.519 477.163 230.261L477.247 231.474C477.358 233.09 477.136 234.407 476.581 235.424C476.028 236.458 475.148 237.08 473.941 237.29C473.048 237.446 472.227 237.334 471.479 236.953C470.751 236.586 470.128 235.995 469.611 235.182C469.094 234.369 468.732 233.367 468.525 232.176Z" fill="white"/>
<path d="M469.642 237.386L483.235 235.897L483.616 239.377L470.023 240.865L469.642 237.386ZM480.423 234.28L483.026 233.994L483.616 239.377L481.012 239.662L480.423 234.28ZM485.002 236.995C484.927 236.311 485.046 235.783 485.36 235.411C485.693 235.054 486.126 234.846 486.66 234.787C487.227 234.725 487.704 234.833 488.089 235.112C488.476 235.407 488.707 235.897 488.782 236.581C488.857 237.266 488.736 237.786 488.421 238.141C488.105 238.496 487.663 238.705 487.096 238.767C486.562 238.826 486.094 238.717 485.692 238.44C485.307 238.161 485.077 237.68 485.002 236.995Z" fill="white"/>
<path d="M470.118 242.624L488.468 241.508L488.681 245.002L470.331 246.118L470.118 242.624ZM485.75 239.958L488.364 239.799L488.681 245.002L486.066 245.161L485.75 239.958Z" fill="white"/>
<path d="M470.375 248.844L484.048 248.669L484.093 252.17L470.42 252.344L470.375 248.844ZM481.405 246.789L484.024 246.756L484.093 252.17L481.474 252.203L481.405 246.789ZM485.701 249.933C485.693 249.244 485.862 248.73 486.21 248.39C486.576 248.066 487.027 247.901 487.564 247.894C488.135 247.887 488.599 248.041 488.955 248.355C489.312 248.686 489.495 249.196 489.504 249.884C489.512 250.573 489.343 251.078 488.994 251.402C488.646 251.725 488.186 251.891 487.615 251.898C487.078 251.905 486.623 251.751 486.249 251.437C485.893 251.122 485.71 250.621 485.701 249.933Z" fill="white"/>
<path d="M469.564 259.91C469.638 258.737 469.904 257.719 470.362 256.856C470.818 256.01 471.4 255.315 472.107 254.77C472.83 254.244 473.62 253.856 474.476 253.607C475.332 253.375 476.196 253.286 477.067 253.34L477.544 253.37C478.449 253.427 479.312 253.624 480.131 253.962C480.967 254.317 481.694 254.8 482.311 255.411C482.945 256.039 483.428 256.793 483.759 257.671C484.108 258.551 484.247 259.552 484.176 260.675C484.084 262.15 483.68 263.361 482.964 264.308C482.265 265.274 481.371 265.974 480.284 266.411C479.214 266.848 478.075 267.029 476.869 266.954L475.612 266.875L476.371 254.786L478.507 254.92L477.886 264.822L476.898 263.675C477.769 263.73 478.523 263.651 479.158 263.439C479.794 263.226 480.296 262.871 480.664 262.372C481.03 261.891 481.238 261.264 481.286 260.494C481.334 259.723 481.2 259.058 480.881 258.5C480.563 257.942 480.078 257.499 479.425 257.172C478.789 256.863 478.01 256.68 477.088 256.622C476.234 256.568 475.463 256.655 474.776 256.881C474.105 257.108 473.56 257.486 473.14 258.014C472.737 258.544 472.508 259.236 472.455 260.091C472.401 260.945 472.525 261.651 472.827 262.209C473.145 262.767 473.551 263.137 474.044 263.319L473.842 266.537C472.916 266.277 472.119 265.84 471.451 265.226C470.783 264.612 470.285 263.849 469.955 262.937C469.624 262.041 469.494 261.032 469.564 259.91Z" fill="white"/>
<path d="M469.515 265.922L482.991 268.24L482.521 270.97L476.739 269.975L476.781 269.727C478.155 269.963 479.265 270.342 480.113 270.862C480.976 271.386 481.579 272.043 481.92 272.834C482.258 273.642 482.334 274.583 482.149 275.659L482.124 275.808C481.848 277.413 481.117 278.539 479.933 279.187C478.765 279.838 477.155 279.987 475.103 279.634L467.385 278.306L467.978 274.856L475.994 276.235C476.822 276.378 477.533 276.253 478.128 275.861C478.721 275.486 479.088 274.885 479.231 274.058C479.376 273.214 479.229 272.482 478.791 271.861C478.366 271.26 477.715 270.884 476.838 270.733L468.921 269.372L469.515 265.922Z" fill="white"/>
<path d="M465.286 284.744C465.609 283.527 466.03 282.561 466.549 281.848C467.08 281.155 467.771 280.713 468.621 280.522C469.487 280.335 470.561 280.411 471.843 280.751L483.812 283.954L482.972 287.118L470.784 283.858C470.135 283.685 469.587 283.722 469.139 283.968C468.704 284.235 468.4 284.693 468.228 285.342L467.679 287.411L464.782 286.642L465.286 284.744ZM478.167 280.189L480.649 280.848L478.17 290.195L475.687 289.536L478.167 280.189Z" fill="white"/>
<path d="M309.481 475.073L306.168 456.986L310.975 456.106L317.488 466.078L317.933 465.996L320.464 454.367L325.345 453.473L328.658 471.56L325.165 472.2L322.337 456.764L322.792 456.732L320.053 469.321L316.461 469.979L309.413 459.183L309.874 459.047L312.702 474.483L309.481 475.073Z" fill="white"/>
<path d="M334.866 469.814C333.355 470.272 332.031 470.129 330.893 469.386C329.772 468.638 328.914 467.284 328.319 465.323L326.018 457.729L329.369 456.714L331.758 464.597C332.001 465.4 332.421 465.975 333.017 466.321C333.609 466.65 334.29 466.698 335.061 466.465C335.833 466.231 336.384 465.792 336.715 465.147C337.062 464.498 337.107 463.748 336.849 462.896L334.504 455.158L337.855 454.142L341.829 467.256L339.177 468.06L337.489 462.491L337.755 462.411C338.154 463.729 338.319 464.881 338.249 465.867C338.18 466.853 337.875 467.673 337.337 468.328C336.798 468.983 336.023 469.463 335.01 469.77L334.866 469.814Z" fill="white"/>
<path d="M344.407 466.183L338.016 448.941L341.299 447.724L347.69 464.966L344.407 466.183ZM337.321 451.993L336.41 449.537L341.299 447.724L342.21 450.181L337.321 451.993Z" fill="white"/>
<path d="M355.936 461.747C354.774 462.235 353.753 462.491 352.871 462.515C351.997 462.517 351.225 462.241 350.555 461.684C349.878 461.113 349.282 460.215 348.769 458.992L343.994 447.556L347.013 446.288L351.875 457.933C352.136 458.553 352.5 458.964 352.968 459.168C353.445 459.35 353.993 459.311 354.612 459.051L356.587 458.222L357.747 460.986L355.936 461.747ZM344.46 454.327L343.465 451.958L352.383 448.212L353.378 450.581L344.46 454.327Z" fill="white"/>
<path d="M359.151 460.046L353.341 447.664L356.51 446.176L362.321 458.558L359.151 460.046ZM352.721 450.849L351.608 448.477L356.51 446.176L357.623 448.548L352.721 450.849ZM353.808 445.636C353.185 445.928 352.646 445.986 352.193 445.81C351.747 445.611 351.41 445.268 351.182 444.782C350.939 444.265 350.887 443.779 351.026 443.324C351.18 442.862 351.569 442.485 352.193 442.192C352.816 441.9 353.347 441.845 353.785 442.029C354.224 442.213 354.565 442.563 354.807 443.08C355.035 443.567 355.084 444.045 354.952 444.515C354.813 444.97 354.432 445.343 353.808 445.636Z" fill="white"/>
<path d="M370.111 455.047C369.058 455.606 368.051 455.912 367.091 455.966C366.145 456.012 365.256 455.876 364.422 455.558C363.602 455.233 362.87 454.766 362.224 454.158C361.578 453.551 361.05 452.861 360.641 452.09L360.416 451.667C359.983 450.852 359.696 450.006 359.554 449.131C359.419 448.232 359.458 447.356 359.67 446.502C359.874 445.633 360.264 444.827 360.839 444.084C361.421 443.319 362.216 442.668 363.225 442.133C364.278 441.574 365.33 441.281 366.381 441.255C367.424 441.215 368.383 441.428 369.259 441.895C370.149 442.353 370.88 443.049 371.451 443.982L368.448 445.577C368.043 444.993 367.5 444.616 366.82 444.445C366.154 444.266 365.429 444.385 364.643 444.802C363.96 445.165 363.476 445.631 363.189 446.202C362.918 446.764 362.824 447.394 362.909 448.09C362.986 448.772 363.221 449.484 363.615 450.225C363.993 450.937 364.439 451.527 364.954 451.995C365.484 452.456 366.058 452.731 366.676 452.821C367.309 452.903 367.981 452.755 368.693 452.377C369.227 452.093 369.636 451.753 369.919 451.355C370.202 450.958 370.364 450.529 370.406 450.07C370.462 449.603 370.405 449.138 370.236 448.677L373.24 447.082C373.7 448.092 373.868 449.106 373.742 450.123C373.624 451.118 373.252 452.047 372.627 452.911C372.017 453.768 371.179 454.48 370.111 455.047Z" fill="white"/>
<path d="M379.343 449.571C378.005 450.408 376.69 450.617 375.397 450.197C374.119 449.768 372.937 448.685 371.851 446.948L367.644 440.221L370.612 438.364L374.98 445.348C375.425 446.06 375.98 446.505 376.646 446.683C377.303 446.846 377.973 446.714 378.656 446.287C379.34 445.859 379.757 445.291 379.908 444.583C380.073 443.865 379.92 443.129 379.448 442.375L375.161 435.519L378.13 433.663L385.395 445.281L383.046 446.75L379.961 441.817L380.196 441.67C380.926 442.837 381.386 443.906 381.577 444.876C381.768 445.846 381.689 446.718 381.34 447.49C380.991 448.263 380.368 448.93 379.471 449.491L379.343 449.571Z" fill="white"/>
<path d="M387.59 443.604L376.965 428.596L379.823 426.573L390.448 441.58L387.59 443.604ZM377.081 431.724L375.567 429.586L379.823 426.573L381.336 428.711L377.081 431.724Z" fill="white"/>
<path d="M397.603 436.336C396.607 437.107 395.686 437.618 394.84 437.87C393.997 438.098 393.18 438.029 392.389 437.665C391.587 437.288 390.78 436.575 389.968 435.526L382.401 425.711L384.99 423.706L392.695 433.7C393.107 434.231 393.565 434.535 394.07 434.611C394.578 434.664 395.097 434.485 395.628 434.073L397.321 432.763L399.156 435.133L397.603 436.336ZM384.6 432.132L383.027 430.1L390.675 424.178L392.248 426.21L384.6 432.132Z" fill="white"/>
<path d="M403.772 431.386C402.593 432.435 401.331 432.861 399.987 432.663C398.655 432.455 397.308 431.585 395.947 430.055L390.673 424.126L393.288 421.799L398.763 427.953C399.321 428.58 399.943 428.926 400.63 428.99C401.304 429.041 401.943 428.799 402.545 428.263C403.147 427.727 403.464 427.097 403.494 426.373C403.537 425.638 403.263 424.938 402.671 424.273L397.297 418.232L399.912 415.905L409.02 426.143L406.95 427.985L403.083 423.637L403.29 423.453C404.205 424.482 404.838 425.459 405.188 426.383C405.539 427.308 405.607 428.18 405.392 429C405.178 429.82 404.676 430.582 403.885 431.285L403.772 431.386Z" fill="white"/>
<path d="M410.853 424.148L401.046 414.614L402.978 412.627L407.132 416.666L407.079 416.72C405.67 415.35 404.897 414.013 404.76 412.709C404.623 411.405 405.122 410.168 406.257 409L406.608 408.639L408.794 410.764L408.127 411.45C407.307 412.293 406.898 413.172 406.899 414.086C406.9 414.977 407.328 415.838 408.183 416.669L413.294 421.638L410.853 424.148Z" fill="white"/>
<path d="M422.562 411.087L419.455 408.48L419.083 408.923L415.629 406.025C415.025 405.518 414.45 405.288 413.906 405.335C413.362 405.383 412.831 405.716 412.313 406.333C412.043 406.655 411.726 407.046 411.361 407.507C410.996 407.968 410.632 408.441 410.269 408.926C409.904 409.387 409.583 409.808 409.307 410.19L407.03 408.279C407.253 407.962 407.507 407.606 407.795 407.211C408.082 406.816 408.388 406.426 408.711 406.04C409.033 405.631 409.34 405.252 409.631 404.905C410.538 403.824 411.429 403.049 412.306 402.579C413.194 402.096 414.091 401.928 414.998 402.075C415.915 402.209 416.863 402.687 417.84 403.507L424.343 408.964L422.562 411.087ZM419.999 414.69C419.362 415.449 418.666 416.005 417.91 416.357C417.165 416.696 416.406 416.816 415.635 416.717C414.874 416.605 414.14 416.252 413.433 415.658C412.661 415.01 412.187 414.295 412.011 413.512C411.846 412.715 411.927 411.874 412.255 410.987C412.594 410.087 413.151 409.174 413.928 408.248L415.969 405.817L417.57 407.161L415.498 409.631C414.98 410.248 414.735 410.854 414.763 411.447C414.789 412.017 415.04 412.502 415.516 412.901C415.992 413.3 416.512 413.463 417.078 413.39C417.655 413.304 418.202 412.952 418.72 412.335C419.033 411.962 419.255 411.567 419.385 411.15C419.513 410.71 419.503 410.252 419.354 409.776C419.203 409.277 418.856 408.776 418.311 408.276L419.614 408.251C420.293 408.931 420.76 409.629 421.013 410.346C421.277 411.05 421.329 411.773 421.167 412.514C421.003 413.231 420.614 413.957 419.999 414.69Z" fill="white"/>
<path d="M425.466 407.178L410.594 396.364L412.653 393.532L427.525 404.346L425.466 407.178ZM411.706 399.29L409.587 397.749L412.653 393.532L414.772 395.072L411.706 399.29Z" fill="white"/>
<path d="M83.56 388.814L98.8378 378.59L100.784 381.499L85.5066 391.723L83.56 388.814ZM85.2265 391.305L87.7379 389.624L92.3735 396.552L89.8621 398.232L85.2265 391.305ZM91.7353 386.949L94.2467 385.268L98.5181 391.652L96.0067 393.332L91.7353 386.949ZM97.9929 382.761L100.504 381.08L105.028 387.84L102.516 389.521L97.9929 382.761Z" fill="white"/>
<path d="M94.3774 404.267C93.6151 403.265 93.1119 402.34 92.8677 401.492C92.6471 400.647 92.7221 399.831 93.0928 399.043C93.4769 398.244 94.1967 397.444 95.2522 396.64L105.128 389.159L107.11 391.765L97.0538 399.383C96.5193 399.79 96.2119 400.245 96.1313 400.75C96.0744 401.257 96.2491 401.778 96.6557 402.313L97.9516 404.016L95.5665 405.831L94.3774 404.267ZM98.6911 391.303L100.735 389.748L106.59 397.445L104.546 399L98.6911 391.303Z" fill="white"/>
<path d="M96.4724 406.632L110.371 394.6L112.662 397.247L104.551 404.268L104.156 403.811C105.197 402.91 106.194 402.28 107.148 401.92C108.103 401.56 108.995 401.476 109.827 401.667C110.669 401.87 111.442 402.378 112.145 403.19L112.244 403.305C113.265 404.485 113.634 405.732 113.349 407.044C113.064 408.357 112.147 409.683 110.599 411.024L104.696 416.134L102.405 413.487L108.555 408.163C109.215 407.592 109.571 406.951 109.622 406.24C109.684 405.542 109.452 404.889 108.924 404.28C108.364 403.632 107.692 403.292 106.909 403.26C106.15 403.229 105.427 403.51 104.742 404.103L98.7632 409.279L96.4724 406.632Z" fill="white"/>
<path d="M106.733 418.052L116.553 408.536L118.989 411.049L109.169 420.566L106.733 418.052ZM113.34 408.984L115.221 407.161L118.989 411.049L117.108 412.872L113.34 408.984ZM118.622 408.319C118.143 407.824 117.913 407.334 117.933 406.848C117.976 406.361 118.191 405.931 118.576 405.558C118.986 405.16 119.429 404.953 119.904 404.937C120.391 404.933 120.874 405.178 121.353 405.672C121.832 406.167 122.056 406.651 122.024 407.126C121.993 407.6 121.773 408.036 121.363 408.433C120.977 408.807 120.541 409.008 120.053 409.036C119.578 409.052 119.101 408.813 118.622 408.319Z" fill="white"/>
<path d="M115.038 426.804C114.167 425.99 113.55 425.138 113.187 424.247C112.837 423.368 112.676 422.483 112.705 421.591C112.747 420.711 112.95 419.866 113.315 419.058C113.679 418.25 114.159 417.527 114.755 416.889L115.082 416.539C115.713 415.865 116.419 415.318 117.2 414.9C118.006 414.48 118.846 414.232 119.723 414.155C120.611 414.065 121.499 414.172 122.388 414.474C123.301 414.776 124.175 415.317 125.009 416.096C125.88 416.91 126.498 417.81 126.864 418.795C127.241 419.768 127.352 420.744 127.195 421.724C127.05 422.715 126.63 423.632 125.934 424.475L123.45 422.154C123.87 421.581 124.051 420.945 123.991 420.247C123.944 419.559 123.596 418.912 122.946 418.304C122.381 417.777 121.783 417.47 121.151 417.385C120.53 417.311 119.905 417.427 119.274 417.734C118.654 418.028 118.058 418.482 117.485 419.095C116.935 419.684 116.522 420.298 116.247 420.936C115.984 421.587 115.91 422.219 116.026 422.833C116.154 423.458 116.512 424.046 117.101 424.596C117.543 425.009 117.997 425.284 118.465 425.423C118.933 425.561 119.391 425.575 119.839 425.465C120.298 425.367 120.719 425.162 121.101 424.852L123.584 427.174C122.779 427.937 121.875 428.425 120.873 428.638C119.894 428.849 118.894 428.8 117.874 428.49C116.866 428.191 115.921 427.629 115.038 426.804Z" fill="white"/>
<path d="M126.478 435.841L129.033 432.693L128.584 432.328L131.425 428.828C131.922 428.216 132.142 427.638 132.086 427.095C132.03 426.552 131.689 426.026 131.063 425.518C130.737 425.254 130.341 424.943 129.874 424.585C129.407 424.228 128.929 423.872 128.438 423.517C127.972 423.16 127.545 422.846 127.159 422.576L129.032 420.268C129.353 420.486 129.713 420.735 130.112 421.016C130.511 421.296 130.906 421.596 131.297 421.913C131.712 422.228 132.095 422.528 132.447 422.814C133.542 423.703 134.331 424.582 134.815 425.451C135.312 426.33 135.495 427.224 135.363 428.133C135.243 429.052 134.781 430.008 133.977 430.998L128.629 437.587L126.478 435.841ZM122.835 433.337C122.066 432.713 121.499 432.026 121.135 431.276C120.783 430.537 120.651 429.78 120.738 429.008C120.838 428.245 121.179 427.506 121.761 426.789C122.395 426.007 123.103 425.521 123.883 425.333C124.676 425.155 125.518 425.223 126.41 425.536C127.315 425.86 128.237 426.402 129.175 427.164L131.639 429.164L130.321 430.787L127.819 428.755C127.193 428.247 126.584 428.012 125.991 428.05C125.422 428.085 124.942 428.344 124.55 428.826C124.159 429.309 124.004 429.832 124.087 430.396C124.182 430.971 124.543 431.513 125.168 432.021C125.546 432.327 125.945 432.543 126.363 432.666C126.805 432.788 127.263 432.77 127.736 432.613C128.233 432.454 128.727 432.099 129.219 431.546L129.264 432.848C128.596 433.538 127.906 434.016 127.193 434.281C126.494 434.557 125.772 434.62 125.029 434.47C124.309 434.318 123.577 433.94 122.835 433.337Z" fill="white"/>
<path d="M130.319 438.671L141.093 423.775L143.929 425.827L133.155 440.722L130.319 438.671ZM138.171 424.893L139.706 422.771L143.929 425.827L142.394 427.949L138.171 424.893Z" fill="white"/>
<path d="M64.6266 216.122L46.5721 212.636L47.2503 209.124L65.3048 212.61L64.6266 216.122Z" fill="white"/>
<path d="M65.6572 210.79L52.4406 207.269L53.154 204.591L58.8252 206.102L58.7603 206.346C57.4135 205.987 56.3414 205.51 55.5441 204.915C54.7305 204.316 54.1895 203.607 53.9211 202.788C53.657 201.953 53.6654 201.008 53.9465 199.954L53.9854 199.808C54.4048 198.234 55.2337 197.177 56.4722 196.638C57.6944 196.095 59.3116 196.091 61.3237 196.628L68.8934 198.645L67.9919 202.028L60.1301 199.933C59.3188 199.717 58.5989 199.777 57.9705 200.114C57.3464 200.434 56.9263 201 56.7101 201.811C56.4896 202.639 56.5698 203.381 56.9507 204.039C57.3197 204.676 57.9342 205.109 58.7942 205.338L66.5587 207.407L65.6572 210.79Z" fill="white"/>
<path d="M69.2819 197.797L56.4291 193.118L57.3767 190.515L62.8918 192.522L62.8057 192.759C61.496 192.282 60.4703 191.712 59.7288 191.049C58.9714 190.38 58.4953 189.626 58.3004 188.787C58.1113 187.932 58.2034 186.991 58.5767 185.966L58.6284 185.824C59.1854 184.293 60.1046 183.314 61.3859 182.887C62.6514 182.454 64.2625 182.594 66.2192 183.306L73.5806 185.985L72.3832 189.276L64.7378 186.493C63.9488 186.205 63.2264 186.202 62.5707 186.481C61.9207 186.745 61.4521 187.271 61.165 188.06C60.8721 188.865 60.8862 189.612 61.2074 190.301C61.5186 190.968 62.0923 191.454 62.9286 191.758L70.4793 194.507L69.2819 197.797Z" fill="white"/>
<path d="M77.3005 179.222C76.7941 180.32 76.1722 181.207 75.4347 181.884C74.6972 182.561 73.8974 183.052 73.0355 183.357C72.1583 183.655 71.2682 183.781 70.3651 183.735C69.469 183.673 68.6092 183.452 67.7858 183.072L67.3055 182.85C66.4515 182.456 65.7137 181.931 65.0919 181.274C64.4619 180.596 63.9831 179.829 63.6557 178.975C63.32 178.099 63.1778 177.165 63.2291 176.171C63.2652 175.171 63.5259 174.144 64.0111 173.092C64.4964 172.04 65.1078 171.175 65.8453 170.498C66.5676 169.814 67.3673 169.323 68.2445 169.025C69.1135 168.705 70.0071 168.571 70.9255 168.625C71.8286 168.672 72.7071 168.892 73.561 169.286L74.0414 169.508C74.8648 169.887 75.5874 170.406 76.2092 171.062C76.838 171.704 77.3238 172.455 77.6665 173.316C77.994 174.169 78.1397 175.097 78.1036 176.097C78.0675 177.098 77.7998 178.139 77.3005 179.222ZM74.5786 177.966C74.9372 177.189 75.0719 176.456 74.9826 175.767C74.878 175.072 74.5993 174.453 74.1464 173.911C73.6783 173.362 73.0706 172.916 72.3234 172.571C71.561 172.219 70.8232 172.055 70.1102 172.077C69.3889 172.077 68.7339 172.275 68.1453 172.669C67.5484 173.041 67.0777 173.6 66.7331 174.348C66.3885 175.095 66.2649 175.824 66.3625 176.535C66.4518 177.223 66.727 177.849 67.1881 178.413C67.6339 178.97 68.2381 179.425 69.0005 179.776C69.7477 180.121 70.4819 180.293 71.2032 180.293C71.9163 180.271 72.5713 180.073 73.1682 179.701C73.7498 179.322 74.2199 178.744 74.5786 177.966Z" fill="white"/>
<path d="M81.1519 170.597L67.1099 167.728L68.8522 164.575L82.809 167.599L81.1519 170.597ZM81.6515 169.693L79.1383 168.304L80.9294 165.063L83.4425 166.452L81.6515 169.693ZM82.3216 168.481L72.0567 158.777L73.6894 155.823L83.869 165.681L82.3216 168.481Z" fill="white"/>
<path d="M90.2205 155.637L86.8151 153.434L86.5006 153.921L82.7145 151.472C82.0517 151.044 81.4533 150.887 80.9193 151.001C80.3853 151.116 79.8994 151.512 79.4617 152.188C79.2338 152.541 78.9672 152.969 78.6622 153.471C78.3572 153.974 78.0546 154.488 77.7545 155.014C77.4495 155.517 77.1834 155.975 76.9563 156.388L74.4605 154.774C74.642 154.431 74.8509 154.046 75.0871 153.619C75.3233 153.192 75.5782 152.767 75.8518 152.344C76.1203 151.897 76.3777 151.484 76.6239 151.103C77.3899 149.919 78.1787 149.039 78.9904 148.464C79.8113 147.875 80.6808 147.597 81.5988 147.631C82.526 147.651 83.5254 148.007 84.5971 148.7L91.725 153.31L90.2205 155.637ZM88.123 159.53C87.585 160.362 86.9628 160.999 86.2564 161.443C85.559 161.871 84.8214 162.084 84.0435 162.081C83.2748 162.064 82.5026 161.805 81.727 161.303C80.881 160.756 80.3223 160.105 80.0509 159.349C79.7886 158.58 79.7651 157.734 79.9805 156.814C80.205 155.879 80.6455 154.904 81.302 153.889L83.0254 151.223L84.781 152.359L83.0302 155.066C82.5925 155.743 82.4244 156.374 82.5257 156.96C82.6221 157.522 82.9311 157.972 83.4528 158.309C83.9746 158.647 84.5116 158.744 85.0638 158.601C85.6252 158.445 86.1248 158.028 86.5625 157.351C86.8269 156.942 86.998 156.523 87.0759 156.093C87.1487 155.64 87.0818 155.187 86.8752 154.733C86.6636 154.256 86.2567 153.803 85.6545 153.374L86.9444 153.188C87.7026 153.778 88.2518 154.414 88.592 155.094C88.9413 155.759 89.0817 156.47 89.013 157.226C88.9394 157.958 88.6428 158.726 88.123 159.53Z" fill="white"/>
<path d="M95.929 148.064C95.1852 149.08 94.4416 149.826 93.6982 150.302C92.9511 150.754 92.1469 150.914 91.2856 150.783C90.4107 150.643 89.4379 150.18 88.3674 149.397L78.3819 142.057L80.3158 139.414L90.4843 146.888C91.0263 147.285 91.5505 147.45 92.0569 147.384C92.5596 147.294 93.0094 146.978 93.4061 146.436L94.6705 144.708L97.0893 146.478L95.929 148.064ZM82.2708 147.619L80.1975 146.101L85.91 138.296L87.9832 139.813L82.2708 147.619Z" fill="white"/>
<path d="M97.6237 145.67L86.9346 137.136L89.1188 134.399L99.8079 142.933L97.6237 145.67ZM87.7876 140.267L85.7403 138.632L89.1188 134.399L91.1661 136.034L87.7876 140.267ZM86.4565 135.11C86.0269 135.648 85.5696 135.939 85.0845 135.981C84.5967 136 84.1429 135.842 83.7229 135.507C83.2767 135.15 83.0153 134.738 82.9388 134.268C82.8727 133.786 83.0545 133.275 83.484 132.737C83.9135 132.199 84.3656 131.915 84.8402 131.886C85.3149 131.857 85.7753 132.02 86.2215 132.376C86.6414 132.712 86.8962 133.119 86.9859 133.599C87.0625 134.069 86.886 134.572 86.4565 135.11Z" fill="white"/>
<path d="M102.7 139.587L89.6453 133.671L92.0442 130.984L104.981 137.031L102.7 139.587ZM103.387 138.817L101.245 136.904L103.711 134.142L105.853 136.054L103.387 138.817ZM104.31 137.783L96.4562 126.042L98.7041 123.525L106.44 135.397L104.31 137.783Z" fill="white"/>
<path d="M113.384 129.223C112.536 130.036 111.651 130.606 110.73 130.931C109.821 131.244 108.922 131.362 108.032 131.284C107.144 131.182 106.3 130.933 105.501 130.536C104.713 130.128 104.018 129.608 103.413 128.978L103.082 128.633C102.454 127.978 101.953 127.249 101.578 126.445C101.203 125.618 100.995 124.77 100.954 123.902C100.914 123.011 101.069 122.129 101.419 121.258C101.759 120.374 102.334 119.543 103.146 118.764C104.213 117.741 105.33 117.123 106.499 116.91C107.667 116.673 108.8 116.762 109.896 117.177C110.98 117.58 111.94 118.218 112.777 119.09L113.649 119.999L104.904 128.386L103.422 126.84L110.585 119.971L110.536 121.484C109.931 120.854 109.323 120.402 108.711 120.128C108.1 119.853 107.49 119.775 106.881 119.893C106.285 119.999 105.709 120.32 105.151 120.855C104.594 121.389 104.243 121.97 104.099 122.596C103.955 123.223 104.013 123.877 104.272 124.56C104.531 125.218 104.981 125.881 105.62 126.548C106.213 127.166 106.838 127.624 107.497 127.923C108.144 128.21 108.802 128.301 109.469 128.196C110.124 128.079 110.761 127.724 111.379 127.132C111.998 126.539 112.384 125.935 112.54 125.321C112.683 124.694 112.636 124.147 112.396 123.679L114.723 121.447C115.228 122.265 115.519 123.127 115.595 124.031C115.671 124.935 115.522 125.835 115.147 126.73C114.784 127.613 114.196 128.444 113.384 129.223Z" fill="white"/>
<path d="M263.333 440.849C360.651 440.849 439.542 361.94 439.542 264.601C439.542 167.261 360.651 88.3521 263.333 88.3521C166.016 88.3521 87.1245 167.261 87.1245 264.601C87.1245 361.94 166.016 440.849 263.333 440.849Z" fill="#DAEDF2"/>
<path d="M263.334 427.464C353.263 427.464 426.165 354.548 426.165 264.601C426.165 174.653 353.263 101.737 263.334 101.737C173.404 101.737 100.502 174.653 100.502 264.601C100.502 354.548 173.404 427.464 263.334 427.464Z" fill="white"/>
<path d="M399.884 343.197C399.884 343.393 399.884 343.595 399.884 343.791C382.069 352.902 361.895 358.049 340.507 358.049C314.239 358.049 289.791 350.291 269.314 336.944C305.066 313.645 328.697 273.3 328.697 227.443C328.697 227.247 328.697 227.038 328.697 226.842C370.967 248.459 399.897 292.452 399.897 343.197H399.884Z" fill="#4C9DD6"/>
<path d="M328.685 227.443C328.685 273.301 305.053 313.645 269.302 336.944C233.55 313.645 209.925 273.301 209.925 227.443C209.925 227.247 209.925 227.038 209.925 226.842C227.74 217.731 247.92 212.585 269.302 212.585C290.683 212.585 310.863 217.725 328.679 226.842C328.679 227.038 328.679 227.247 328.679 227.443H328.685Z" fill="#CDE667"/>
<path d="M269.308 336.95C248.831 350.297 224.377 358.055 198.115 358.055C176.734 358.055 156.554 352.915 138.738 343.797C138.738 343.601 138.738 343.399 138.738 343.203C138.738 292.458 167.668 248.465 209.937 226.848C209.937 227.044 209.937 227.253 209.937 227.449C209.937 273.307 233.569 313.651 269.314 336.95H269.308Z" fill="#4C9DD6"/>
<path d="M328.685 226.842C310.869 217.731 290.695 212.585 269.308 212.585C247.926 212.585 227.746 217.725 209.931 226.842C210.133 181.224 233.714 141.133 269.308 117.935C304.895 141.133 328.476 181.224 328.685 226.842Z" fill="#4C9DD6"/>
<path d="M238.68 181.977V180.132H240.81C241.24 180.132 241.6 180.047 241.89 179.877C242.19 179.707 242.415 179.472 242.565 179.172C242.725 178.872 242.805 178.527 242.805 178.137C242.805 177.747 242.725 177.402 242.565 177.102C242.415 176.802 242.19 176.572 241.89 176.412C241.6 176.242 241.24 176.157 240.81 176.157H238.68V174.312H240.63C241.55 174.312 242.33 174.462 242.97 174.762C243.62 175.062 244.115 175.492 244.455 176.052C244.795 176.602 244.965 177.257 244.965 178.017V178.257C244.965 179.017 244.795 179.677 244.455 180.237C244.115 180.787 243.62 181.217 242.97 181.527C242.33 181.827 241.55 181.977 240.63 181.977H238.68ZM236.85 185.337V174.312H238.98V185.337H236.85ZM250.086 185.622C249.386 185.622 248.771 185.502 248.241 185.262C247.721 185.022 247.286 184.702 246.936 184.302C246.596 183.892 246.336 183.437 246.156 182.937C245.986 182.437 245.901 181.927 245.901 181.407V181.122C245.901 180.582 245.986 180.062 246.156 179.562C246.336 179.052 246.596 178.602 246.936 178.212C247.286 177.812 247.716 177.497 248.226 177.267C248.736 177.027 249.326 176.907 249.996 176.907C250.876 176.907 251.611 177.102 252.201 177.492C252.801 177.872 253.251 178.377 253.551 179.007C253.851 179.627 254.001 180.297 254.001 181.017V181.767H246.786V180.492H252.696L252.051 181.122C252.051 180.602 251.976 180.157 251.826 179.787C251.676 179.417 251.446 179.132 251.136 178.932C250.836 178.732 250.456 178.632 249.996 178.632C249.536 178.632 249.146 178.737 248.826 178.947C248.506 179.157 248.261 179.462 248.091 179.862C247.931 180.252 247.851 180.722 247.851 181.272C247.851 181.782 247.931 182.237 248.091 182.637C248.251 183.027 248.496 183.337 248.826 183.567C249.156 183.787 249.576 183.897 250.086 183.897C250.596 183.897 251.011 183.797 251.331 183.597C251.651 183.387 251.856 183.132 251.946 182.832H253.866C253.746 183.392 253.516 183.882 253.176 184.302C252.836 184.722 252.401 185.047 251.871 185.277C251.351 185.507 250.756 185.622 250.086 185.622ZM255.743 185.337V177.192H257.393V180.642H257.348C257.348 179.472 257.598 178.587 258.098 177.987C258.598 177.387 259.333 177.087 260.303 177.087H260.603V178.902H260.033C259.333 178.902 258.788 179.092 258.398 179.472C258.018 179.842 257.828 180.382 257.828 181.092V185.337H255.743ZM264.953 185.592C263.833 185.592 262.953 185.357 262.313 184.887C261.683 184.407 261.353 183.747 261.323 182.907H263.198C263.228 183.187 263.383 183.442 263.663 183.672C263.943 183.902 264.383 184.017 264.983 184.017C265.483 184.017 265.878 183.927 266.168 183.747C266.468 183.567 266.618 183.322 266.618 183.012C266.618 182.742 266.503 182.527 266.273 182.367C266.053 182.207 265.673 182.102 265.133 182.052L264.413 181.977C263.503 181.877 262.803 181.617 262.313 181.197C261.823 180.777 261.578 180.217 261.578 179.517C261.578 178.957 261.718 178.487 261.998 178.107C262.278 177.727 262.663 177.442 263.153 177.252C263.653 177.052 264.223 176.952 264.863 176.952C265.863 176.952 266.673 177.172 267.293 177.612C267.913 178.052 268.238 178.697 268.268 179.547H266.393C266.373 179.267 266.233 179.027 265.973 178.827C265.713 178.627 265.338 178.527 264.848 178.527C264.408 178.527 264.068 178.612 263.828 178.782C263.588 178.952 263.468 179.172 263.468 179.442C263.468 179.702 263.563 179.902 263.753 180.042C263.953 180.182 264.273 180.277 264.713 180.327L265.433 180.402C266.393 180.502 267.143 180.767 267.683 181.197C268.233 181.627 268.508 182.207 268.508 182.937C268.508 183.477 268.358 183.947 268.058 184.347C267.768 184.737 267.358 185.042 266.828 185.262C266.298 185.482 265.673 185.592 264.953 185.592ZM274.145 185.622C273.425 185.622 272.79 185.507 272.24 185.277C271.69 185.047 271.225 184.737 270.845 184.347C270.465 183.947 270.175 183.497 269.975 182.997C269.785 182.497 269.69 181.977 269.69 181.437V181.122C269.69 180.562 269.79 180.032 269.99 179.532C270.2 179.022 270.495 178.572 270.875 178.182C271.265 177.782 271.735 177.472 272.285 177.252C272.835 177.022 273.455 176.907 274.145 176.907C274.835 176.907 275.455 177.022 276.005 177.252C276.555 177.472 277.02 177.782 277.4 178.182C277.79 178.572 278.085 179.022 278.285 179.532C278.485 180.032 278.585 180.562 278.585 181.122V181.437C278.585 181.977 278.485 182.497 278.285 182.997C278.095 183.497 277.81 183.947 277.43 184.347C277.05 184.737 276.585 185.047 276.035 185.277C275.485 185.507 274.855 185.622 274.145 185.622ZM274.145 183.837C274.655 183.837 275.085 183.727 275.435 183.507C275.785 183.277 276.05 182.972 276.23 182.592C276.41 182.202 276.5 181.762 276.5 181.272C276.5 180.772 276.405 180.332 276.215 179.952C276.035 179.562 275.765 179.257 275.405 179.037C275.055 178.807 274.635 178.692 274.145 178.692C273.655 178.692 273.23 178.807 272.87 179.037C272.52 179.257 272.25 179.562 272.06 179.952C271.87 180.332 271.775 180.772 271.775 181.272C271.775 181.762 271.865 182.202 272.045 182.592C272.235 182.972 272.505 183.277 272.855 183.507C273.205 183.727 273.635 183.837 274.145 183.837ZM280.411 185.337V177.192H282.061V180.687H281.911C281.911 179.857 282.021 179.167 282.241 178.617C282.461 178.057 282.786 177.637 283.216 177.357C283.656 177.077 284.201 176.937 284.851 176.937H284.941C285.911 176.937 286.646 177.252 287.146 177.882C287.646 178.502 287.896 179.432 287.896 180.672V185.337H285.811V180.492C285.811 179.992 285.666 179.587 285.376 179.277C285.096 178.967 284.706 178.812 284.206 178.812C283.696 178.812 283.281 178.972 282.961 179.292C282.651 179.602 282.496 180.022 282.496 180.552V185.337H280.411ZM295.072 185.337V182.922H294.727V180.237C294.727 179.767 294.612 179.417 294.382 179.187C294.152 178.957 293.797 178.842 293.317 178.842C293.067 178.842 292.767 178.847 292.417 178.857C292.067 178.867 291.712 178.882 291.352 178.902C291.002 178.912 290.687 178.927 290.407 178.947V177.177C290.637 177.157 290.897 177.137 291.187 177.117C291.477 177.097 291.772 177.087 292.072 177.087C292.382 177.077 292.672 177.072 292.942 177.072C293.782 177.072 294.477 177.182 295.027 177.402C295.587 177.622 296.007 177.967 296.287 178.437C296.577 178.907 296.722 179.522 296.722 180.282V185.337H295.072ZM292.447 185.547C291.857 185.547 291.337 185.442 290.887 185.232C290.447 185.022 290.102 184.722 289.852 184.332C289.612 183.942 289.492 183.472 289.492 182.922C289.492 182.322 289.637 181.832 289.927 181.452C290.227 181.072 290.642 180.787 291.172 180.597C291.712 180.407 292.342 180.312 293.062 180.312H294.952V181.557H293.032C292.552 181.557 292.182 181.677 291.922 181.917C291.672 182.147 291.547 182.447 291.547 182.817C291.547 183.187 291.672 183.487 291.922 183.717C292.182 183.947 292.552 184.062 293.032 184.062C293.322 184.062 293.587 184.012 293.827 183.912C294.077 183.802 294.282 183.622 294.442 183.372C294.612 183.112 294.707 182.762 294.727 182.322L295.237 182.907C295.187 183.477 295.047 183.957 294.817 184.347C294.597 184.737 294.287 185.037 293.887 185.247C293.497 185.447 293.017 185.547 292.447 185.547ZM299.061 185.337V174.387H301.146V185.337H299.061ZM298.041 175.947V174.387H301.146V175.947H298.041Z" fill="white"/>
<path d="M172.585 315.285C171.615 315.285 170.795 315.13 170.125 314.82C169.465 314.51 168.96 314.085 168.61 313.545C168.26 312.995 168.085 312.375 168.085 311.685H170.17C170.17 311.975 170.25 312.26 170.41 312.54C170.57 312.81 170.825 313.03 171.175 313.2C171.535 313.37 172.005 313.455 172.585 313.455C173.105 313.455 173.54 313.38 173.89 313.23C174.24 313.08 174.5 312.885 174.67 312.645C174.84 312.395 174.925 312.115 174.925 311.805C174.925 311.415 174.76 311.105 174.43 310.875C174.1 310.635 173.59 310.485 172.9 310.425L171.94 310.35C170.89 310.26 170.05 309.935 169.42 309.375C168.8 308.805 168.49 308.055 168.49 307.125C168.49 306.425 168.655 305.825 168.985 305.325C169.315 304.815 169.775 304.425 170.365 304.155C170.965 303.875 171.665 303.735 172.465 303.735C173.295 303.735 174.01 303.88 174.61 304.17C175.21 304.46 175.675 304.87 176.005 305.4C176.335 305.92 176.5 306.535 176.5 307.245H174.415C174.415 306.945 174.34 306.67 174.19 306.42C174.05 306.16 173.835 305.955 173.545 305.805C173.265 305.645 172.905 305.565 172.465 305.565C172.045 305.565 171.695 305.635 171.415 305.775C171.135 305.915 170.925 306.105 170.785 306.345C170.645 306.585 170.575 306.845 170.575 307.125C170.575 307.465 170.7 307.765 170.95 308.025C171.2 308.275 171.595 308.42 172.135 308.46L173.095 308.55C173.875 308.61 174.56 308.775 175.15 309.045C175.74 309.315 176.195 309.68 176.515 310.14C176.845 310.6 177.01 311.155 177.01 311.805C177.01 312.495 176.83 313.105 176.47 313.635C176.11 314.155 175.595 314.56 174.925 314.85C174.265 315.14 173.485 315.285 172.585 315.285ZM182.708 315.285C181.988 315.285 181.353 315.17 180.803 314.94C180.253 314.71 179.788 314.4 179.408 314.01C179.028 313.61 178.738 313.16 178.538 312.66C178.348 312.16 178.253 311.64 178.253 311.1V310.785C178.253 310.225 178.353 309.695 178.553 309.195C178.763 308.685 179.058 308.235 179.438 307.845C179.828 307.445 180.298 307.135 180.848 306.915C181.398 306.685 182.018 306.57 182.708 306.57C183.398 306.57 184.018 306.685 184.568 306.915C185.118 307.135 185.583 307.445 185.963 307.845C186.353 308.235 186.648 308.685 186.848 309.195C187.048 309.695 187.148 310.225 187.148 310.785V311.1C187.148 311.64 187.048 312.16 186.848 312.66C186.658 313.16 186.373 313.61 185.993 314.01C185.613 314.4 185.148 314.71 184.598 314.94C184.048 315.17 183.418 315.285 182.708 315.285ZM182.708 313.5C183.218 313.5 183.648 313.39 183.998 313.17C184.348 312.94 184.613 312.635 184.793 312.255C184.973 311.865 185.063 311.425 185.063 310.935C185.063 310.435 184.968 309.995 184.778 309.615C184.598 309.225 184.328 308.92 183.968 308.7C183.618 308.47 183.198 308.355 182.708 308.355C182.218 308.355 181.793 308.47 181.433 308.7C181.083 308.92 180.813 309.225 180.623 309.615C180.433 309.995 180.338 310.435 180.338 310.935C180.338 311.425 180.428 311.865 180.608 312.255C180.798 312.635 181.068 312.94 181.418 313.17C181.768 313.39 182.198 313.5 182.708 313.5ZM192.588 315.285C191.878 315.285 191.263 315.165 190.743 314.925C190.233 314.685 189.803 314.365 189.453 313.965C189.113 313.565 188.858 313.115 188.688 312.615C188.518 312.115 188.433 311.605 188.433 311.085V310.8C188.433 310.25 188.518 309.725 188.688 309.225C188.868 308.715 189.133 308.265 189.483 307.875C189.833 307.475 190.263 307.16 190.773 306.93C191.293 306.69 191.893 306.57 192.573 306.57C193.283 306.57 193.918 306.71 194.478 306.99C195.038 307.26 195.483 307.64 195.813 308.13C196.153 308.62 196.343 309.19 196.383 309.84H194.358C194.308 309.42 194.128 309.07 193.818 308.79C193.518 308.51 193.103 308.37 192.573 308.37C192.113 308.37 191.728 308.48 191.418 308.7C191.118 308.92 190.893 309.225 190.743 309.615C190.593 309.995 190.518 310.435 190.518 310.935C190.518 311.415 190.588 311.85 190.728 312.24C190.878 312.63 191.103 312.935 191.403 313.155C191.713 313.375 192.108 313.485 192.588 313.485C192.948 313.485 193.258 313.42 193.518 313.29C193.778 313.16 193.983 312.98 194.133 312.75C194.293 312.52 194.393 312.26 194.433 311.97H196.458C196.418 312.63 196.223 313.21 195.873 313.71C195.533 314.2 195.078 314.585 194.508 314.865C193.948 315.145 193.308 315.285 192.588 315.285ZM198.519 315V306.855H200.604V315H198.519ZM197.379 308.415V306.855H200.604V308.415H197.379ZM199.284 305.88C198.874 305.88 198.569 305.775 198.369 305.565C198.179 305.345 198.084 305.075 198.084 304.755C198.084 304.415 198.179 304.14 198.369 303.93C198.569 303.72 198.874 303.615 199.284 303.615C199.694 303.615 199.994 303.72 200.184 303.93C200.374 304.14 200.469 304.415 200.469 304.755C200.469 305.075 200.374 305.345 200.184 305.565C199.994 305.775 199.694 305.88 199.284 305.88ZM207.941 315V312.585H207.596V309.9C207.596 309.43 207.481 309.08 207.251 308.85C207.021 308.62 206.666 308.505 206.186 308.505C205.936 308.505 205.636 308.51 205.286 308.52C204.936 308.53 204.581 308.545 204.221 308.565C203.871 308.575 203.556 308.59 203.276 308.61V306.84C203.506 306.82 203.766 306.8 204.056 306.78C204.346 306.76 204.641 306.75 204.941 306.75C205.251 306.74 205.541 306.735 205.811 306.735C206.651 306.735 207.346 306.845 207.896 307.065C208.456 307.285 208.876 307.63 209.156 308.1C209.446 308.57 209.591 309.185 209.591 309.945V315H207.941ZM205.316 315.21C204.726 315.21 204.206 315.105 203.756 314.895C203.316 314.685 202.971 314.385 202.721 313.995C202.481 313.605 202.361 313.135 202.361 312.585C202.361 311.985 202.506 311.495 202.796 311.115C203.096 310.735 203.511 310.45 204.041 310.26C204.581 310.07 205.211 309.975 205.931 309.975H207.821V311.22H205.901C205.421 311.22 205.051 311.34 204.791 311.58C204.541 311.81 204.416 312.11 204.416 312.48C204.416 312.85 204.541 313.15 204.791 313.38C205.051 313.61 205.421 313.725 205.901 313.725C206.191 313.725 206.456 313.675 206.696 313.575C206.946 313.465 207.151 313.285 207.311 313.035C207.481 312.775 207.576 312.425 207.596 311.985L208.106 312.57C208.056 313.14 207.916 313.62 207.686 314.01C207.466 314.4 207.156 314.7 206.756 314.91C206.366 315.11 205.886 315.21 205.316 315.21ZM211.93 315V304.05H214.015V315H211.93ZM210.91 305.61V304.05H214.015V305.61H210.91Z" fill="white"/>
<path d="M316.85 309V298.05H318.935V309H316.85ZM318.635 309V307.2H323.6V309H318.635ZM318.635 304.335V302.535H323.21V304.335H318.635ZM318.635 299.85V298.05H323.48V299.85H318.635ZM325.621 309V300.855H327.271V304.35H327.121C327.121 303.52 327.231 302.83 327.451 302.28C327.671 301.72 327.996 301.3 328.426 301.02C328.866 300.74 329.411 300.6 330.061 300.6H330.151C331.121 300.6 331.856 300.915 332.356 301.545C332.856 302.165 333.106 303.095 333.106 304.335V309H331.021V304.155C331.021 303.655 330.876 303.25 330.586 302.94C330.306 302.63 329.916 302.475 329.416 302.475C328.906 302.475 328.491 302.635 328.171 302.955C327.861 303.265 327.706 303.685 327.706 304.215V309H325.621ZM336.924 309L334.374 300.855H336.519L338.964 309H336.924ZM337.539 309V307.29H339.744V309H337.539ZM338.364 309L340.464 300.855H342.474L340.269 309H338.364ZM344.439 309V300.855H346.524V309H344.439ZM343.299 302.415V300.855H346.524V302.415H343.299ZM345.204 299.88C344.794 299.88 344.489 299.775 344.289 299.565C344.099 299.345 344.004 299.075 344.004 298.755C344.004 298.415 344.099 298.14 344.289 297.93C344.489 297.72 344.794 297.615 345.204 297.615C345.614 297.615 345.914 297.72 346.104 297.93C346.294 298.14 346.389 298.415 346.389 298.755C346.389 299.075 346.294 299.345 346.104 299.565C345.914 299.775 345.614 299.88 345.204 299.88ZM348.926 309V300.855H350.576V304.305H350.531C350.531 303.135 350.781 302.25 351.281 301.65C351.781 301.05 352.516 300.75 353.486 300.75H353.786V302.565H353.216C352.516 302.565 351.971 302.755 351.581 303.135C351.201 303.505 351.011 304.045 351.011 304.755V309H348.926ZM359.038 309.285C358.318 309.285 357.683 309.17 357.133 308.94C356.583 308.71 356.118 308.4 355.738 308.01C355.358 307.61 355.068 307.16 354.868 306.66C354.678 306.16 354.583 305.64 354.583 305.1V304.785C354.583 304.225 354.683 303.695 354.883 303.195C355.093 302.685 355.388 302.235 355.768 301.845C356.158 301.445 356.628 301.135 357.178 300.915C357.728 300.685 358.348 300.57 359.038 300.57C359.728 300.57 360.348 300.685 360.898 300.915C361.448 301.135 361.913 301.445 362.293 301.845C362.683 302.235 362.978 302.685 363.178 303.195C363.378 303.695 363.478 304.225 363.478 304.785V305.1C363.478 305.64 363.378 306.16 363.178 306.66C362.988 307.16 362.703 307.61 362.323 308.01C361.943 308.4 361.478 308.71 360.928 308.94C360.378 309.17 359.748 309.285 359.038 309.285ZM359.038 307.5C359.548 307.5 359.978 307.39 360.328 307.17C360.678 306.94 360.943 306.635 361.123 306.255C361.303 305.865 361.393 305.425 361.393 304.935C361.393 304.435 361.298 303.995 361.108 303.615C360.928 303.225 360.658 302.92 360.298 302.7C359.948 302.47 359.528 302.355 359.038 302.355C358.548 302.355 358.123 302.47 357.763 302.7C357.413 302.92 357.143 303.225 356.953 303.615C356.763 303.995 356.668 304.435 356.668 304.935C356.668 305.425 356.758 305.865 356.938 306.255C357.128 306.635 357.398 306.94 357.748 307.17C358.098 307.39 358.528 307.5 359.038 307.5ZM365.303 309V300.855H366.953V304.35H366.803C366.803 303.52 366.913 302.83 367.133 302.28C367.353 301.72 367.678 301.3 368.108 301.02C368.548 300.74 369.093 300.6 369.743 300.6H369.833C370.803 300.6 371.538 300.915 372.038 301.545C372.538 302.165 372.788 303.095 372.788 304.335V309H370.703V304.155C370.703 303.655 370.558 303.25 370.268 302.94C369.988 302.63 369.598 302.475 369.098 302.475C368.588 302.475 368.173 302.635 367.853 302.955C367.543 303.265 367.388 303.685 367.388 304.215V309H365.303ZM374.61 305.7V303.87H380.685V305.7H374.61Z" fill="white"/>
<path d="M321.268 328V319.855H322.918V323.35H322.768C322.768 322.53 322.873 321.845 323.083 321.295C323.293 320.735 323.603 320.315 324.013 320.035C324.433 319.745 324.953 319.6 325.573 319.6H325.663C326.293 319.6 326.813 319.745 327.223 320.035C327.643 320.315 327.953 320.735 328.153 321.295C328.363 321.845 328.468 322.53 328.468 323.35H327.943C327.943 322.53 328.048 321.845 328.258 321.295C328.478 320.735 328.793 320.315 329.203 320.035C329.623 319.745 330.143 319.6 330.763 319.6H330.853C331.483 319.6 332.008 319.745 332.428 320.035C332.848 320.315 333.163 320.735 333.373 321.295C333.593 321.845 333.703 322.53 333.703 323.35V328H331.618V323.155C331.618 322.645 331.488 322.24 331.228 321.94C330.968 321.63 330.598 321.475 330.118 321.475C329.638 321.475 329.253 321.635 328.963 321.955C328.673 322.265 328.528 322.685 328.528 323.215V328H326.443V323.155C326.443 322.645 326.313 322.24 326.053 321.94C325.793 321.63 325.423 321.475 324.943 321.475C324.463 321.475 324.078 321.635 323.788 321.955C323.498 322.265 323.353 322.685 323.353 323.215V328H321.268ZM339.577 328.285C338.877 328.285 338.262 328.165 337.732 327.925C337.212 327.685 336.777 327.365 336.427 326.965C336.087 326.555 335.827 326.1 335.647 325.6C335.477 325.1 335.392 324.59 335.392 324.07V323.785C335.392 323.245 335.477 322.725 335.647 322.225C335.827 321.715 336.087 321.265 336.427 320.875C336.777 320.475 337.207 320.16 337.717 319.93C338.227 319.69 338.817 319.57 339.487 319.57C340.367 319.57 341.102 319.765 341.692 320.155C342.292 320.535 342.742 321.04 343.042 321.67C343.342 322.29 343.492 322.96 343.492 323.68V324.43H336.277V323.155H342.187L341.542 323.785C341.542 323.265 341.467 322.82 341.317 322.45C341.167 322.08 340.937 321.795 340.627 321.595C340.327 321.395 339.947 321.295 339.487 321.295C339.027 321.295 338.637 321.4 338.317 321.61C337.997 321.82 337.752 322.125 337.582 322.525C337.422 322.915 337.342 323.385 337.342 323.935C337.342 324.445 337.422 324.9 337.582 325.3C337.742 325.69 337.987 326 338.317 326.23C338.647 326.45 339.067 326.56 339.577 326.56C340.087 326.56 340.502 326.46 340.822 326.26C341.142 326.05 341.347 325.795 341.437 325.495H343.357C343.237 326.055 343.007 326.545 342.667 326.965C342.327 327.385 341.892 327.71 341.362 327.94C340.842 328.17 340.247 328.285 339.577 328.285ZM345.233 328V319.855H346.883V323.35H346.733C346.733 322.52 346.843 321.83 347.063 321.28C347.283 320.72 347.608 320.3 348.038 320.02C348.478 319.74 349.023 319.6 349.673 319.6H349.763C350.733 319.6 351.468 319.915 351.968 320.545C352.468 321.165 352.718 322.095 352.718 323.335V328H350.633V323.155C350.633 322.655 350.488 322.25 350.198 321.94C349.918 321.63 349.528 321.475 349.028 321.475C348.518 321.475 348.103 321.635 347.783 321.955C347.473 322.265 347.318 322.685 347.318 323.215V328H345.233ZM358.5 328.105C357.75 328.105 357.13 328.01 356.64 327.82C356.16 327.62 355.8 327.29 355.56 326.83C355.32 326.36 355.2 325.73 355.2 324.94L355.215 317.56H357.165L357.15 325.075C357.15 325.475 357.255 325.785 357.465 326.005C357.685 326.215 357.995 326.32 358.395 326.32H359.67V328.105H358.5ZM353.91 321.385V319.855H359.67V321.385H353.91ZM366.326 328V325.585H365.981V322.9C365.981 322.43 365.866 322.08 365.636 321.85C365.406 321.62 365.051 321.505 364.571 321.505C364.321 321.505 364.021 321.51 363.671 321.52C363.321 321.53 362.966 321.545 362.606 321.565C362.256 321.575 361.941 321.59 361.661 321.61V319.84C361.891 319.82 362.151 319.8 362.441 319.78C362.731 319.76 363.026 319.75 363.326 319.75C363.636 319.74 363.926 319.735 364.196 319.735C365.036 319.735 365.731 319.845 366.281 320.065C366.841 320.285 367.261 320.63 367.541 321.1C367.831 321.57 367.976 322.185 367.976 322.945V328H366.326ZM363.701 328.21C363.111 328.21 362.591 328.105 362.141 327.895C361.701 327.685 361.356 327.385 361.106 326.995C360.866 326.605 360.746 326.135 360.746 325.585C360.746 324.985 360.891 324.495 361.181 324.115C361.481 323.735 361.896 323.45 362.426 323.26C362.966 323.07 363.596 322.975 364.316 322.975H366.206V324.22H364.286C363.806 324.22 363.436 324.34 363.176 324.58C362.926 324.81 362.801 325.11 362.801 325.48C362.801 325.85 362.926 326.15 363.176 326.38C363.436 326.61 363.806 326.725 364.286 326.725C364.576 326.725 364.841 326.675 365.081 326.575C365.331 326.465 365.536 326.285 365.696 326.035C365.866 325.775 365.961 325.425 365.981 324.985L366.491 325.57C366.441 326.14 366.301 326.62 366.071 327.01C365.851 327.4 365.541 327.7 365.141 327.91C364.751 328.11 364.271 328.21 363.701 328.21ZM370.314 328V317.05H372.399V328H370.314ZM369.294 318.61V317.05H372.399V318.61H369.294Z" fill="white"/>
<path d="M243.65 264.016L240.86 253.066H243.065L245.33 262.591L244.745 262.246H246.245L245.585 262.591L247.37 253.486H249.2L246.98 264.016H243.65ZM250.19 264.016L247.775 253.486H249.68L251.735 262.591L251.09 262.246H252.56L251.99 262.591L253.985 253.066H256.07L253.58 264.016H250.19ZM257.608 264.016V253.066H259.693V259.456H259.333C259.333 258.636 259.438 257.941 259.648 257.371C259.858 256.801 260.168 256.366 260.578 256.066C260.998 255.766 261.528 255.616 262.168 255.616H262.258C263.188 255.616 263.893 255.936 264.373 256.576C264.853 257.216 265.093 258.146 265.093 259.366V264.016H263.008V259.171C263.008 258.651 262.858 258.241 262.558 257.941C262.268 257.641 261.883 257.491 261.403 257.491C260.893 257.491 260.478 257.661 260.158 258.001C259.848 258.331 259.693 258.766 259.693 259.306V264.016H257.608ZM271.25 264.301C270.53 264.301 269.895 264.186 269.345 263.956C268.795 263.726 268.33 263.416 267.95 263.026C267.57 262.626 267.28 262.176 267.08 261.676C266.89 261.176 266.795 260.656 266.795 260.116V259.801C266.795 259.241 266.895 258.711 267.095 258.211C267.305 257.701 267.6 257.251 267.98 256.861C268.37 256.461 268.84 256.151 269.39 255.931C269.94 255.701 270.56 255.586 271.25 255.586C271.94 255.586 272.56 255.701 273.11 255.931C273.66 256.151 274.125 256.461 274.505 256.861C274.895 257.251 275.19 257.701 275.39 258.211C275.59 258.711 275.69 259.241 275.69 259.801V260.116C275.69 260.656 275.59 261.176 275.39 261.676C275.2 262.176 274.915 262.626 274.535 263.026C274.155 263.416 273.69 263.726 273.14 263.956C272.59 264.186 271.96 264.301 271.25 264.301ZM271.25 262.516C271.76 262.516 272.19 262.406 272.54 262.186C272.89 261.956 273.155 261.651 273.335 261.271C273.515 260.881 273.605 260.441 273.605 259.951C273.605 259.451 273.51 259.011 273.32 258.631C273.14 258.241 272.87 257.936 272.51 257.716C272.16 257.486 271.74 257.371 271.25 257.371C270.76 257.371 270.335 257.486 269.975 257.716C269.625 257.936 269.355 258.241 269.165 258.631C268.975 259.011 268.88 259.451 268.88 259.951C268.88 260.441 268.97 260.881 269.15 261.271C269.34 261.651 269.61 261.956 269.96 262.186C270.31 262.406 270.74 262.516 271.25 262.516ZM277.62 264.016V253.066H279.705V264.016H277.62ZM276.6 254.626V253.066H279.705V254.626H276.6ZM285.731 264.301C285.031 264.301 284.416 264.181 283.886 263.941C283.366 263.701 282.931 263.381 282.581 262.981C282.241 262.571 281.981 262.116 281.801 261.616C281.631 261.116 281.546 260.606 281.546 260.086V259.801C281.546 259.261 281.631 258.741 281.801 258.241C281.981 257.731 282.241 257.281 282.581 256.891C282.931 256.491 283.361 256.176 283.871 255.946C284.381 255.706 284.971 255.586 285.641 255.586C286.521 255.586 287.256 255.781 287.846 256.171C288.446 256.551 288.896 257.056 289.196 257.686C289.496 258.306 289.646 258.976 289.646 259.696V260.446H282.431V259.171H288.341L287.696 259.801C287.696 259.281 287.621 258.836 287.471 258.466C287.321 258.096 287.091 257.811 286.781 257.611C286.481 257.411 286.101 257.311 285.641 257.311C285.181 257.311 284.791 257.416 284.471 257.626C284.151 257.836 283.906 258.141 283.736 258.541C283.576 258.931 283.496 259.401 283.496 259.951C283.496 260.461 283.576 260.916 283.736 261.316C283.896 261.706 284.141 262.016 284.471 262.246C284.801 262.466 285.221 262.576 285.731 262.576C286.241 262.576 286.656 262.476 286.976 262.276C287.296 262.066 287.501 261.811 287.591 261.511H289.511C289.391 262.071 289.161 262.561 288.821 262.981C288.481 263.401 288.046 263.726 287.516 263.956C286.996 264.186 286.401 264.301 285.731 264.301ZM290.967 260.716V258.886H297.042V260.716H290.967Z" fill="#2883BF"/>
<path d="M249.116 283.091V281.381H251.861C252.361 281.381 252.741 281.246 253.001 280.976C253.261 280.696 253.391 280.316 253.391 279.836C253.391 279.356 253.261 278.986 253.001 278.726C252.741 278.456 252.361 278.321 251.861 278.321H249.116V277.016H251.711C252.441 277.016 253.091 277.106 253.661 277.286C254.241 277.456 254.691 277.746 255.011 278.156C255.341 278.566 255.506 279.116 255.506 279.806V280.016C255.506 280.666 255.361 281.221 255.071 281.681C254.791 282.131 254.366 282.481 253.796 282.731C253.236 282.971 252.541 283.091 251.711 283.091H249.116ZM247.331 283.091V271.991H249.416V283.091H247.331ZM249.116 277.976V276.671H251.456C251.966 276.671 252.341 276.536 252.581 276.266C252.821 275.996 252.941 275.636 252.941 275.186C252.941 274.736 252.821 274.376 252.581 274.106C252.341 273.836 251.966 273.701 251.456 273.701H249.116V271.991H251.261C252.501 271.991 253.441 272.251 254.081 272.771C254.731 273.291 255.056 274.036 255.056 275.006V275.216C255.056 275.896 254.891 276.441 254.561 276.851C254.241 277.251 253.796 277.541 253.226 277.721C252.656 277.891 252.001 277.976 251.261 277.976H249.116ZM261.065 283.301C260.365 283.301 259.75 283.181 259.22 282.941C258.7 282.701 258.265 282.381 257.915 281.981C257.575 281.571 257.315 281.116 257.135 280.616C256.965 280.116 256.88 279.606 256.88 279.086V278.801C256.88 278.261 256.965 277.741 257.135 277.241C257.315 276.731 257.575 276.281 257.915 275.891C258.265 275.491 258.695 275.176 259.205 274.946C259.715 274.706 260.305 274.586 260.975 274.586C261.855 274.586 262.59 274.781 263.18 275.171C263.78 275.551 264.23 276.056 264.53 276.686C264.83 277.306 264.98 277.976 264.98 278.696V279.446H257.765V278.171H263.675L263.03 278.801C263.03 278.281 262.955 277.836 262.805 277.466C262.655 277.096 262.425 276.811 262.115 276.611C261.815 276.411 261.435 276.311 260.975 276.311C260.515 276.311 260.125 276.416 259.805 276.626C259.485 276.836 259.24 277.141 259.07 277.541C258.91 277.931 258.83 278.401 258.83 278.951C258.83 279.461 258.91 279.916 259.07 280.316C259.23 280.706 259.475 281.016 259.805 281.246C260.135 281.466 260.555 281.576 261.065 281.576C261.575 281.576 261.99 281.476 262.31 281.276C262.63 281.066 262.835 280.811 262.925 280.511H264.845C264.725 281.071 264.495 281.561 264.155 281.981C263.815 282.401 263.38 282.726 262.85 282.956C262.33 283.186 261.735 283.301 261.065 283.301ZM267.112 283.016V274.871H269.197V283.016H267.112ZM265.972 276.431V274.871H269.197V276.431H265.972ZM267.877 273.896C267.467 273.896 267.162 273.791 266.962 273.581C266.772 273.361 266.677 273.091 266.677 272.771C266.677 272.431 266.772 272.156 266.962 271.946C267.162 271.736 267.467 271.631 267.877 271.631C268.287 271.631 268.587 271.736 268.777 271.946C268.967 272.156 269.062 272.431 269.062 272.771C269.062 273.091 268.967 273.361 268.777 273.581C268.587 273.791 268.287 273.896 267.877 273.896ZM271.6 283.016V274.871H273.25V278.366H273.1C273.1 277.536 273.21 276.846 273.43 276.296C273.65 275.736 273.975 275.316 274.405 275.036C274.845 274.756 275.39 274.616 276.04 274.616H276.13C277.1 274.616 277.835 274.931 278.335 275.561C278.835 276.181 279.085 277.111 279.085 278.351V283.016H277V278.171C277 277.671 276.855 277.266 276.565 276.956C276.285 276.646 275.895 276.491 275.395 276.491C274.885 276.491 274.47 276.651 274.15 276.971C273.84 277.281 273.685 277.701 273.685 278.231V283.016H271.6ZM284.506 286.226C284.116 286.226 283.716 286.211 283.306 286.181C282.906 286.151 282.531 286.111 282.181 286.061V284.321C282.541 284.361 282.926 284.396 283.336 284.426C283.746 284.466 284.131 284.486 284.491 284.486C285.161 284.486 285.701 284.406 286.111 284.246C286.531 284.086 286.836 283.831 287.026 283.481C287.226 283.141 287.326 282.706 287.326 282.176V280.571L287.776 279.551C287.746 280.301 287.591 280.941 287.311 281.471C287.031 281.991 286.651 282.391 286.171 282.671C285.691 282.941 285.136 283.076 284.506 283.076C283.946 283.076 283.436 282.971 282.976 282.761C282.526 282.551 282.136 282.261 281.806 281.891C281.486 281.521 281.236 281.086 281.056 280.586C280.876 280.086 280.786 279.551 280.786 278.981V278.666C280.786 278.096 280.876 277.566 281.056 277.076C281.246 276.576 281.511 276.141 281.851 275.771C282.191 275.401 282.596 275.116 283.066 274.916C283.536 274.716 284.056 274.616 284.626 274.616C285.296 274.616 285.876 274.761 286.366 275.051C286.866 275.341 287.256 275.761 287.536 276.311C287.816 276.861 287.971 277.536 288.001 278.336L287.641 278.396V274.871H289.291V282.056C289.291 283.046 289.121 283.846 288.781 284.456C288.441 285.066 287.916 285.511 287.206 285.791C286.506 286.081 285.606 286.226 284.506 286.226ZM285.106 281.291C285.506 281.291 285.871 281.201 286.201 281.021C286.531 280.841 286.796 280.581 286.996 280.241C287.196 279.901 287.296 279.491 287.296 279.011V278.486C287.296 278.026 287.191 277.636 286.981 277.316C286.781 276.996 286.516 276.756 286.186 276.596C285.856 276.426 285.496 276.341 285.106 276.341C284.666 276.341 284.276 276.446 283.936 276.656C283.606 276.856 283.346 277.141 283.156 277.511C282.966 277.881 282.871 278.321 282.871 278.831C282.871 279.331 282.966 279.766 283.156 280.136C283.346 280.506 283.606 280.791 283.936 280.991C284.276 281.191 284.666 281.291 285.106 281.291Z" fill="#2883BF"/>
<defs>
<linearGradient id="paint0_linear_383_3" x1="13.4406" y1="264.601" x2="513.226" y2="264.601" gradientUnits="userSpaceOnUse">
<stop stop-color="#7FC0EB"/>
<stop offset="1" stop-color="white"/>
</linearGradient>
</defs>
</svg>
