<svg width="45" height="40" viewBox="0 0 45 40" fill="none" xmlns="http://www.w3.org/2000/svg">
<path d="M19.1559 23.7573V20.8549C19.1559 20.4373 18.8182 20.0987 18.4018 20.0987H17.2664C16.9329 20.0987 16.6635 19.8286 16.6635 19.4941V18.3556C16.6635 17.938 16.3258 17.5993 15.9094 17.5993H14.774C14.4405 17.5993 14.1711 17.3292 14.1711 16.9948V15.8562C14.1711 15.4386 13.8334 15.1 13.417 15.1H10.531C10.0089 15.1 9.74784 15.7337 10.1166 16.1035L18.1573 24.1729C18.5261 24.5427 19.158 24.2809 19.158 23.7573H19.1559Z" fill="#79A800"/>
<path d="M25.5723 23.7573V20.8549C25.5723 20.4373 25.91 20.0987 26.3264 20.0987H27.4617C27.7953 20.0987 28.0646 19.8286 28.0646 19.4941V18.3556C28.0646 17.938 28.4023 17.5993 28.8188 17.5993H29.9541C30.2877 17.5993 30.557 17.3292 30.557 16.9948V15.8562C30.557 15.4386 30.8947 15.1 31.3112 15.1H34.1972C34.7193 15.1 34.9803 15.7337 34.6115 16.1035L26.5709 24.1729C26.2021 24.5427 25.5702 24.2809 25.5702 23.7573H25.5723Z" fill="#79A800"/>
<path d="M44.4651 34.9618L42.1447 38.9924C41.7863 39.6156 41.1212 40 40.4044 40H35.6475H35.6392C35.6247 40 35.6102 40 35.5957 40C35.4921 39.9979 35.3885 39.973 35.2912 39.9252C35.2746 39.9169 35.2601 39.9086 35.2435 39.9003C34.8975 39.7008 34.7732 39.2645 34.9514 38.9134L34.9555 38.9051C34.9555 38.9051 34.9638 38.8885 34.968 38.8781L34.9763 38.8615C34.9763 38.8615 34.9804 38.8573 34.9804 38.8552C34.9866 38.8449 34.9928 38.8324 35.0032 38.822C35.0032 38.8199 35.0073 38.8158 35.0094 38.8137C35.3015 38.3836 35.9894 37.6045 36.151 37.4342C37.7297 35.7575 39.5881 34.8289 39.5881 34.8289C39.584 34.7624 39.47 32.7118 40.1185 30.5386C40.162 30.3953 40.3091 29.9465 40.4686 29.5185C40.5618 29.2692 40.6571 29.0282 40.74 28.8558C40.74 28.8516 40.7421 28.8495 40.7442 28.8475C40.7483 28.835 40.7545 28.8225 40.7607 28.8121V28.808L40.769 28.7914C40.8167 28.7103 40.8747 28.6418 40.9431 28.5857C41.1772 28.3966 41.5107 28.3592 41.7863 28.5192C41.9002 28.5857 41.9914 28.6771 42.0556 28.7851L44.4548 32.9486C44.8132 33.5719 44.8132 34.3406 44.4548 34.9639L44.4651 34.9618Z" fill="#79A800"/>
<path d="M23.0035 14.5183C22.9765 14.566 22.9412 14.6097 22.9038 14.6471C22.9391 14.6076 22.9724 14.564 23.0035 14.5183Z" fill="#231F20"/>
<path d="M10.9577 28.353L11.428 29.2837C11.8859 30.1896 12.6193 30.9251 13.5226 31.3842L14.4508 31.8558C14.8755 32.0719 14.8755 32.6806 14.4508 32.8967L13.5226 33.3683C12.6193 33.8275 11.8859 34.5629 11.428 35.4688L10.9577 36.3995C10.7423 36.8254 10.1352 36.8254 9.91976 36.3995L9.44946 35.4688C8.99159 34.5629 8.25817 33.8275 7.35486 33.3683L6.42669 32.8967C6.00197 32.6806 6.00197 32.0719 6.42669 31.8558L7.35486 31.3842C8.25817 30.9251 8.99159 30.1896 9.44946 29.2837L9.91976 28.353C10.1352 27.9271 10.7423 27.9271 10.9577 28.353Z" fill="#469EE0"/>
<path d="M18.64 35.1384C18.64 34.8808 18.5074 34.6294 18.267 34.4902C18.0806 34.3822 17.8693 34.3656 17.6787 34.4237C15.7871 34.8766 12.8182 37.1475 12.0102 38.9113C11.832 39.2645 11.9584 39.6987 12.3023 39.8982C12.3189 39.9065 12.3334 39.9148 12.35 39.9231C12.4453 39.9709 12.5489 39.9958 12.6504 39.9979H16.6262C17.7367 39.9979 18.6358 39.0962 18.6358 37.9827V35.1384H18.64Z" fill="#79A800"/>
<path d="M23.0384 0.413443L23.6455 1.61637C24.2359 2.78606 25.1848 3.7376 26.3512 4.32972L27.5508 4.93845C28.0998 5.21685 28.0998 6.00426 27.5508 6.28266L26.3512 6.89139C25.1848 7.48351 24.2359 8.43505 23.6455 9.60474L23.0384 10.8077C22.7608 11.3582 21.9756 11.3582 21.698 10.8077L21.0909 9.60474C20.5005 8.43505 19.5516 7.48351 18.3852 6.89139L17.1856 6.28266C16.6365 6.00426 16.6365 5.21685 17.1856 4.93845L18.3852 4.32972C19.5516 3.7376 20.5005 2.78606 21.0909 1.61637L21.698 0.413443C21.9756 -0.13712 22.7608 -0.13712 23.0384 0.413443Z" fill="#469EE0"/>
<path d="M38.0549 21.8148L37.8684 21.4928L36.9195 19.8431L36.3518 18.8584C36.24 18.6651 36.0245 18.553 35.8028 18.582C35.376 18.6361 34.9617 18.8293 34.6343 19.1575C33.9465 19.8452 33.8595 20.9069 34.3671 21.6922C34.4023 21.7462 34.3629 21.8148 34.3008 21.8148H33.4783C33.4513 21.8148 33.4244 21.8148 33.3975 21.8148C32.2828 21.8148 31.3774 22.7206 31.3774 23.8404C31.3774 24.9603 32.2807 25.8661 33.3975 25.8661C33.4244 25.8661 33.4513 25.8661 33.4783 25.8661H39.1426C39.6957 25.8661 40.0417 25.2657 39.7641 24.7857L38.0549 21.8169V21.8148Z" fill="#469EE0"/>
<path d="M6.66504 21.8314L6.8515 21.5094L7.80039 19.8598L8.36806 18.875C8.47994 18.6818 8.69541 18.5696 8.91709 18.5987C9.34388 18.6527 9.75824 18.8459 10.0856 19.1742C10.7734 19.8618 10.8604 20.9235 10.3529 21.7088C10.3176 21.7628 10.357 21.8314 10.4192 21.8314H11.2417C11.2686 21.8314 11.2955 21.8314 11.3225 21.8314C12.4371 21.8314 13.3425 22.7372 13.3425 23.8571C13.3425 24.9769 12.4392 25.8827 11.3225 25.8827C11.2955 25.8827 11.2686 25.8827 11.2417 25.8827H5.57734C5.02417 25.8827 4.67818 25.2823 4.9558 24.8024L6.66504 21.8335V21.8314Z" fill="#469EE0"/>
<path d="M32.749 10.9406C32.72 10.8908 32.6868 10.8451 32.6454 10.8035C32.6412 10.7994 32.6392 10.7952 32.635 10.791C31.3609 9.38036 28.8975 8.78201 27.1696 9.56734C26.0964 10.0556 24.7725 11.3458 24.0785 12.6671C24.0785 12.6671 23.287 13.9469 23.0674 14.3978C23.055 14.4248 23.0405 14.4476 23.026 14.4726C23.0198 14.485 23.0136 14.4954 23.0053 14.5079C22.9783 14.5557 22.9431 14.5993 22.9058 14.6367C22.9058 14.6388 22.9017 14.6408 22.9017 14.6429C22.7629 14.7842 22.5723 14.8673 22.3692 14.8673C22.1662 14.8673 21.9756 14.7842 21.8368 14.6429C21.8368 14.6429 21.8326 14.6388 21.8326 14.6367C21.7953 14.5993 21.7622 14.5557 21.7332 14.5079C21.7249 14.4975 21.7187 14.485 21.7125 14.4726C21.698 14.4476 21.6835 14.4248 21.671 14.3978C21.4514 13.9469 20.66 12.6671 20.66 12.6671C19.9659 11.3478 18.6421 10.0556 17.5689 9.56734C15.841 8.78201 13.3776 9.38243 12.1034 10.791C12.0993 10.7952 12.0951 10.7994 12.0931 10.8035C12.0516 10.8451 12.0185 10.8908 11.9895 10.9386C11.8569 11.165 11.8445 11.4538 11.9853 11.6969C12.0889 11.8776 12.2567 11.9981 12.4411 12.048C12.4411 12.048 12.4432 12.048 12.4453 12.048C12.5323 12.0729 12.8659 12.1415 12.9757 12.1706C16.564 13.1221 19.7505 15.9352 20.5916 19.5627C20.8092 20.4955 20.7615 23.2961 20.6476 26.1715C20.5481 28.702 20.3969 31.2886 20.3285 32.7097C20.3285 32.7243 20.3264 32.7388 20.3264 32.7533C20.3264 32.9507 20.4715 33.1128 20.6579 33.1398C20.6662 33.1398 20.6745 33.1439 20.6848 33.1439C21.2256 33.2083 21.7891 33.2437 22.3713 33.2437C22.9514 33.2437 23.517 33.2083 24.0577 33.1439C24.066 33.1439 24.0764 33.1439 24.0847 33.1398C24.2732 33.1107 24.4162 32.9486 24.4162 32.7533C24.4162 32.7388 24.4162 32.7243 24.4141 32.7097C24.3457 31.2886 24.1945 28.6999 24.095 26.1715C23.9811 23.2961 23.9334 20.4955 24.151 19.5627C24.9901 15.9373 28.1765 13.1221 31.7669 12.1706C31.8767 12.1415 32.2103 12.075 32.2973 12.048C32.2973 12.048 32.2994 12.048 32.3015 12.048C32.4879 12.0002 32.6557 11.8776 32.7573 11.6969C32.8961 11.4538 32.8857 11.165 32.7531 10.9406H32.749Z" fill="#79A800"/>
<path d="M31.8643 26.5849C31.8643 26.5849 31.8478 26.5766 31.8395 26.5725C31.7898 26.5475 31.7338 26.5351 31.68 26.533H28.1061C26.9956 26.533 26.0964 27.4368 26.0964 28.5483V32.103V32.1321C26.0964 32.1882 26.1109 32.2422 26.1358 32.2921C26.1399 32.3004 26.1441 32.3087 26.1482 32.317C26.227 32.4521 26.3741 32.5248 26.5191 32.5123C26.5294 32.5123 26.5398 32.5103 26.5502 32.5082C26.5584 32.5082 26.5688 32.5061 26.5771 32.504C27.9963 32.2734 28.8271 31.0393 28.8271 29.5538V29.2734H29.1068C30.5902 29.2734 31.8208 28.4402 32.0487 27.0171C32.0508 27.0088 32.0529 26.9984 32.0529 26.9901C32.0529 26.9797 32.057 26.9693 32.057 26.9589C32.0694 26.8135 31.999 26.666 31.8623 26.587L31.8643 26.5849Z" fill="#79A800"/>
<path d="M16.6304 26.5309H13.0565C13.0027 26.5309 12.9467 26.5455 12.897 26.5704C12.8887 26.5746 12.8804 26.5787 12.8721 26.5829C12.7375 26.6618 12.665 26.8093 12.6774 26.9548C12.6774 26.9652 12.6795 26.9755 12.6815 26.9859C12.6815 26.9942 12.6836 27.0046 12.6857 27.0129C12.9157 28.4361 14.1463 29.2692 15.6276 29.2692H15.9073V29.5497C15.9073 31.0372 16.7381 32.2713 18.1573 32.4999C18.1656 32.5019 18.176 32.504 18.1843 32.504C18.1946 32.504 18.205 32.5082 18.2153 32.5082C18.3604 32.5206 18.5075 32.45 18.5862 32.3129C18.5903 32.3046 18.5945 32.2963 18.5986 32.288C18.6235 32.2381 18.6359 32.182 18.638 32.128V32.0989V28.5441C18.638 27.4305 17.7367 26.5289 16.6283 26.5289L16.6304 26.5309Z" fill="#79A800"/>
<path d="M34.8147 28.353L35.285 29.2837C35.7428 30.1896 36.4763 30.9251 37.3796 31.3842L38.3077 31.8558C38.7324 32.0719 38.7324 32.6806 38.3077 32.8967L37.3796 33.3683C36.4763 33.8275 35.7428 34.5629 35.285 35.4688L34.8147 36.3995C34.5992 36.8254 33.9922 36.8254 33.7767 36.3995L33.3064 35.4688C32.8485 34.5629 32.1151 33.8275 31.2118 33.3683L30.2836 32.8967C29.8589 32.6806 29.8589 32.0719 30.2836 31.8558L31.2118 31.3842C32.1151 30.9251 32.8485 30.1896 33.3064 29.2837L33.7767 28.353C33.9922 27.9271 34.5992 27.9271 34.8147 28.353Z" fill="#469EE0"/>
<path d="M26.0964 35.1384C26.0964 34.8808 26.229 34.6294 26.4694 34.4902C26.6558 34.3822 26.8671 34.3656 27.0578 34.4237C28.9493 34.8766 31.9182 37.1475 32.7262 38.9113C32.9044 39.2645 32.778 39.6987 32.4341 39.8982C32.4175 39.9065 32.403 39.9148 32.3864 39.9231C32.2911 39.9709 32.1875 39.9958 32.086 39.9979H28.1102C26.9997 39.9979 26.1006 39.0962 26.1006 37.9827V35.1384H26.0964Z" fill="#79A800"/>
<path d="M0.269322 34.9618L2.58974 38.9924C2.94817 39.6156 3.61321 40 4.33006 40H9.08692H9.09521C9.10971 40 9.12421 40 9.13872 40C9.24231 39.9979 9.3459 39.973 9.44327 39.9252C9.45985 39.9169 9.47435 39.9086 9.49092 39.9003C9.83692 39.7008 9.96122 39.2645 9.78305 38.9134L9.7789 38.9051C9.7789 38.9051 9.77062 38.8885 9.76647 38.8781L9.75819 38.8615C9.75819 38.8615 9.75404 38.8573 9.75404 38.8552C9.74783 38.8449 9.74161 38.8324 9.73125 38.822C9.73125 38.8199 9.72711 38.8158 9.72504 38.8137C9.43291 38.3836 8.74507 37.6045 8.58347 37.4342C7.00476 35.7575 5.14635 34.8289 5.14635 34.8289C5.15049 34.7624 5.26444 32.7118 4.61597 30.5386C4.57246 30.3953 4.42536 29.9465 4.26583 29.5185C4.1726 29.2692 4.0773 29.0282 3.99443 28.8558C3.99443 28.8516 3.99235 28.8495 3.99028 28.8475C3.98614 28.835 3.97992 28.8225 3.97371 28.8121V28.808L3.96542 28.7914C3.91777 28.7103 3.85976 28.6418 3.79139 28.5857C3.55728 28.3966 3.22372 28.3592 2.94817 28.5192C2.83422 28.5857 2.74306 28.6771 2.67883 28.7851L0.279681 32.9486C-0.0787413 33.5719 -0.0787413 34.3406 0.279681 34.9639L0.269322 34.9618Z" fill="#79A800"/>
</svg>
