<svg width="40" height="40" viewBox="0 0 40 40" fill="none" xmlns="http://www.w3.org/2000/svg">
<rect width="40" height="40" rx="20" fill="#006391"/>
<path d="M25.8538 20.3537L21.3538 24.8537C21.2599 24.9475 21.1327 25.0002 21 25.0002C20.8673 25.0002 20.7401 24.9475 20.6462 24.8537C20.5524 24.7599 20.4997 24.6326 20.4997 24.5C20.4997 24.3673 20.5524 24.24 20.6462 24.1462L24.2931 20.5H14.5C14.3674 20.5 14.2402 20.4473 14.1464 20.3535C14.0527 20.2597 14 20.1326 14 20C14 19.8673 14.0527 19.7402 14.1464 19.6464C14.2402 19.5526 14.3674 19.5 14.5 19.5H24.2931L20.6462 15.8537C20.5524 15.7599 20.4997 15.6326 20.4997 15.5C20.4997 15.3673 20.5524 15.24 20.6462 15.1462C20.7401 15.0524 20.8673 14.9997 21 14.9997C21.1327 14.9997 21.2599 15.0524 21.3538 15.1462L25.8538 19.6462C25.9002 19.6926 25.9371 19.7478 25.9623 19.8085C25.9874 19.8692 26.0004 19.9342 26.0004 20C26.0004 20.0657 25.9874 20.1307 25.9623 20.1914C25.9371 20.2521 25.9002 20.3073 25.8538 20.3537Z" fill="white"/>
</svg>
