<svg width="900" height="900" viewBox="0 0 900 900" fill="none" xmlns="http://www.w3.org/2000/svg">
<path d="M873.246 774.741C871.513 778.207 869.576 781.571 867.536 785.037C864.579 789.93 861.622 794.721 858.359 799.309C850.61 810.624 841.535 821.328 831.542 831.318C830.114 832.745 828.687 834.172 827.259 835.599C827.259 835.599 827.157 835.701 827.055 835.803C824.2 838.454 821.243 841.104 818.388 843.653L818.184 843.856C726.312 922.554 587.84 918.477 500.76 831.42C498.619 829.279 496.478 826.934 494.337 824.692L494.133 824.896L469.966 800.736C469.151 799.92 468.335 799.207 467.417 798.493C456.405 789.828 440.294 790.542 430.097 800.736L405.931 824.896L405.727 824.692C403.586 826.934 401.444 829.177 399.303 831.42C307.839 922.86 159.884 922.86 68.5219 831.42C-22.8406 740.082 -22.8406 592.065 68.5219 500.727C70.7652 498.586 73.0085 496.343 75.3537 494.406L75.1498 494.202L99.316 470.043C109.513 459.849 110.226 443.742 101.559 432.733C100.845 431.917 100.132 431 99.316 430.184L75.1498 406.024L75.3537 405.82C73.1104 403.68 70.8671 401.539 68.6239 399.398C-5.60819 325.084 -19.5777 213.562 26.6134 125.384C28.4488 121.918 30.2842 118.554 32.3236 115.088C35.2806 110.194 38.2377 105.403 41.5006 100.816C41.7046 100.51 41.9085 100.204 42.1124 100L45.1714 95.719C52.0032 86.3405 59.7527 77.3698 68.318 68.8068C69.7455 67.3797 71.173 65.9525 72.6006 64.5254C72.6006 64.5254 72.7026 64.4234 72.8045 64.3215C75.6596 61.6711 78.6166 59.0206 81.4717 56.4721L81.6757 56.2682C173.548 -22.6333 312.223 -18.5557 399.303 68.501C401.444 70.6418 403.586 72.9864 405.625 75.2291L405.829 75.0252L432.341 101.53C443.353 110.296 459.464 109.583 469.66 99.2869L493.827 75.1271L494.031 75.331C496.172 73.0883 498.313 70.8456 500.455 68.603C591.817 -22.8372 739.873 -22.8372 831.236 68.603C922.598 159.941 922.7 307.958 831.236 399.296C829.094 401.437 826.749 403.578 824.506 405.617L824.71 405.82L800.544 429.98C790.347 440.174 789.633 456.179 798.3 467.29L824.914 493.897L824.71 494.1C827.055 496.139 829.298 498.382 831.44 500.523C905.774 574.735 919.641 686.461 873.144 774.639L873.246 774.741Z" fill="#A5CC1F"/>
</svg>
