<svg width="209" height="170" viewBox="0 0 209 170" fill="none" xmlns="http://www.w3.org/2000/svg">
<g filter="url(#filter0_d_304_360)">
<path d="M145.839 81.0234C145.839 95.3906 134.113 107.039 119.651 107.039C119.297 107.039 118.967 107.039 118.613 107.016L52.2487 107.039C51.8948 107.039 51.5645 107.039 51.2107 107.039C36.7251 107.039 25.0234 95.3906 25.0234 81.0234C25.0234 66.6562 36.7487 55.0078 51.2107 55.0078C51.5645 55.0078 51.8948 55.0078 52.2487 55.0078L56.0706 54.9844C57.8164 54.9844 59.232 53.5781 59.232 51.8437V48.0469H59.2556C59.2556 47.6953 59.2556 47.3672 59.2556 47.0156C59.232 32.6484 70.9572 21 85.4192 21C99.8811 21 111.606 32.6484 111.606 47.0156C111.606 47.3672 111.606 47.6953 111.583 48.0469H111.606V51.8437C111.606 53.5781 113.022 54.9844 114.768 54.9844H118.59C118.944 54.9844 119.274 54.9844 119.628 54.9844C134.113 54.9844 145.815 66.6328 145.815 81L145.839 81.0234Z" fill="white"/>
<path d="M183.653 114.961C183.653 129.328 171.928 140.977 157.466 140.977C157.112 140.977 156.782 140.977 156.428 140.953L90.0637 140.977C89.7098 140.977 89.3795 140.977 89.0256 140.977C74.5401 140.977 62.8384 129.328 62.8384 114.961C62.8384 100.594 74.5636 88.9453 89.0256 88.9453C89.3795 88.9453 89.7098 88.9453 90.0637 88.9453L93.8856 88.9219C95.6314 88.9219 97.0469 87.5156 97.0469 85.7812V81.9844H97.0705C97.0705 81.6328 97.0705 81.3047 97.0705 80.9531C97.0705 66.5625 108.796 54.9375 123.258 54.9375C137.72 54.9375 149.445 66.5859 149.445 80.9531C149.445 81.3047 149.445 81.6328 149.421 81.9844H149.445V85.7812C149.445 87.5156 150.86 88.9219 152.606 88.9219H156.428C156.782 88.9219 157.112 88.9219 157.466 88.9219C171.952 88.9219 183.653 100.57 183.653 114.938V114.961Z" fill="white"/>
</g>
<defs>
<filter id="filter0_d_304_360" x="0" y="0" width="208.653" height="170" filterUnits="userSpaceOnUse" color-interpolation-filters="sRGB">
<feFlood flood-opacity="0" result="BackgroundImageFix"/>
<feColorMatrix in="SourceAlpha" type="matrix" values="0 0 0 0 0 0 0 0 0 0 0 0 0 0 0 0 0 0 127 0" result="hardAlpha"/>
<feOffset dy="4"/>
<feGaussianBlur stdDeviation="12.5"/>
<feComposite in2="hardAlpha" operator="out"/>
<feColorMatrix type="matrix" values="0 0 0 0 0 0 0 0 0 0 0 0 0 0 0 0 0 0 0.08 0"/>
<feBlend mode="normal" in2="BackgroundImageFix" result="effect1_dropShadow_304_360"/>
<feBlend mode="normal" in="SourceGraphic" in2="effect1_dropShadow_304_360" result="shape"/>
</filter>
</defs>
</svg>
