<svg width="24" height="12" viewBox="0 0 24 12" fill="none" xmlns="http://www.w3.org/2000/svg">
<path d="M16.2455 11.4978L7.74989 11.4945C6.43481 11.4945 5.22 10.8213 4.56188 9.73196L0.212073 2.50863L0.204006 2.49538C0.190175 2.47441 0.177495 2.45124 0.164817 2.43027V2.42806C0.0726112 2.26914 0.0161359 2.09035 0.00345757 1.90162C0.00115243 1.87072 0 1.83982 0 1.80671C0 1.107 0.57398 0.537523 1.29434 0.502206H1.31278C1.33122 0.501102 1.34736 0.5 1.3658 0.5H1.39922C1.39922 0.5 1.41075 0.499999 1.41421 0.502206C1.43726 0.502206 1.46146 0.503311 1.48566 0.506622C1.49143 0.506622 1.49834 0.506619 1.50411 0.507723C2.45152 0.573941 4.31177 0.941455 4.73246 1.03637C8.82755 1.96784 11.9983 3.98088 11.9983 3.98088H12.0017C12.0985 3.91908 15.2381 1.9546 19.2687 1.04189C19.5338 0.982289 20.3775 0.814537 21.2004 0.6821C21.6787 0.605949 22.1478 0.541938 22.497 0.516554C22.5028 0.514347 22.5097 0.514347 22.5143 0.516554C22.5385 0.513243 22.5639 0.511035 22.5881 0.512138C22.5904 0.511035 22.5939 0.50993 22.5962 0.511034C22.5962 0.511034 22.5977 0.511034 22.6008 0.511034H22.6031L22.6365 0.509932C22.8082 0.509932 22.9719 0.539729 23.1217 0.594912C23.6358 0.783634 24 1.26041 24 1.81775C24 2.04951 23.9378 2.26914 23.8248 2.45896L19.4347 9.73858C18.7754 10.8279 17.5617 11.5 16.2455 11.5V11.4978Z" fill="#006391"/>
</svg>
