<svg width="24" height="24" viewBox="0 0 24 24" fill="none" xmlns="http://www.w3.org/2000/svg">
<path d="M9.22733 1.20374C10.7274 -0.401247 13.2726 -0.401247 14.7727 1.20374C15.5208 2.00424 16.5785 2.44232 17.6735 2.40531C19.8691 2.33111 21.6689 4.13087 21.5947 6.32647C21.5577 7.42154 21.9958 8.47916 22.7963 9.22733C24.4012 10.7274 24.4012 13.2726 22.7963 14.7727C21.9958 15.5208 21.5577 16.5785 21.5947 17.6735C21.6689 19.8691 19.8691 21.6689 17.6735 21.5947C16.5785 21.5577 15.5208 21.9958 14.7727 22.7963C13.2726 24.4012 10.7274 24.4012 9.22733 22.7963C8.47916 21.9958 7.42154 21.5577 6.32647 21.5947C4.13087 21.6689 2.33111 19.8691 2.40531 17.6735C2.44232 16.5785 2.00424 15.5208 1.20374 14.7727C-0.401247 13.2726 -0.401247 10.7274 1.20374 9.22733C2.00424 8.47916 2.44232 7.42154 2.40531 6.32647C2.33111 4.13087 4.13087 2.33111 6.32647 2.40531C7.42154 2.44232 8.47916 2.00424 9.22733 1.20374Z" fill="#006391"/>
</svg>
