<svg width="24" height="24" viewBox="0 0 24 24" fill="none" xmlns="http://www.w3.org/2000/svg">
<path d="M23.2866 20.6598C23.2403 20.7522 23.1887 20.8419 23.1343 20.9343C23.0554 21.0648 22.9766 21.1926 22.8896 21.3149C22.6829 21.6166 22.4409 21.9021 22.1744 22.1685C22.1364 22.2065 22.0983 22.2446 22.0602 22.2827C22.0602 22.2827 22.0575 22.2854 22.0548 22.2881C21.9787 22.3588 21.8998 22.4294 21.8237 22.4974L21.8182 22.5028C19.3683 24.6014 15.6757 24.4927 13.3536 22.1712C13.2965 22.1141 13.2394 22.0516 13.1823 21.9918L13.1769 21.9972L12.5324 21.353C12.5107 21.3312 12.4889 21.3122 12.4645 21.2932C12.1708 21.0621 11.7412 21.0811 11.4693 21.353L10.8248 21.9972L10.8194 21.9918C10.7623 22.0516 10.7052 22.1114 10.6481 22.1712C8.20903 24.6096 4.26358 24.6096 1.82725 22.1712C-0.609083 19.7355 -0.609083 15.7884 1.82725 13.3527C1.88707 13.2956 1.94689 13.2358 2.00943 13.1842L2.00399 13.1787L2.64843 12.5345C2.92034 12.2626 2.93937 11.8331 2.70825 11.5395C2.68921 11.5178 2.67018 11.4933 2.64843 11.4716L2.00399 10.8273L2.00943 10.8219C1.94961 10.7648 1.88979 10.7077 1.82997 10.6506C-0.149552 8.66891 -0.522072 5.69498 0.709691 3.34356C0.758635 3.25114 0.80758 3.16143 0.861962 3.069C0.940817 2.93852 1.01967 2.81075 1.10668 2.68843C1.11212 2.68027 1.11756 2.67212 1.123 2.66668L1.20457 2.55251C1.38675 2.30241 1.59341 2.06319 1.82181 1.83485C1.85988 1.79679 1.89795 1.75873 1.93602 1.72068C1.93602 1.72068 1.93873 1.71796 1.94145 1.71524C2.01759 1.64456 2.09644 1.57388 2.17258 1.50592L2.17802 1.50049C4.62795 -0.603555 8.32595 -0.494819 10.6481 1.82669C10.7052 1.88378 10.7623 1.9463 10.8167 2.00611L10.8221 2.00067L11.5291 2.70746C11.8227 2.94124 12.2524 2.92221 12.5243 2.64765L13.1687 2.00339L13.1742 2.00883C13.2313 1.94902 13.2884 1.88922 13.3455 1.82941C15.7818 -0.608992 19.73 -0.608992 22.1663 1.82941C24.6026 4.2651 24.6053 8.21221 22.1663 10.6479C22.1092 10.705 22.0466 10.7621 21.9868 10.8164L21.9923 10.8219L21.3478 11.4661C21.0759 11.738 21.0569 12.1648 21.288 12.4611L21.9977 13.1706L21.9923 13.176C22.0548 13.2304 22.1146 13.2902 22.1717 13.3473C24.154 15.3263 24.5238 18.3056 23.2838 20.657L23.2866 20.6598Z" fill="#006391"/>
</svg>
