<svg width="24" height="24" viewBox="0 0 24 24" fill="none" xmlns="http://www.w3.org/2000/svg">
<path d="M13.4377 0.883583L14.7389 3.45645C16.0054 5.96138 18.0399 7.99455 20.5435 9.26112L23.1164 10.5623C24.2945 11.1584 24.2945 12.8416 23.1164 13.4377L20.5435 14.7389C18.0386 16.0054 16.0054 18.0399 14.7389 20.5435L13.4377 23.1164C12.8416 24.2945 11.1584 24.2945 10.5623 23.1164L9.26112 20.5435C7.99455 18.0386 5.9601 16.0054 3.45645 14.7389L0.883583 13.4377C-0.294528 12.8416 -0.294528 11.1584 0.883583 10.5623L3.45645 9.26112C5.96138 7.99455 7.99455 5.9601 9.26112 3.45645L10.5623 0.883583C11.1584 -0.294528 12.8416 -0.294528 13.4377 0.883583Z" fill="#006391"/>
</svg>
