<svg width="145" height="204" viewBox="0 0 145 204" fill="none" xmlns="http://www.w3.org/2000/svg">
<g filter="url(#filter0_d_1288_641)">
<rect x="0.946411" y="2.36621" width="140.349" height="199.29" rx="2.366" fill="#B1C954"/>
</g>
<g filter="url(#filter1_d_1288_641)">
<rect x="3.06946" y="9.70312" width="130.678" height="184.379" fill="#ECE9DF"/>
</g>
<g filter="url(#filter2_d_1288_641)">
<rect x="2.83392" y="9.23047" width="130.678" height="184.379" fill="#ECE9DF"/>
</g>
<g filter="url(#filter3_d_1288_641)">
<rect x="2.59778" y="8.75684" width="130.678" height="184.379" fill="#ECE9DF"/>
</g>
<g filter="url(#filter4_d_1288_641)">
<rect x="2.36145" y="8.2832" width="130.678" height="184.379" fill="#ECE9DF"/>
</g>
<g filter="url(#filter5_dd_1288_641)">
<path d="M0.946411 3.31228C0.946411 2.00558 2.00571 0.946289 3.31241 0.946289H135.391C136.698 0.946289 137.757 2.00558 137.757 3.31229V47.9559C137.757 48.8155 137.291 49.6074 136.539 50.0246L127.888 54.8266C127.137 55.2437 126.671 56.0357 126.671 56.8952V197.87C126.671 199.177 125.611 200.236 124.305 200.236H3.31241C2.0057 200.236 0.946411 199.177 0.946411 197.87V3.31228Z" fill="#DCEE95"/>
<path d="M0.946411 3.31228C0.946411 2.00558 2.00571 0.946289 3.31241 0.946289H135.391C136.698 0.946289 137.757 2.00558 137.757 3.31229V47.9559C137.757 48.8155 137.291 49.6074 136.539 50.0246L127.888 54.8266C127.137 55.2437 126.671 56.0357 126.671 56.8952V197.87C126.671 199.177 125.611 200.236 124.305 200.236H3.31241C2.0057 200.236 0.946411 199.177 0.946411 197.87V3.31228Z" fill="url(#paint0_linear_1288_641)"/>
</g>
<path d="M69.1909 61.154L60.6953 61.1507C59.3802 61.1507 58.1654 60.4775 57.5073 59.3882L53.1575 52.1649L53.1494 52.1516C53.1356 52.1307 53.1229 52.1075 53.1103 52.0865V52.0843C53.018 51.9254 52.9616 51.7466 52.9489 51.5579C52.9466 51.527 52.9454 51.4961 52.9454 51.463C52.9454 50.7633 53.5194 50.1938 54.2398 50.1585H54.2582C54.2767 50.1574 54.2928 50.1563 54.3112 50.1563H54.3447C54.3447 50.1563 54.3562 50.1562 54.3596 50.1585C54.3827 50.1585 54.4069 50.1596 54.4311 50.1629C54.4369 50.1629 54.4438 50.1629 54.4495 50.164C55.397 50.2302 57.2572 50.5977 57.6779 50.6926C61.773 51.6241 64.9437 53.6371 64.9437 53.6371H64.9472C65.044 53.5753 68.1836 51.6108 72.2141 50.6981C72.4792 50.6385 73.3229 50.4708 74.1458 50.3384C74.6242 50.2622 75.0933 50.1982 75.4425 50.1728C75.4482 50.1706 75.4552 50.1706 75.4598 50.1728C75.484 50.1695 75.5093 50.1673 75.5335 50.1684C75.5358 50.1673 75.5393 50.1662 75.5416 50.1673C75.5416 50.1673 75.5431 50.1673 75.5462 50.1673H75.5485L75.5819 50.1662C75.7537 50.1662 75.9173 50.196 76.0672 50.2512C76.5812 50.4399 76.9454 50.9167 76.9454 51.474C76.9454 51.7058 76.8832 51.9254 76.7702 52.1152L72.3801 59.3948C71.7208 60.4841 70.5072 61.1562 69.1909 61.1562V61.154Z" fill="#3A6B0C"/>
<g filter="url(#filter6_d_1288_641)">
<path d="M114.641 101.302C114.641 97.3816 117.819 94.2012 121.739 94.2012H140.58C141.887 94.2012 142.946 95.2605 142.946 96.5672V106.036C142.946 107.343 141.887 108.402 140.58 108.402H121.739C117.819 108.402 114.641 105.222 114.641 101.302Z" fill="#E8F1C5"/>
</g>
<g filter="url(#filter7_d_1288_641)">
<ellipse cx="121.481" cy="101.301" rx="3.53821" ry="3.5503" fill="url(#paint1_linear_1288_641)"/>
</g>
<line x1="13.2131" y1="182.248" x2="116.057" y2="182.248" stroke="#78909C" stroke-width="0.4732"/>
<line x1="13.2131" y1="180.118" x2="116.057" y2="180.118" stroke="#78909C" stroke-width="0.4732"/>
<defs>
<filter id="filter0_d_1288_641" x="1.07884e-05" y="1.41981" width="143.188" height="202.129" filterUnits="userSpaceOnUse" color-interpolation-filters="sRGB">
<feFlood flood-opacity="0" result="BackgroundImageFix"/>
<feColorMatrix in="SourceAlpha" type="matrix" values="0 0 0 0 0 0 0 0 0 0 0 0 0 0 0 0 0 0 127 0" result="hardAlpha"/>
<feOffset dx="0.4732" dy="0.4732"/>
<feGaussianBlur stdDeviation="0.7098"/>
<feColorMatrix type="matrix" values="0 0 0 0 0 0 0 0 0 0 0 0 0 0 0 0 0 0 0.15 0"/>
<feBlend mode="normal" in2="BackgroundImageFix" result="effect1_dropShadow_1288_641"/>
<feBlend mode="normal" in="SourceGraphic" in2="effect1_dropShadow_1288_641" result="shape"/>
</filter>
<filter id="filter1_d_1288_641" x="3.06946" y="9.70312" width="131.151" height="184.852" filterUnits="userSpaceOnUse" color-interpolation-filters="sRGB">
<feFlood flood-opacity="0" result="BackgroundImageFix"/>
<feColorMatrix in="SourceAlpha" type="matrix" values="0 0 0 0 0 0 0 0 0 0 0 0 0 0 0 0 0 0 127 0" result="hardAlpha"/>
<feOffset dx="0.2366" dy="0.2366"/>
<feGaussianBlur stdDeviation="0.1183"/>
<feColorMatrix type="matrix" values="0 0 0 0 0 0 0 0 0 0 0 0 0 0 0 0 0 0 0.1 0"/>
<feBlend mode="normal" in2="BackgroundImageFix" result="effect1_dropShadow_1288_641"/>
<feBlend mode="normal" in="SourceGraphic" in2="effect1_dropShadow_1288_641" result="shape"/>
</filter>
<filter id="filter2_d_1288_641" x="2.83392" y="9.23047" width="131.151" height="184.852" filterUnits="userSpaceOnUse" color-interpolation-filters="sRGB">
<feFlood flood-opacity="0" result="BackgroundImageFix"/>
<feColorMatrix in="SourceAlpha" type="matrix" values="0 0 0 0 0 0 0 0 0 0 0 0 0 0 0 0 0 0 127 0" result="hardAlpha"/>
<feOffset dx="0.2366" dy="0.2366"/>
<feGaussianBlur stdDeviation="0.1183"/>
<feColorMatrix type="matrix" values="0 0 0 0 0 0 0 0 0 0 0 0 0 0 0 0 0 0 0.1 0"/>
<feBlend mode="normal" in2="BackgroundImageFix" result="effect1_dropShadow_1288_641"/>
<feBlend mode="normal" in="SourceGraphic" in2="effect1_dropShadow_1288_641" result="shape"/>
</filter>
<filter id="filter3_d_1288_641" x="2.59778" y="8.75684" width="131.151" height="184.852" filterUnits="userSpaceOnUse" color-interpolation-filters="sRGB">
<feFlood flood-opacity="0" result="BackgroundImageFix"/>
<feColorMatrix in="SourceAlpha" type="matrix" values="0 0 0 0 0 0 0 0 0 0 0 0 0 0 0 0 0 0 127 0" result="hardAlpha"/>
<feOffset dx="0.2366" dy="0.2366"/>
<feGaussianBlur stdDeviation="0.1183"/>
<feColorMatrix type="matrix" values="0 0 0 0 0 0 0 0 0 0 0 0 0 0 0 0 0 0 0.1 0"/>
<feBlend mode="normal" in2="BackgroundImageFix" result="effect1_dropShadow_1288_641"/>
<feBlend mode="normal" in="SourceGraphic" in2="effect1_dropShadow_1288_641" result="shape"/>
</filter>
<filter id="filter4_d_1288_641" x="2.36145" y="8.2832" width="131.151" height="184.852" filterUnits="userSpaceOnUse" color-interpolation-filters="sRGB">
<feFlood flood-opacity="0" result="BackgroundImageFix"/>
<feColorMatrix in="SourceAlpha" type="matrix" values="0 0 0 0 0 0 0 0 0 0 0 0 0 0 0 0 0 0 127 0" result="hardAlpha"/>
<feOffset dx="0.2366" dy="0.2366"/>
<feGaussianBlur stdDeviation="0.1183"/>
<feColorMatrix type="matrix" values="0 0 0 0 0 0 0 0 0 0 0 0 0 0 0 0 0 0 0.1 0"/>
<feBlend mode="normal" in2="BackgroundImageFix" result="effect1_dropShadow_1288_641"/>
<feBlend mode="normal" in="SourceGraphic" in2="effect1_dropShadow_1288_641" result="shape"/>
</filter>
<filter id="filter5_dd_1288_641" x="1.07288e-05" y="-0.000111341" width="141.069" height="203.549" filterUnits="userSpaceOnUse" color-interpolation-filters="sRGB">
<feFlood flood-opacity="0" result="BackgroundImageFix"/>
<feColorMatrix in="SourceAlpha" type="matrix" values="0 0 0 0 0 0 0 0 0 0 0 0 0 0 0 0 0 0 127 0" result="hardAlpha"/>
<feOffset dx="1.183" dy="1.183"/>
<feGaussianBlur stdDeviation="1.0647"/>
<feColorMatrix type="matrix" values="0 0 0 0 0 0 0 0 0 0 0 0 0 0 0 0 0 0 0.15 0"/>
<feBlend mode="normal" in2="BackgroundImageFix" result="effect1_dropShadow_1288_641"/>
<feColorMatrix in="SourceAlpha" type="matrix" values="0 0 0 0 0 0 0 0 0 0 0 0 0 0 0 0 0 0 127 0" result="hardAlpha"/>
<feOffset dx="0.4732" dy="0.4732"/>
<feGaussianBlur stdDeviation="0.2366"/>
<feColorMatrix type="matrix" values="0 0 0 0 0 0 0 0 0 0 0 0 0 0 0 0 0 0 0.1 0"/>
<feBlend mode="normal" in2="effect1_dropShadow_1288_641" result="effect2_dropShadow_1288_641"/>
<feBlend mode="normal" in="SourceGraphic" in2="effect2_dropShadow_1288_641" result="shape"/>
</filter>
<filter id="filter6_d_1288_641" x="114.641" y="94.2012" width="29.7253" height="15.6208" filterUnits="userSpaceOnUse" color-interpolation-filters="sRGB">
<feFlood flood-opacity="0" result="BackgroundImageFix"/>
<feColorMatrix in="SourceAlpha" type="matrix" values="0 0 0 0 0 0 0 0 0 0 0 0 0 0 0 0 0 0 127 0" result="hardAlpha"/>
<feOffset dx="0.7098" dy="0.7098"/>
<feGaussianBlur stdDeviation="0.3549"/>
<feColorMatrix type="matrix" values="0 0 0 0 0 0 0 0 0 0 0 0 0 0 0 0 0 0 0.15 0"/>
<feBlend mode="normal" in2="BackgroundImageFix" result="effect1_dropShadow_1288_641"/>
<feBlend mode="normal" in="SourceGraphic" in2="effect1_dropShadow_1288_641" result="shape"/>
</filter>
<filter id="filter7_d_1288_641" x="117.943" y="97.751" width="7.54962" height="7.57379" filterUnits="userSpaceOnUse" color-interpolation-filters="sRGB">
<feFlood flood-opacity="0" result="BackgroundImageFix"/>
<feColorMatrix in="SourceAlpha" type="matrix" values="0 0 0 0 0 0 0 0 0 0 0 0 0 0 0 0 0 0 127 0" result="hardAlpha"/>
<feOffset dx="0.2366" dy="0.2366"/>
<feGaussianBlur stdDeviation="0.1183"/>
<feColorMatrix type="matrix" values="0 0 0 0 0 0 0 0 0 0 0 0 0 0 0 0 0 0 0.1 0"/>
<feBlend mode="normal" in2="BackgroundImageFix" result="effect1_dropShadow_1288_641"/>
<feBlend mode="normal" in="SourceGraphic" in2="effect1_dropShadow_1288_641" result="shape"/>
</filter>
<linearGradient id="paint0_linear_1288_641" x1="0.946411" y1="0.946289" x2="138.391" y2="199.798" gradientUnits="userSpaceOnUse">
<stop stop-color="#E8F1C5" stop-opacity="0.5"/>
<stop offset="1" stop-color="#C8DE73" stop-opacity="0.5"/>
<stop offset="1" stop-color="#C8DE73"/>
</linearGradient>
<linearGradient id="paint1_linear_1288_641" x1="125.019" y1="104.852" x2="117.918" y2="97.7752" gradientUnits="userSpaceOnUse">
<stop stop-color="#C8DE73"/>
<stop offset="1" stop-color="#DCEE95"/>
</linearGradient>
</defs>
</svg>
