<svg width="115" height="115" viewBox="0 0 115 115" fill="none" xmlns="http://www.w3.org/2000/svg">
<path d="M114.642 74.2993C114.602 74.728 114.537 75.1544 114.465 75.5955C114.356 76.2213 114.243 76.8366 114.09 77.4431C113.744 78.927 113.236 80.401 112.603 81.8382C112.513 82.0435 112.423 82.2488 112.332 82.4541C112.332 82.4541 112.326 82.4687 112.32 82.4834C112.131 82.8729 111.931 83.2665 111.738 83.6454L111.726 83.6748C105.384 95.5259 90.8815 100.684 78.3565 95.1787C78.0485 95.0433 77.7323 94.8868 77.4202 94.7409L77.4073 94.7702L73.9314 93.2424C73.8141 93.1909 73.7008 93.1499 73.5771 93.1129C72.0876 92.6595 70.4481 93.3826 69.8031 94.8491L68.2744 98.3246L68.2451 98.3117C68.1137 98.6302 67.9824 98.9487 67.851 99.2672C62.0652 112.421 46.7451 118.384 33.6001 112.597C20.4591 106.821 14.4942 91.4948 20.2736 78.3553C20.4197 78.0433 20.5616 77.7206 20.7263 77.4256L20.697 77.4127L22.2257 73.9372C22.8707 72.4707 22.2956 70.7742 20.9545 69.9835C20.8477 69.9278 20.7368 69.8616 20.6195 69.81L17.1436 68.2822L17.1565 68.2529C16.8379 68.1216 16.5194 67.9904 16.2008 67.8591C5.51966 63.1556 -0.42099 52.1709 0.808464 41.179C0.85884 40.7462 0.913324 40.3239 0.984816 39.8828C1.09382 39.257 1.20693 38.6417 1.35994 38.0352C1.36873 37.9953 1.37752 37.9554 1.39042 37.9261L1.53463 37.3595C1.8641 36.1131 2.30502 34.8719 2.84684 33.6401C2.93714 33.4348 3.02745 33.2295 3.11775 33.0242C3.11775 33.0242 3.1242 33.0095 3.13065 32.9949C3.31947 32.6054 3.51885 32.2118 3.71178 31.8328L3.72469 31.8035C10.0581 19.9313 24.5816 14.7651 37.1066 20.2703C37.4146 20.4056 37.7308 20.5621 38.0324 20.7122L38.0453 20.6828L41.8585 22.3589C43.3521 22.8229 44.9915 22.0997 45.6324 20.6227L47.1611 17.1472L47.1905 17.1601C47.3218 16.8416 47.4532 16.5231 47.5845 16.2046C53.3598 3.05457 68.6904 -2.91186 81.8355 2.87461C94.9765 8.65053 100.952 23.9729 95.1619 37.1165C95.0265 37.4244 94.8699 37.7406 94.7198 38.0421L94.7491 38.055L93.2204 41.5305C92.5754 42.997 93.1464 44.683 94.4917 45.4842L98.3196 47.1667L98.3067 47.196C98.6317 47.3126 98.9543 47.4545 99.2623 47.5898C109.95 52.2787 115.888 63.2886 114.627 74.2928L114.642 74.2993Z" fill="#CDE667"/>
</svg>
