<svg width="141" height="102" viewBox="0 0 141 102" fill="none" xmlns="http://www.w3.org/2000/svg">
<path d="M109.863 40.0218C109.632 40.0218 109.4 40.0243 109.169 40.0292V40.007H108.669H104.265C102.537 40.007 101.137 38.604 101.137 36.865V32.4457V31.9457H101.123C101.132 31.7136 101.137 31.4804 101.137 31.2465C101.137 14.2571 87.417 0.5 70.5 0.5C53.5827 0.5 39.8782 14.2574 39.8782 31.2465C39.8782 31.4796 39.8806 31.7126 39.8856 31.9457H39.8634V32.4457V36.865C39.8634 38.604 38.4629 40.007 36.7346 40.007H32.3314H31.8314V40.0323C31.6012 40.0267 31.367 40.0218 31.1366 40.0218C14.2048 40.0218 0.5 53.7789 0.5 70.7535C0.5 87.7277 14.2045 101.5 31.1366 101.5C31.369 101.5 31.6007 101.495 31.8314 101.487V101.5H32.3314H108.661H109.161V101.487C109.392 101.495 109.624 101.5 109.856 101.5C126.622 101.5 140.223 87.9974 140.489 71.2535H140.5V70.7535C140.5 53.7789 126.795 40.0218 109.863 40.0218Z" fill="#D5ECF2" stroke="white"/>
</svg>
