<svg width="123" height="123" viewBox="0 0 123 123" fill="none" xmlns="http://www.w3.org/2000/svg">
<path d="M120.744 77.0379C121.412 65.997 115.435 55.1961 104.946 50.1626L104.956 50.1408L103.124 49.3358L99.4369 47.715C98.9985 47.404 98.8339 46.8296 99.0511 46.3358L100.58 42.8603L100.992 41.9228C100.992 41.9224 100.993 41.9221 100.993 41.9217C100.997 41.9112 101.002 41.9007 101.007 41.8902L101.385 41.0292L101.37 41.0227C106.953 27.0736 100.492 11.1322 86.6403 5.04367C72.7801 -1.05692 56.663 4.97529 50.1573 18.5213L50.1354 18.5117L49.3304 20.342L47.8017 23.8175L47.7977 23.8266C47.5801 24.328 47.0417 24.5868 46.5334 24.4709L42.85 22.8519L41.9115 22.4393C41.9114 22.4393 41.9114 22.4393 41.9114 22.4393C41.9111 22.4392 41.9109 22.4391 41.9107 22.439L41.0196 22.0473L41.0129 22.0626C27.7342 16.76 12.6311 22.357 5.96007 34.8621L5.92444 34.9289L5.90379 34.9759C5.71796 35.3411 5.52033 35.7318 5.33098 36.1224L5.31483 36.1557L5.29992 36.1896L5.29106 36.2097L5.28815 36.2164L5.28733 36.2182L5.28711 36.2187L5.28706 36.2189L5.28704 36.2189L5.28704 36.2189L7.11775 37.0242L5.28704 36.2189L5.28702 36.2189L5.15157 36.5269L5.01611 36.8349C4.43605 38.1536 3.95931 39.493 3.60104 40.8484L3.59869 40.8573L3.59643 40.8662L3.47235 41.3537C3.45723 41.4017 3.44662 41.4407 3.43972 41.4669C3.42875 41.5084 3.41943 41.5483 3.41346 41.5748C3.24459 42.2493 3.12282 42.9176 3.01448 43.5396L3.01246 43.5512L3.01058 43.5628C2.93249 44.0445 2.87408 44.4992 2.82187 44.9478L2.82185 44.9478L2.82086 44.9567C1.53084 56.4901 7.56854 68.0158 18.5174 73.2853L18.5074 73.3082L20.3388 74.1132L23.8088 75.6384C23.8123 75.6401 23.823 75.6455 23.8438 75.6567C23.8651 75.6682 23.8825 75.6777 23.9166 75.6963C23.9311 75.7042 23.9483 75.7136 23.9672 75.7237C24.4274 76.0143 24.6217 76.6165 24.395 77.1319L22.8663 80.6074L22.6238 81.1586C22.5907 81.2295 22.5597 81.2967 22.5313 81.3584C22.5062 81.4129 22.483 81.4631 22.4621 81.5077L22.4523 81.5288L22.4429 81.5501C22.3519 81.7571 22.2635 81.9646 22.1779 82.1725L22.0608 82.4387L22.0685 82.442C16.4913 96.3873 22.939 112.337 36.7943 118.428C50.6556 124.529 66.7628 118.5 73.2778 104.95L73.3 104.96L74.1051 103.13L75.6339 99.6544C75.8653 99.1281 76.4603 98.8636 76.9946 99.0263L77.0056 99.0296C77.0558 99.0445 77.0906 99.0576 77.1266 99.0734L80.6025 100.601L82.4332 101.406L82.443 101.383C95.7221 106.691 110.808 101.103 117.489 88.6184L117.525 88.5507L117.546 88.5026C117.732 88.1373 117.93 87.7465 118.119 87.3559L118.135 87.3225L118.15 87.2887L118.159 87.268L118.162 87.2612L118.163 87.2593L118.163 87.2588L118.163 87.2587L118.299 86.9514L118.434 86.6434C119.107 85.1136 119.656 83.5281 120.034 81.9153C120.204 81.2367 120.327 80.5643 120.436 79.9387L120.438 79.9271L120.44 79.9155C120.512 79.4688 120.587 78.9854 120.633 78.4842L120.767 77.0479L120.744 77.0379Z" fill="#CDE667" stroke="white" stroke-width="4"/>
</svg>
