<svg width="147" height="108" viewBox="0 0 147 108" fill="none" xmlns="http://www.w3.org/2000/svg">
<path d="M145 73.7535C145 56.2249 131.06 41.96 113.669 41.5317V41.507H111.669H107.265C106.371 41.507 105.637 40.7808 105.637 39.865V35.4457V34.2465V33.4457H105.627C105.203 16.0028 90.9833 2 73.5 2C56.0155 2 41.8109 16.004 41.3879 33.4457H41.3634V35.4457V39.865C41.3634 40.7808 40.6294 41.507 39.7346 41.507H35.3314H33.3314V41.5317C15.9395 41.96 2 56.2249 2 73.7535C2 91.2809 15.9383 105.561 33.3314 105.99V106H34.1366H35.3314H111.661H112.856H113.661V105.99C130.388 105.578 143.919 92.355 144.932 75.7535H145V73.7535Z" fill="#D5ECF2" stroke="white" stroke-width="4"/>
</svg>
