<svg width="100" height="100" viewBox="0 0 100 100" fill="none" xmlns="http://www.w3.org/2000/svg">
<path d="M38.4472 5.01558C44.6974 -1.67186 55.3026 -1.67186 61.5528 5.01558C64.6702 8.351 69.0769 10.1763 73.6397 10.0221C82.788 9.71298 90.287 17.212 89.9779 26.3603C89.8237 30.9231 91.649 35.3298 94.9844 38.4472C101.672 44.6974 101.672 55.3026 94.9844 61.5528C91.649 64.6702 89.8237 69.0769 89.9779 73.6397C90.287 82.788 82.788 90.287 73.6397 89.9779C69.0769 89.8237 64.6702 91.649 61.5528 94.9844C55.3026 101.672 44.6974 101.672 38.4472 94.9844C35.3298 91.649 30.9231 89.8237 26.3603 89.9779C17.212 90.287 9.71298 82.788 10.0221 73.6397C10.1763 69.0769 8.351 64.6702 5.01558 61.5528C-1.67186 55.3026 -1.67186 44.6974 5.01558 38.4472C8.351 35.3298 10.1763 30.9231 10.0221 26.3603C9.71298 17.212 17.212 9.71298 26.3603 10.0221C30.9231 10.1763 35.3298 8.351 38.4472 5.01558Z" fill="#CDE667"/>
</svg>
