<svg width="102" height="102" viewBox="0 0 102 102" fill="none" xmlns="http://www.w3.org/2000/svg">
<path d="M4.45594 44.5634L4.45585 44.5634C-0.818621 47.2322 -0.81862 54.7678 4.45585 57.4366L4.45594 57.4366L15.1762 62.8582C15.1762 62.8582 15.1762 62.8582 15.1762 62.8582C25.5131 68.0875 33.9126 76.4818 39.1418 86.8237L39.1418 86.8238L44.5634 97.5441L44.5634 97.5441C47.2322 102.819 54.7678 102.819 57.4366 97.5441L57.4366 97.5441L62.8582 86.8238C62.8582 86.8238 62.8582 86.8238 62.8582 86.8238C68.0875 76.4869 76.4818 68.0874 86.8237 62.8582L86.6028 62.4212L86.8238 62.8582L97.5441 57.4366L97.5441 57.4366C102.819 54.7678 102.819 47.2322 97.5441 44.5634L97.5441 44.5634L86.8238 39.1418C76.487 33.9125 68.0874 25.5182 62.8582 15.1763L62.4212 15.3973L62.8582 15.1763L57.4366 4.45596L57.4366 4.45587C54.7678 -0.818606 47.2322 -0.818606 44.5634 4.45587L44.5634 4.45596L39.1418 15.1762C39.1418 15.1762 39.1418 15.1762 39.1418 15.1763C33.9125 25.5131 25.5182 33.9126 15.1763 39.1418L15.1762 39.1418L4.45594 44.5634Z" fill="#D5ECF2" stroke="white"/>
</svg>
