<svg width="102" height="102" viewBox="0 0 102 102" fill="none" xmlns="http://www.w3.org/2000/svg">
<path d="M39.0819 5.67417C36.0631 8.90412 31.7957 10.6718 27.3772 10.5224C17.9396 10.2035 10.2035 17.9396 10.5224 27.3772C10.6718 31.7957 8.90412 36.0631 5.67417 39.0819C-1.22472 45.5297 -1.22472 56.4703 5.67417 62.9181C8.90412 65.9369 10.6718 70.2043 10.5224 74.6228C10.2035 84.0604 17.9396 91.7965 27.3772 91.4776C31.7957 91.3283 36.0631 93.0959 39.0819 96.3258C45.5297 103.225 56.4703 103.225 62.9181 96.3258C65.9369 93.0959 70.2043 91.3283 74.6228 91.4776C84.0604 91.7965 91.7965 84.0604 91.4776 74.6228C91.3283 70.2043 93.0959 65.9369 96.3258 62.9181C103.225 56.4703 103.225 45.5297 96.3258 39.0819C93.0959 36.0631 91.3283 31.7957 91.4776 27.3772C91.7965 17.9396 84.0604 10.2035 74.6228 10.5224C70.2043 10.6718 65.9369 8.90412 62.9181 5.67417C56.4703 -1.22472 45.5297 -1.22472 39.0819 5.67417Z" fill="#CDE667" stroke="white"/>
</svg>
