<svg width="108" height="108" viewBox="0 0 108 108" fill="none" xmlns="http://www.w3.org/2000/svg">
<path d="M40.986 7.64994C38.263 10.5635 34.4135 12.158 30.4278 12.0233C20.1225 11.675 11.675 20.1225 12.0233 30.4278C12.158 34.4135 10.5635 38.263 7.64994 40.986C0.116686 48.0267 0.116685 59.9733 7.64994 67.014C10.5635 69.7371 12.158 73.5865 12.0233 77.5722C11.675 87.8775 20.1225 96.325 30.4278 95.9767C34.4135 95.842 38.263 97.4365 40.986 100.35C48.0267 107.883 59.9733 107.883 67.014 100.35C69.7371 97.4365 73.5865 95.842 77.5722 95.9767C87.8775 96.325 96.325 87.8775 95.9767 77.5722C95.842 73.5865 97.4365 69.7371 100.35 67.014C107.883 59.9733 107.883 48.0267 100.35 40.986C97.4365 38.263 95.842 34.4135 95.9767 30.4278C96.325 20.1225 87.8775 11.675 77.5722 12.0233C73.5865 12.158 69.7371 10.5635 67.014 7.64994C59.9733 0.116686 48.0267 0.116685 40.986 7.64994Z" fill="#CDE667" stroke="white" stroke-width="4"/>
</svg>
