<svg width="139" height="100" viewBox="0 0 139 100" fill="none" xmlns="http://www.w3.org/2000/svg">
<path d="M138.993 69.7535C138.993 86.4535 125.51 100 108.856 100C108.458 100 108.059 99.9852 107.661 99.963V100H31.3314V99.963C30.9331 99.9852 30.5349 100 30.1366 100C13.4825 100 0 86.4535 0 69.7535C0 53.0535 13.4825 39.5218 30.1366 39.5218C30.5349 39.5218 30.9331 39.5366 31.3314 39.544V39.507H35.7346C37.7408 39.507 39.3634 37.8784 39.3634 35.865V31.4457H39.4003C39.3855 31.046 39.3782 30.6462 39.3782 30.2465C39.3782 13.5317 52.8607 0 69.5 0C86.1393 0 99.6366 13.5317 99.6366 30.2465C99.6366 30.6462 99.6218 31.046 99.5997 31.4457H99.6366V35.865C99.6366 37.8784 101.259 39.507 103.265 39.507H107.669V39.544C108.067 39.5292 108.465 39.5218 108.863 39.5218C125.517 39.5218 139 53.0535 139 69.7535H138.993Z" fill="#D5ECF2"/>
</svg>
