<svg width="108" height="108" viewBox="0 0 108 108" fill="none" xmlns="http://www.w3.org/2000/svg">
<path d="M6.77899 46.2248L6.77863 46.225C0.40712 49.4489 0.40712 58.5511 6.77863 61.775L6.779 61.7752L17.4991 67.1966C17.4991 67.1967 17.4992 67.1967 17.4993 67.1968C27.551 72.2818 35.7185 80.4445 40.8032 90.5006L40.8032 90.5007L46.2248 101.221L46.225 101.221C49.4489 107.593 58.5511 107.593 61.775 101.221L61.7752 101.221L67.1966 90.5009C67.1967 90.5009 67.1967 90.5008 67.1968 90.5007C72.2819 80.449 80.4445 72.2815 90.5006 67.1968L90.5007 67.1968L101.221 61.7752L101.221 61.775C107.593 58.5511 107.593 49.4489 101.221 46.225L101.221 46.2248L90.5009 40.8034C90.5009 40.8033 90.5008 40.8033 90.5007 40.8032C80.449 35.7182 72.2815 27.5555 67.1968 17.4994L67.1968 17.4993L61.7752 6.77901L61.775 6.77865C58.5511 0.407133 49.4489 0.407133 46.225 6.77865L46.2248 6.77901L40.8034 17.4991C40.8033 17.4992 40.8033 17.4992 40.8032 17.4993C35.7181 27.551 27.5555 35.7185 17.4994 40.8032L17.4993 40.8033L6.77899 46.2248Z" fill="#D5ECF2" stroke="white" stroke-width="4"/>
</svg>
