<svg width="184" height="164" viewBox="0 0 184 164" fill="none" xmlns="http://www.w3.org/2000/svg">
<path d="M76.0521 158.185L14.8624 116.601C5.38783 110.168 0.0736828 99.1618 0.895016 87.7498L6.44457 12.1443L6.45408 12.0053C6.46152 11.7799 6.48852 11.5436 6.50427 11.3238L6.51553 11.3073C6.66282 9.66092 7.16899 8.03996 8.04141 6.55855C8.18261 6.31486 8.33211 6.07682 8.50119 5.8278C12.0744 0.565279 19.1179 -0.909972 24.488 2.34828L24.6209 2.4385C24.7594 2.52041 24.8813 2.59105 25.0141 2.68127L25.2549 2.84477C25.2549 2.84477 25.338 2.90115 25.3516 2.93466C25.5177 3.04742 25.6864 3.17413 25.8439 3.31744C25.8854 3.34563 25.9353 3.37944 25.9711 3.41593C32.4586 8.54856 43.984 20.4127 46.5302 23.1845C71.2765 50.2226 83.8399 80.8734 83.8399 80.8734L83.8648 80.8903C84.8779 80.8991 117.529 81.4826 151.228 94.3349C153.443 95.1834 160.378 98.0489 166.983 101.079C170.818 102.846 174.524 104.659 177.17 106.176C177.223 106.188 177.273 106.222 177.294 106.261C177.486 106.355 177.68 106.462 177.848 106.589C177.871 106.592 177.901 106.6 177.912 106.62C177.912 106.62 177.923 106.627 177.945 106.642L177.962 106.654L178.208 106.809C179.446 107.649 180.473 108.674 181.27 109.822C184.01 113.756 184.199 119.123 181.353 123.315C180.17 125.058 178.6 126.405 176.816 127.281L108.012 160.555C97.6998 165.522 85.5237 164.64 76.0409 158.202L76.0521 158.185Z" fill="#CDE667"/>
</svg>
