<svg width="186" height="166" viewBox="0 0 186 166" fill="none" xmlns="http://www.w3.org/2000/svg">
<path d="M27.3001 4.03862C27.2466 3.98903 27.1897 3.94813 27.1531 3.92301C27.0025 3.78849 26.8464 3.66946 26.6953 3.56423C26.6933 3.56212 26.6916 3.56032 26.6901 3.55883L26.6896 3.55825C26.6609 3.52875 26.6328 3.50482 26.6138 3.48934C26.5934 3.47276 26.5749 3.45893 26.5619 3.44953L26.5451 3.43754L26.5394 3.43359L26.5373 3.43215L26.5365 3.43157L26.5361 3.43131L26.5359 3.4312L26.5359 3.43114L26.2549 3.84477L26.5358 3.43111L26.295 3.26761C26.1616 3.17705 26.0374 3.1037 25.9168 3.03257C25.9075 3.02705 25.8981 3.02154 25.8888 3.01604L25.7689 2.93463L25.7583 2.92744L25.7474 2.92081C20.1517 -0.474308 12.8116 1.06222 9.08754 6.54693C8.91235 6.80494 8.75677 7.05257 8.60967 7.30635C7.72254 8.81325 7.19822 10.4589 7.0299 12.1324L7.01515 12.1541L7.00555 12.2881C7.00123 12.3483 6.99523 12.4176 6.9888 12.4919C6.97543 12.6464 6.96022 12.8219 6.95466 12.9797L6.94591 13.1077L6.94574 13.1102L1.39636 88.7132L1.39631 88.7139C0.562198 100.303 5.95885 111.481 15.5813 118.014C15.5814 118.014 15.5814 118.015 15.5815 118.015L76.3577 159.318L76.3463 159.334L76.76 159.615C86.3907 166.155 98.7566 167.05 109.229 162.005L109.23 162.005L178.034 128.731L178.037 128.729C179.898 127.816 181.535 126.41 182.767 124.596C185.733 120.227 185.535 114.634 182.681 110.536C181.848 109.337 180.777 108.269 179.489 107.395L179.482 107.39L179.475 107.386L179.236 107.235L179.233 107.233C179.172 107.18 179.112 107.151 179.079 107.137C179.078 107.137 179.077 107.137 179.076 107.136C178.921 107.028 178.758 106.935 178.603 106.856C178.532 106.792 178.452 106.746 178.373 106.717C175.711 105.193 172.008 103.383 168.192 101.624L168.191 101.624C161.578 98.5908 154.633 95.721 152.407 94.868L152.407 94.8677C120.096 82.5452 88.7561 81.4736 85.182 81.3958C85.1729 81.3741 85.1632 81.3513 85.153 81.3273C85.0542 81.0943 84.9063 80.7498 84.7094 80.3023C84.3157 79.4073 83.7263 78.1 82.9419 76.4474C81.3731 73.1423 79.024 68.4553 75.9003 62.9224C69.6541 51.8586 60.3054 37.4023 47.899 23.8469L47.8984 23.8462C45.3528 21.075 33.8243 9.20558 27.3001 4.03862Z" fill="#CDE667" stroke="white"/>
</svg>
