<svg width="90" height="100" viewBox="0 0 90 100" fill="none" xmlns="http://www.w3.org/2000/svg">
<g clip-path="url(#clip0_378_38)">
<path d="M67.0101 99.2202L67.0089 99.2204C65.7627 99.4065 64.4889 99.4997 63.1873 99.4997L45.0043 99.4997L26.8212 99.4997C25.5196 99.4997 24.2413 99.4065 22.9952 99.2204L22.9939 99.2202C10.2701 97.3526 0.504288 86.3719 0.504285 73.0965L0.504274 9.96931L0.505231 9.96883L0.513118 9.66931C0.547368 8.36858 0.851205 7.06615 1.45295 5.85513L1.45761 5.84573L1.46188 5.83615C1.54725 5.64457 1.65108 5.44812 1.76783 5.24431C4.29919 0.851337 9.77513 -0.732024 14.2144 1.52152L14.4666 1.64954L14.5124 1.6208C24.129 6.10791 34.8886 14.1483 44.6265 25.377L45.0043 25.8126L45.382 25.377C55.12 14.1482 65.8708 6.11226 75.4917 1.62082L75.5374 1.64946L75.7895 1.52159C80.2338 -0.732371 85.7099 0.851791 88.2364 5.24015C88.35 5.43842 88.4517 5.63799 88.5458 5.8396L88.5457 5.83966L88.5508 5.84996C89.153 7.06621 89.4567 8.36443 89.4909 9.66477L89.4998 10.0003L89.4998 73.101C89.4998 86.3717 79.7296 97.3526 67.0101 99.2202Z" fill="#CDE667" stroke="white"/>
</g>
<defs>
<clipPath id="clip0_378_38">
<rect width="90" height="100" fill="white"/>
</clipPath>
</defs>
</svg>
