<svg width="90" height="100" viewBox="0 0 90 100" fill="none" xmlns="http://www.w3.org/2000/svg">
<g clip-path="url(#clip0_378_38)">
<path d="M66.7922 97.7361L66.7873 97.7368C65.6167 97.9117 64.417 97.9997 63.1873 97.9997L45.0043 97.9997L26.8212 97.9997C25.5912 97.9997 24.387 97.9116 23.2167 97.7369L23.2118 97.7361C11.2162 95.9754 2.00429 85.6195 2.00429 73.0965L2.00427 10.0249L2.0126 9.70879C2.04139 8.61527 2.29642 7.52854 2.79626 6.5226L2.81493 6.48501L2.83201 6.44668C2.88951 6.31764 2.96675 6.16919 3.06847 5.99154C5.20024 2.29403 9.8046 0.965142 13.5354 2.85904L14.5441 3.37113L14.6121 3.32854C23.8263 7.7778 34.1223 15.5542 43.4933 26.3598L45.0043 28.1021L46.5152 26.3598C55.8864 15.554 66.1743 7.78171 75.3922 3.32866L75.4595 3.37085L76.468 2.85939C80.2052 0.964034 84.8092 2.29555 86.9356 5.98708C87.025 6.14326 87.1075 6.30462 87.1866 6.4741L87.1963 6.49494L87.2065 6.51555C87.7082 7.52881 87.9627 8.61229 87.9914 9.70425L87.9998 10.0201L87.9998 73.101C87.9998 85.6189 78.7838 95.9754 66.7922 97.7361Z" fill="#CDE667" stroke="white" stroke-width="4"/>
</g>
<defs>
<clipPath id="clip0_378_38">
<rect width="90" height="100" fill="white"/>
</clipPath>
</defs>
</svg>
