<svg width="192" height="172" viewBox="0 0 192 172" fill="none" xmlns="http://www.w3.org/2000/svg">
<path d="M17.7389 122.256L77.2745 162.715L77.2627 162.733L78.9174 163.856C88.9919 170.697 101.927 171.633 112.88 166.357L112.883 166.355L181.687 133.081L181.698 133.076C183.794 132.047 185.63 130.467 187.008 128.438C190.335 123.539 190.109 117.27 186.912 112.679C185.973 111.328 184.77 110.13 183.332 109.154L183.303 109.135L183.274 109.117L183.102 109.008C183.004 108.934 182.911 108.878 182.831 108.836C182.69 108.742 182.551 108.661 182.422 108.592C182.299 108.504 182.172 108.431 182.045 108.373C179.33 106.825 175.611 105.009 171.82 103.262L171.817 103.261C165.179 100.216 158.204 97.3336 155.944 96.4673L155.941 96.4662C125.387 84.8133 95.7175 83.1492 89.1814 82.924C89.1499 82.8519 89.1169 82.7767 89.0825 82.6984C88.6834 81.791 88.088 80.4706 87.297 78.8041C85.7152 75.4717 83.3499 70.7529 80.2065 65.185C73.924 54.0569 64.5117 39.4985 52.0055 25.8342L52.0031 25.8315C49.4557 23.0584 37.8915 11.1459 31.2621 5.88708C31.1972 5.8307 31.1354 5.78248 31.0853 5.74537C30.9372 5.61728 30.79 5.5034 30.6508 5.40291C30.6138 5.36977 30.5825 5.34374 30.5606 5.3259C30.5128 5.28702 30.4712 5.256 30.4434 5.23582C30.4286 5.22512 30.4156 5.21588 30.4049 5.20838L30.3901 5.19811L30.3838 5.1938L30.3809 5.19184L30.3796 5.19092L30.3789 5.19047L30.3786 5.19024C30.3785 5.19021 30.3785 5.19017 30.3429 5.24251L30.3784 5.19015L30.1376 5.02664C29.9686 4.91186 29.8086 4.81704 29.6918 4.74817L29.6115 4.69366L29.5692 4.66493L29.5255 4.6384C23.253 0.832686 15.0233 2.55305 10.8466 8.70432C10.653 8.98934 10.4792 9.26572 10.3145 9.54975C9.38558 11.1289 8.80996 12.8445 8.58219 14.5943L8.54778 14.6449L8.50938 15.1809C8.50783 15.2026 8.5045 15.2412 8.50019 15.2912C8.48709 15.4432 8.46499 15.6998 8.45669 15.8989L8.44994 15.9979L8.44923 16.0079L2.90038 91.6033L2.90018 91.6062C2.02777 103.728 7.67191 115.42 17.7382 122.255C17.7384 122.255 17.7387 122.255 17.7389 122.256Z" fill="#CDE667" stroke="white" stroke-width="4"/>
</svg>
