<svg width="90" height="100" viewBox="0 0 90 100" fill="none" xmlns="http://www.w3.org/2000/svg">
<g clip-path="url(#clip0_378_38)">
<path d="M89.9998 9.66065L89.9998 73.101C89.9998 86.6227 80.0449 97.8117 67.0827 99.7149C65.8113 99.9048 64.5129 99.9997 63.1873 99.9997L45.0043 99.9997L26.8212 99.9997C25.4957 99.9997 24.1927 99.9048 22.9213 99.7149C9.9547 97.8117 0.00428761 86.6227 0.00428524 73.0965L0.00427415 9.66067L0.0132913 9.65615C0.0493596 8.28635 0.369468 6.91202 1.00518 5.63264C1.09986 5.42016 1.21257 5.20768 1.3343 4.99521C3.99886 0.370432 9.76532 -1.29774 14.4407 1.07567L14.4768 1.05307C24.2288 5.55126 35.144 13.6796 45.0043 25.0494C54.8645 13.6796 65.7707 5.55577 75.5273 1.05306L75.5633 1.07566C80.2432 -1.29775 86.0097 0.370418 88.6697 4.99067C88.7915 5.20315 88.8997 5.41563 88.9989 5.6281C89.6346 6.91201 89.9547 8.28181 89.9908 9.65161L89.9998 9.65161L89.9998 9.66065Z" fill="#CDE667"/>
</g>
<defs>
<clipPath id="clip0_378_38">
<rect width="90" height="100" fill="white"/>
</clipPath>
</defs>
</svg>
