<svg width="117" height="117" viewBox="0 0 117 117" fill="none" xmlns="http://www.w3.org/2000/svg">
<path d="M116.14 75.3455L116.173 74.9864L116.163 74.9822C117.276 63.8893 111.238 52.8592 100.463 48.132L100.456 48.129C100.303 48.0615 100.141 47.9903 99.9741 47.9206L99.9786 47.9102L99.5207 47.709L95.7223 46.0394C94.6074 45.3586 94.1409 43.953 94.6781 42.7318L96.2068 39.2563L96.4081 38.7986L96.3988 38.7945C96.4749 38.6367 96.5498 38.4765 96.6196 38.3178C102.521 24.921 96.4301 9.30375 83.0367 3.41688C69.6388 -2.48073 54.0131 3.60061 48.1267 17.0035L48.1266 17.0035L48.1223 17.014L47.9253 17.4917L47.9233 17.4965L47.9047 17.4883L47.7035 17.9459L46.1748 21.4214L46.1738 21.4237C45.6395 22.655 44.2787 23.2622 43.0327 22.8893L39.2465 21.2251L38.7888 21.024L38.7848 21.0332C38.6269 20.9572 38.4666 20.8823 38.3078 20.8125C25.5417 15.2014 10.7391 20.467 4.28353 32.5682L4.27463 32.5849L4.26701 32.6022L4.2598 32.6186C4.06875 32.9939 3.86976 33.3868 3.68073 33.7768L3.6767 33.7851L3.67297 33.7936L3.6641 33.8137L3.66118 33.8204L3.66036 33.8222L3.66015 33.8227L3.66009 33.8228L3.66008 33.8229L3.66007 33.8229L4.10758 34.0197L4.10538 34.0188L3.66007 33.8229L3.66007 33.8229L3.52461 34.1308L3.38916 34.4388C2.83778 35.6924 2.3879 36.9581 2.05124 38.2317L2.05122 38.2317L2.05008 38.2362L1.9128 38.7755C1.891 38.8375 1.87837 38.8964 1.87311 38.9209C1.87309 38.921 1.87307 38.9211 1.87305 38.9212C1.7162 39.5444 1.60098 40.1727 1.49223 40.797L1.4922 40.797L1.49126 40.8028C1.41812 41.254 1.36265 41.6844 1.31181 42.1212L1.31156 42.1234C0.0584532 53.3268 6.11286 64.5228 16.9993 69.3167L16.9993 69.3168L17.0103 69.3214L17.4882 69.5183L17.4927 69.5202L17.4845 69.5387L17.9424 69.74L21.4183 71.2677C21.4799 71.2948 21.5279 71.3211 21.5902 71.3553C21.6245 71.3741 21.6632 71.3953 21.7109 71.4204C22.8295 72.0869 23.308 73.5083 22.768 74.7359L21.2393 78.2114L21.038 78.6692L21.0409 78.6705C20.9935 78.7701 20.9479 78.8689 20.9038 78.9644C20.8755 79.0256 20.8479 79.0855 20.8208 79.1434L20.8206 79.1434L20.816 79.154C14.9253 92.5463 21.005 108.168 34.3989 114.055C47.7969 119.953 63.4118 113.875 69.3087 100.469L69.3089 100.469L69.3133 100.458L69.5103 99.9801L69.5123 99.9754L69.5308 99.9835L69.7321 99.5259L71.2608 96.0504C71.8024 94.819 73.1808 94.2105 74.4315 94.5913L74.4342 94.5921C74.5396 94.6235 74.6332 94.6575 74.7302 94.7002L78.2061 96.228L78.6638 96.4291L78.6708 96.4132C78.8326 96.49 78.9966 96.5667 79.1553 96.6364C91.9213 102.248 106.703 96.9903 113.166 84.9107L113.175 84.8937L113.183 84.8762L113.19 84.8598C113.381 84.4845 113.58 84.0915 113.769 83.7015L113.774 83.6932L113.777 83.6847L113.786 83.6644L113.789 83.6578L113.79 83.6559L113.79 83.6554L113.79 83.6553L113.926 83.3474L114.061 83.0395C114.703 81.5791 115.222 80.0772 115.576 78.5609C115.734 77.9364 115.849 77.3069 115.958 76.6813L115.959 76.6755C116.031 76.233 116.098 75.7923 116.14 75.3455Z" fill="#CDE667" stroke="white"/>
</svg>
