<svg width="24" height="24" viewBox="0 0 24 24" fill="none" xmlns="http://www.w3.org/2000/svg">
<path d="M2.50879 1.875C4.76188 -0.0552968 8.16069 0.0469975 10.2949 2.18066C10.3423 2.22803 10.3913 2.28228 10.4463 2.34277L10.7998 2.73047L10.8213 2.70703L11.1953 3.08105L11.2178 3.09863C11.708 3.48884 12.424 3.45772 12.8779 3.00098L13.168 2.70996L13.1826 2.72461L13.5361 2.35449C13.5646 2.32469 13.5926 2.29445 13.6211 2.26465C13.6471 2.23744 13.6732 2.20983 13.6992 2.18262C15.9402 -0.0601481 19.5715 -0.0601401 21.8125 2.18262C24.0538 4.42328 24.0557 8.05383 21.8125 10.2939C21.765 10.3414 21.7111 10.3911 21.6504 10.4463L21.2627 10.7988L21.2852 10.8213L20.9941 11.1123C20.5399 11.5664 20.5106 12.2775 20.8936 12.7686L20.9131 12.793L21.29 13.1699L21.2598 13.2012L21.6641 13.5537L21.8184 13.7012C23.641 15.5208 23.9822 18.261 22.8418 20.4238L22.7588 20.5791C22.7415 20.6094 22.7257 20.6424 22.7061 20.6758C22.6279 20.8051 22.5578 20.9195 22.4824 21.0254L22.4766 21.0322C22.2896 21.3052 22.0686 21.5672 21.8213 21.8145L21.707 21.9287C21.6371 21.9935 21.5636 22.0586 21.4902 22.124L21.4824 22.1309C19.2292 24.0521 15.8399 23.9496 13.707 21.8174C13.6548 21.7652 13.6122 21.7179 13.5439 21.6465L13.1904 21.2764L13.1768 21.29L12.8857 20.999C12.8484 20.9617 12.811 20.9292 12.7715 20.8984H12.7705C12.2809 20.5155 11.5689 20.5469 11.1162 20.999L10.8242 21.29L10.8115 21.2764L10.458 21.6465C10.4295 21.6764 10.4006 21.7064 10.3721 21.7363C10.3463 21.7633 10.3207 21.7904 10.2949 21.8174C8.05101 24.0607 4.42159 24.0602 2.18066 21.8174C-0.0574513 19.5797 -0.060868 15.9549 2.17188 13.7139L2.17285 13.7148C2.24473 13.6462 2.28379 13.6059 2.32812 13.5693L2.75195 13.2197L2.71094 13.1787L3.00195 12.8877C3.45523 12.4343 3.48681 11.7202 3.10156 11.2305L3.09277 11.2197L3.08496 11.21L3.05957 11.1807C3.04676 11.1657 3.02654 11.1428 3.00195 11.1182L2.71094 10.8271L2.72461 10.8135L2.35449 10.46C2.32467 10.4315 2.29447 10.4035 2.26465 10.375C2.23737 10.349 2.2099 10.3229 2.18262 10.2969H2.18359C0.36332 8.47436 0.0195027 5.73968 1.15137 3.57715C1.19753 3.48997 1.24199 3.40903 1.29004 3.32715C1.36467 3.20365 1.43232 3.09405 1.50391 2.99219L1.50586 2.99121L1.53027 2.95703L1.6084 2.84668C1.77399 2.61936 1.96417 2.40003 2.17578 2.18848C2.19466 2.1696 2.21354 2.15071 2.23242 2.13184C2.24878 2.11548 2.26489 2.09839 2.28125 2.08203C2.35349 2.01497 2.42985 1.94676 2.50586 1.87891L2.50879 1.875Z" fill="#F9DAD7" stroke="#910C00"/>
</svg>
