<svg width="40" height="40" viewBox="0 0 40 40" fill="none" xmlns="http://www.w3.org/2000/svg">
<rect x="0.5" y="0.5" width="39" height="39" rx="19.5" fill="white"/>
<rect x="0.5" y="0.5" width="39" height="39" rx="19.5" stroke="#006391"/>
<path d="M14.1462 20.354L18.6462 24.854C18.7401 24.9478 18.8673 25.0006 19 25.0006C19.1327 25.0006 19.2599 24.9478 19.3538 24.854C19.4476 24.7602 19.5003 24.633 19.5003 24.5003C19.5003 24.3676 19.4476 24.2403 19.3538 24.1465L15.7069 20.5003H25.5C25.6326 20.5003 25.7598 20.4476 25.8536 20.3538C25.9473 20.2601 26 20.1329 26 20.0003C26 19.8677 25.9473 19.7405 25.8536 19.6467C25.7598 19.553 25.6326 19.5003 25.5 19.5003H15.7069L19.3538 15.854C19.4476 15.7602 19.5003 15.633 19.5003 15.5003C19.5003 15.3676 19.4476 15.2403 19.3538 15.1465C19.2599 15.0527 19.1327 15 19 15C18.8673 15 18.7401 15.0527 18.6462 15.1465L14.1462 19.6465C14.0998 19.693 14.0629 19.7481 14.0377 19.8088C14.0126 19.8695 13.9996 19.9346 13.9996 20.0003C13.9996 20.066 14.0126 20.131 14.0377 20.1917C14.0629 20.2524 14.0998 20.3076 14.1462 20.354Z" fill="#006391"/>
</svg>
