<svg width="28" height="20" viewBox="0 0 28 20" fill="none" xmlns="http://www.w3.org/2000/svg">
<path d="M18.7791 15.9871L27.2565 7.53627C27.3843 7.4089 27.4825 7.24223 27.5413 7.0657C27.5511 7.03628 27.5609 7.00686 27.5707 6.97744C27.7029 6.47232 27.525 5.95205 27.1505 5.63755C27.1259 5.61299 27.0963 5.59333 27.0668 5.57366C27.0471 5.55401 27.0175 5.53434 26.9929 5.51959C23.0716 2.69817 18.1762 3.63819 14.6623 7.14099L13.9989 7.80235L13.3336 7.13914C9.80497 3.62163 4.90693 2.66799 0.998424 5.48342C0.973838 5.4981 0.944337 5.51768 0.924679 5.53728C0.900107 5.56177 0.865675 5.57644 0.841103 5.60093C0.467522 5.91439 0.286155 6.42925 0.424666 6.93966C0.43455 6.9691 0.444434 6.99855 0.454318 7.028C0.51362 7.20469 0.617196 7.36673 0.740415 7.49936L0.809409 7.56814L9.24155 15.9738C11.8831 18.607 16.1597 18.6081 18.7889 15.9871H18.7791Z" fill="white"/>
</svg>
