<svg width="28" height="20" viewBox="0 0 28 20" fill="none" xmlns="http://www.w3.org/2000/svg">
<path d="M18.7791 15.9873L27.2565 7.53646C27.3843 7.40909 27.4825 7.24242 27.5413 7.06589C27.5511 7.03647 27.5609 7.00705 27.5707 6.97763C27.7029 6.47251 27.525 5.95224 27.1505 5.63774C27.1259 5.61318 27.0963 5.59352 27.0668 5.57385C27.0471 5.5542 27.0175 5.53453 26.9929 5.51978C23.0716 2.69836 18.1762 3.63838 14.6623 7.14118L13.9989 7.80254L13.3336 7.13933C9.805 3.62182 4.90696 2.66818 0.998456 5.48361C0.97387 5.49829 0.944369 5.51787 0.924711 5.53747C0.900139 5.56196 0.865707 5.57663 0.841135 5.60112C0.467554 5.91458 0.286187 6.42944 0.424698 6.93985C0.434582 6.96929 0.444466 6.99874 0.45435 7.02819C0.513652 7.20488 0.617228 7.36692 0.740447 7.49955L0.809441 7.56833L9.24158 15.974C11.8831 18.6072 16.1597 18.6083 18.7889 15.9873L18.7791 15.9873Z" fill="#3A6B0C"/>
</svg>
