<svg width="900" height="900" viewBox="0 0 900 900" fill="none" xmlns="http://www.w3.org/2000/svg">
<path d="M469.766 899.015C471.46 898.773 473.154 898.66 474.719 898.418C476.285 898.176 477.979 898.063 479.56 897.821C573.274 883.425 644.98 802.629 644.98 704.903C644.98 702.369 644.851 699.706 644.738 697.156H645.222V668.605C645.222 655.661 655.613 645.137 668.683 645.137H697.21V644.895C699.744 645.024 702.293 645.137 704.955 645.137C812.691 645.137 900 557.692 900 450.04C900 342.275 812.691 254.943 704.955 254.943C702.293 254.943 699.76 255.072 697.21 255.072V254.83H668.683C655.629 254.83 645.222 244.436 645.222 231.363V202.812H644.738C644.867 200.278 644.98 197.728 644.98 195.065C644.98 97.4517 573.274 16.5432 479.56 2.2757C477.995 2.03361 476.301 1.79151 474.719 1.54941C473.154 1.30732 471.46 1.19434 469.766 0.952244C463.231 0.355074 456.583 0 449.806 0C443.159 0 436.624 0.355074 430.105 0.968384C331.792 11.0073 255.02 94.0946 255.02 195.097C255.02 197.76 255.149 200.294 255.262 202.844H254.891V231.395C254.891 244.452 244.241 254.863 231.317 254.863H202.903V255.105C200.24 254.976 197.707 254.863 195.045 254.863C87.3086 254.846 0 342.291 0 450.056C0 557.709 87.3086 645.024 195.045 645.024C197.707 645.024 200.24 645.024 202.903 644.895V645.137H231.317C244.258 645.137 254.891 655.661 254.891 668.605V697.156H255.262C255.133 699.69 255.02 702.353 255.02 704.903C255.02 806.018 331.792 888.993 430.105 899.032C436.64 899.629 443.159 900 449.806 900C456.583 900 463.231 899.629 469.766 899.032V899.015Z" fill="white"/>
</svg>
