<svg width="280" height="280" viewBox="0 0 280 280" fill="none" xmlns="http://www.w3.org/2000/svg">
<path d="M278.187 45.8481L269.993 70.8281C255.247 115.768 255.247 164.232 269.993 209.172L278.187 234.152C287.117 261.34 261.329 287.129 234.142 278.199L209.163 270.005C164.225 255.258 115.763 255.258 70.8251 270.005L45.8461 278.199C18.6588 287.129 -7.12869 261.34 1.801 234.152L9.99459 209.172C24.7406 164.232 24.7406 115.768 9.99459 70.8281L1.81306 45.8481C-7.10456 18.6596 18.6709 -7.11693 45.8582 1.80108L70.8372 9.99502C115.775 24.7417 164.237 24.7417 209.175 9.99502L234.154 1.80108C261.341 -7.129 287.129 18.6596 278.199 45.8481H278.187Z" fill="#3A6B0C"/>
</svg>
