<svg width="320" height="280" viewBox="0 0 320 280" fill="none" xmlns="http://www.w3.org/2000/svg">
<path d="M310.488 241.031C309.871 242.109 309.182 243.155 308.457 244.234C307.406 245.756 306.354 247.247 305.194 248.674C302.439 252.194 299.212 255.524 295.659 258.632C295.152 259.076 294.644 259.52 294.137 259.964C294.137 259.964 294.1 259.996 294.064 260.028C293.049 260.852 291.998 261.677 290.982 262.47L290.91 262.533C258.244 287.017 209.01 285.748 178.048 258.664C177.287 257.998 176.525 257.268 175.764 256.571L175.692 256.634L167.099 249.118C166.809 248.864 166.519 248.642 166.193 248.42C162.277 245.724 156.549 245.946 152.923 249.118L144.331 256.634L144.259 256.571C143.497 257.268 142.736 257.966 141.974 258.664C109.454 287.112 56.8478 287.112 24.3633 258.664C-8.12111 230.248 -8.12111 184.198 24.3633 155.782C25.161 155.116 25.9586 154.418 26.7924 153.815L26.7199 153.752L35.3123 146.235C38.9378 143.064 39.1916 138.053 36.11 134.628C35.8562 134.374 35.6024 134.089 35.3123 133.835L26.7199 126.319L26.7924 126.255C25.9948 125.589 25.1972 124.923 24.3996 124.257C-1.99402 101.137 -6.96095 66.4414 9.46255 39.0082C10.1151 37.9299 10.7677 36.8833 11.4928 35.805C12.5442 34.2827 13.5956 32.7921 14.7558 31.365C14.8283 31.2698 14.9008 31.1747 14.9733 31.1113L16.061 29.7792C18.49 26.8615 21.2454 24.0706 24.2908 21.4066C24.7984 20.9626 25.306 20.5186 25.8135 20.0746C25.8135 20.0746 25.8498 20.0428 25.8861 20.0111C26.9012 19.1866 27.9526 18.362 28.9677 17.5691L29.0402 17.5057C61.706 -7.04147 111.013 -5.77289 141.974 21.3114C142.736 21.9774 143.497 22.7069 144.222 23.4046L144.295 23.3412L153.721 31.587C157.637 34.3144 163.365 34.0924 166.99 30.8893L175.583 23.3729L175.655 23.4363C176.417 22.7386 177.178 22.0409 177.939 21.3431C210.424 -7.1049 263.066 -7.1049 295.551 21.3431C328.035 49.7595 328.071 95.8092 295.551 124.226C294.789 124.892 293.955 125.558 293.158 126.192L293.23 126.255L284.638 133.772C281.012 136.943 280.758 141.922 283.84 145.379L293.303 153.657L293.23 153.72C294.064 154.354 294.862 155.052 295.623 155.718C322.053 178.806 326.984 213.566 310.451 240.999L310.488 241.031Z" fill="#A5CC1F"/>
</svg>
