<svg width="252" height="280" viewBox="0 0 252 280" fill="none" xmlns="http://www.w3.org/2000/svg">
<path d="M252 27.0475V204.683C252 242.544 224.125 273.873 187.829 279.203C184.269 279.734 180.633 280 176.921 280H126.006H75.0912C71.3796 280 67.7311 279.734 64.1709 279.203C27.8625 273.873 0 242.544 0 204.67L0 27.0475L0.0252492 27.0348C0.126246 23.1993 1.02259 19.3512 2.80267 15.7689C3.06778 15.1739 3.3834 14.579 3.72426 13.984C11.1854 1.03449 27.3323 -3.63645 40.424 3.0092L40.525 2.94591C67.8321 15.541 98.3963 38.3008 126.006 70.1366C153.616 38.3008 184.155 15.5537 211.475 2.94591L211.576 3.0092C224.68 -3.63645 240.827 1.03449 248.276 13.9714C248.617 14.5663 248.92 15.1612 249.197 15.7562C250.977 19.3512 251.874 23.1867 251.975 27.0222H252V27.0475Z" fill="#7FC0EB"/>
</svg>
