<svg width="328" height="280" viewBox="0 0 328 280" fill="none" xmlns="http://www.w3.org/2000/svg">
<path d="M126.107 14.0436C146.607 -4.68121 181.393 -4.68121 201.893 14.0436C212.118 23.3828 226.572 28.4938 241.538 28.062C271.545 27.1963 296.141 48.1935 295.127 73.8088C294.622 86.5846 300.609 98.9236 311.549 107.652C333.484 125.153 333.484 154.847 311.549 172.348C300.609 181.076 294.622 193.415 295.127 206.191C296.141 231.806 271.545 252.804 241.538 251.938C226.572 251.506 212.118 256.617 201.893 265.956C181.393 284.681 146.607 284.681 126.107 265.956C115.882 256.617 101.428 251.506 86.4617 251.938C56.4553 252.804 31.8586 231.806 32.8726 206.191C33.3784 193.415 27.3913 181.076 16.4511 172.348C-5.48371 154.847 -5.4837 125.153 16.4511 107.652C27.3913 98.9236 33.3784 86.5846 32.8726 73.8088C31.8586 48.1935 56.4553 27.1963 86.4617 28.062C101.428 28.4938 115.882 23.3828 126.107 14.0436Z" fill="#2883BF"/>
</svg>
