<svg width="611" height="600" viewBox="0 0 611 600" fill="none" xmlns="http://www.w3.org/2000/svg">
<g opacity="0.3">
<g opacity="0.6">
<path d="M187.821 68.4853L169.939 68.5339C164.205 68.5502 159.573 73.2174 159.589 78.9704L159.719 119.598C159.719 119.76 159.751 119.906 159.751 120.068C159.751 120.263 159.767 120.441 159.8 120.635C159.848 120.992 159.913 121.316 159.994 121.656C160.286 122.807 160.804 123.812 161.5 124.687C161.549 124.735 161.581 124.784 161.63 124.833C161.792 125.027 161.97 125.222 162.148 125.4C162.326 125.578 162.521 125.74 162.715 125.902C162.764 125.951 162.812 125.983 162.877 126.032C163.736 126.712 164.756 127.231 165.906 127.523C166.23 127.604 166.57 127.669 166.926 127.717C167.105 127.733 167.299 127.75 167.493 127.75C167.655 127.75 167.801 127.782 167.963 127.782L208.504 127.652C214.238 127.636 218.87 122.969 218.854 117.216L218.805 101.918C218.805 97.3153 222.498 93.5718 227.098 93.5556L242.696 93.5069C248.43 93.4907 253.062 88.8235 253.046 83.0705L252.997 67.6913C252.997 63.0888 256.69 59.3453 261.29 59.3291L276.888 59.2805C282.622 59.2643 287.254 54.597 287.238 48.844L287.108 8.21629C287.108 8.05424 287.076 7.90838 287.076 7.74633C287.076 7.55186 287.06 7.3736 287.027 7.17913C286.979 6.8226 286.914 6.49849 286.833 6.15817C286.541 5.00757 286.023 4.00281 285.327 3.1277C285.278 3.07909 285.246 3.03047 285.197 2.96565C285.035 2.77118 284.857 2.57671 284.679 2.39845C284.501 2.22019 284.306 2.05813 284.112 1.87987C284.063 1.83125 284.015 1.79884 283.95 1.75022C283.091 1.06958 282.071 0.551 280.921 0.259297C280.597 0.178269 280.257 0.113441 279.901 0.0648243C279.722 0.0486186 279.528 0.0324183 279.35 0.0324183C279.188 0.0324183 279.042 0 278.88 0L238.339 0.129649C232.605 0.145854 227.973 4.8131 227.989 10.5661L228.038 25.8643C228.038 30.4667 224.345 34.2103 219.745 34.2265L206.431 34.2751C200.697 34.2913 196.065 38.9585 196.081 44.6954L196.13 60.0746C196.13 64.677 192.437 68.4205 187.837 68.4367L187.821 68.4853Z" fill="#D5ECF2"/>
<path d="M438.566 68.4855L423.276 68.5341C418.677 68.5341 414.935 64.8392 414.919 60.2368L414.87 44.6307C414.854 38.8939 410.189 34.259 404.439 34.2752L389.068 34.3239C384.468 34.3239 380.727 30.6289 380.711 26.0265L380.662 10.4204C380.646 4.68361 375.981 0.0487781 370.231 0.0649838L329.642 0.194632C329.48 0.194632 329.334 0.227038 329.172 0.227038C328.977 0.227038 328.799 0.243242 328.621 0.275654C328.265 0.324271 327.941 0.389098 327.601 0.470127C326.451 0.761829 325.43 1.28041 324.572 1.97726C324.523 2.02588 324.475 2.05829 324.41 2.10691C324.216 2.26896 324.021 2.44723 323.843 2.62549C323.665 2.80375 323.487 2.99822 323.325 3.19269C323.276 3.2413 323.244 3.28992 323.195 3.35474C322.515 4.21364 321.997 5.23461 321.705 6.38521C321.624 6.70933 321.559 7.04964 321.511 7.40617C321.494 7.58443 321.478 7.77891 321.478 7.95717C321.478 8.11923 321.446 8.26507 321.446 8.42712L321.575 49.0062C321.592 54.743 326.256 59.3779 332.006 59.3617L347.296 59.3131C351.896 59.3131 355.638 63.008 355.654 67.6104L355.703 83.2165C355.719 88.9533 360.383 93.5881 366.133 93.5719L381.504 93.5233C386.104 93.5233 389.846 97.2182 389.862 101.821L389.911 117.427C389.927 123.164 394.592 127.798 400.342 127.782L440.931 127.653C441.093 127.653 441.239 127.62 441.401 127.62C441.595 127.62 441.773 127.604 441.952 127.572C442.308 127.523 442.632 127.458 442.972 127.377C444.122 127.085 445.142 126.567 446.001 125.87C446.05 125.821 446.098 125.789 446.163 125.74C446.357 125.578 446.552 125.4 446.73 125.222C446.908 125.043 447.086 124.849 447.248 124.654C447.297 124.606 447.329 124.557 447.378 124.492C448.074 123.634 448.576 122.613 448.868 121.462C448.949 121.138 449.014 120.798 449.062 120.441C449.078 120.263 449.095 120.068 449.095 119.89C449.095 119.728 449.127 119.582 449.127 119.42L448.997 78.8409C448.981 73.1041 444.316 68.4693 438.566 68.4855Z" fill="#D5ECF2"/>
<path d="M170.15 219.036L187.708 218.987C192.308 218.987 196.049 222.682 196.066 227.285L196.114 242.891C196.13 248.628 200.795 253.279 206.545 253.246L221.916 253.198C226.516 253.198 230.258 256.893 230.274 261.495L230.322 279.386C230.339 285.123 235.003 289.758 240.753 289.742L281.343 289.612C281.505 289.612 281.651 289.58 281.813 289.58C281.991 289.58 282.185 289.563 282.363 289.531C282.72 289.482 283.044 289.417 283.384 289.336C284.534 289.045 285.554 288.526 286.413 287.829C286.461 287.781 286.51 287.748 286.575 287.7C286.769 287.538 286.963 287.359 287.141 287.181C287.32 287.003 287.498 286.808 287.66 286.614C287.708 286.565 287.741 286.517 287.789 286.452C288.47 285.593 288.988 284.572 289.279 283.421C289.36 283.097 289.425 282.757 289.474 282.4C289.49 282.222 289.506 282.028 289.522 281.833C289.522 281.671 289.555 281.525 289.555 281.363L289.425 240.784C289.409 235.047 284.744 230.413 278.994 230.429L261.437 230.477C256.837 230.477 253.095 226.782 253.079 222.18L253.031 206.574C253.014 200.837 248.35 196.202 242.6 196.218L227.229 196.267C222.629 196.267 218.887 192.572 218.871 187.97L218.822 170.079C218.806 164.342 214.141 159.707 208.392 159.723L167.802 159.853C167.64 159.853 167.494 159.885 167.332 159.885C167.138 159.885 166.96 159.901 166.781 159.934C166.425 159.982 166.101 160.047 165.761 160.128C164.611 160.42 163.591 160.939 162.732 161.635C162.684 161.684 162.635 161.717 162.57 161.765C162.376 161.927 162.181 162.105 162.003 162.284C161.825 162.462 161.647 162.656 161.485 162.851C161.436 162.9 161.404 162.948 161.355 163.013C160.675 163.872 160.157 164.893 159.865 166.043C159.784 166.384 159.72 166.724 159.671 167.064C159.655 167.243 159.639 167.437 159.639 167.632C159.639 167.794 159.606 167.939 159.606 168.102L159.736 208.681C159.752 214.417 164.417 219.052 170.167 219.036H170.15Z" fill="#D5ECF2"/>
<path d="M423.18 219.036L438.777 218.988C444.511 218.971 449.143 214.304 449.127 208.551L448.998 167.923C448.998 167.761 448.965 167.616 448.965 167.454C448.965 167.259 448.949 167.081 448.917 166.886C448.868 166.53 448.803 166.206 448.722 165.865C448.431 164.715 447.912 163.71 447.216 162.835C447.167 162.786 447.135 162.738 447.086 162.673C446.973 162.543 446.86 162.397 446.73 162.268C446.665 162.203 446.6 162.154 446.536 162.089C446.39 161.944 446.228 161.798 446.05 161.652C445.936 161.555 445.823 161.457 445.71 161.376C445.499 161.214 445.288 161.068 445.062 160.939C444.948 160.874 444.851 160.809 444.738 160.744C444.527 160.631 444.317 160.534 444.106 160.436C443.912 160.355 443.701 160.274 443.507 160.193C443.393 160.161 443.28 160.112 443.167 160.08C442.13 159.756 441.012 159.626 439.911 159.74L400.212 159.869C394.478 159.885 389.846 164.553 389.862 170.306L389.911 187.873C389.927 192.475 386.218 196.219 381.618 196.235L366.036 196.283C360.303 196.3 355.654 200.967 355.687 206.72L355.735 219.814C355.751 224.417 352.042 228.16 347.442 228.176L331.845 228.225C326.111 228.241 321.478 232.908 321.495 238.661L321.624 278.463C321.527 279.565 321.657 280.667 321.997 281.704C322.029 281.817 322.078 281.947 322.11 282.06C322.191 282.255 322.256 282.449 322.353 282.644C322.45 282.871 322.564 283.081 322.677 283.276C322.742 283.373 322.807 283.486 322.871 283.584C323.017 283.811 323.163 284.037 323.325 284.248C323.406 284.362 323.503 284.459 323.6 284.572C323.746 284.734 323.892 284.913 324.054 285.058C324.119 285.123 324.167 285.188 324.232 285.237C324.361 285.366 324.507 285.464 324.653 285.593C324.702 285.642 324.75 285.674 324.815 285.723C325.673 286.403 326.694 286.922 327.844 287.214C328.168 287.295 328.508 287.36 328.864 287.408C329.042 287.424 329.237 287.441 329.431 287.441C329.593 287.441 329.739 287.473 329.901 287.473L370.442 287.343C376.176 287.327 380.808 282.66 380.792 276.907L380.743 261.609C380.743 257.006 384.436 253.263 389.036 253.247L404.634 253.198C410.368 253.182 415.016 248.514 414.984 242.761L414.935 227.382C414.935 222.78 418.628 219.036 423.228 219.02L423.18 219.036Z" fill="#D5ECF2"/>
<path d="M187.821 378.711L169.939 378.76C164.205 378.776 159.573 383.444 159.589 389.197L159.719 429.824C159.719 429.986 159.751 430.132 159.751 430.294C159.751 430.489 159.767 430.667 159.8 430.862C159.848 431.218 159.913 431.542 159.994 431.882C160.286 433.033 160.804 434.038 161.5 434.913C161.549 434.962 161.581 435.01 161.63 435.059C161.792 435.253 161.97 435.448 162.148 435.626C162.326 435.804 162.521 435.966 162.715 436.128C162.764 436.177 162.812 436.209 162.877 436.258C163.736 436.939 164.756 437.457 165.906 437.749C166.23 437.83 166.57 437.895 166.926 437.943C167.105 437.96 167.299 437.976 167.493 437.976C167.655 437.976 167.801 438.008 167.963 438.008L208.504 437.879C214.238 437.862 218.87 433.195 218.854 427.442L218.805 412.144C218.805 407.541 222.498 403.798 227.098 403.782L242.696 403.733C248.43 403.717 253.062 399.05 253.046 393.297L252.997 377.917C252.997 373.315 256.69 369.571 261.29 369.555L276.888 369.507C282.622 369.49 287.254 364.823 287.238 359.07L287.108 318.443C287.108 318.28 287.076 318.135 287.076 317.973C287.076 317.778 287.06 317.6 287.027 317.405C286.979 317.049 286.914 316.725 286.833 316.384C286.541 315.234 286.023 314.229 285.327 313.354C285.278 313.305 285.246 313.257 285.197 313.192C285.035 312.997 284.857 312.803 284.679 312.625C284.501 312.446 284.306 312.284 284.112 312.106C284.063 312.057 284.015 312.025 283.95 311.976C283.091 311.296 282.071 310.777 280.921 310.485C280.597 310.404 280.257 310.34 279.901 310.291C279.722 310.275 279.528 310.259 279.35 310.259C279.188 310.259 279.042 310.226 278.88 310.226L238.339 310.356C232.605 310.372 227.973 315.039 227.989 320.792L228.038 336.09C228.038 340.693 224.345 344.436 219.745 344.453L206.431 344.501C200.697 344.517 196.065 349.185 196.081 354.922L196.13 370.301C196.13 374.903 192.437 378.647 187.837 378.663L187.821 378.711Z" fill="#D5ECF2"/>
<path d="M438.566 378.711L421.008 378.76C416.408 378.776 412.667 375.065 412.651 370.462L412.602 354.872C412.586 349.136 407.921 344.485 402.171 344.517L389.084 344.566C384.484 344.582 380.743 340.871 380.726 336.268L380.678 320.662C380.662 314.925 375.997 310.291 370.247 310.307L329.657 310.436C329.495 310.436 329.349 310.469 329.187 310.469C328.993 310.469 328.815 310.485 328.637 310.517C328.28 310.566 327.956 310.631 327.616 310.712C326.466 311.004 325.446 311.522 324.587 312.219C324.539 312.268 324.49 312.3 324.426 312.349C324.231 312.511 324.037 312.689 323.859 312.867C323.68 313.046 323.502 313.24 323.34 313.434C323.292 313.483 323.259 313.532 323.211 313.597C322.53 314.455 322.012 315.476 321.721 316.627C321.64 316.951 321.575 317.291 321.526 317.648C321.51 317.826 321.494 318.021 321.494 318.199C321.494 318.361 321.461 318.507 321.461 318.669L321.591 359.248C321.607 364.985 326.272 369.62 332.022 369.603L347.312 369.555C351.912 369.555 355.653 373.25 355.67 377.852L355.718 393.458C355.734 399.195 360.399 403.83 366.149 403.814L381.52 403.765C386.12 403.765 389.861 407.46 389.878 412.062L389.926 427.669C389.942 433.405 394.607 438.04 400.357 438.024L440.947 437.894C441.109 437.894 441.255 437.862 441.417 437.862C441.611 437.862 441.789 437.846 441.967 437.813C442.324 437.765 442.648 437.7 442.988 437.619C444.138 437.327 445.158 436.809 446.016 436.112C446.065 436.063 446.114 436.031 446.178 435.982C446.373 435.82 446.567 435.642 446.745 435.463C446.924 435.285 447.102 435.091 447.264 434.896C447.312 434.848 447.345 434.799 447.393 434.734C448.09 433.875 448.592 432.854 448.883 431.704C448.964 431.38 449.029 431.039 449.078 430.683C449.094 430.504 449.11 430.31 449.11 430.132C449.11 429.97 449.143 429.824 449.143 429.662L449.013 389.083C448.997 383.346 444.332 378.711 438.582 378.727L438.566 378.711Z" fill="#D5ECF2"/>
<path d="M170.15 531.548L187.724 531.5C192.324 531.5 196.066 535.194 196.082 539.797L196.13 553.118C196.147 558.855 200.811 563.49 206.545 563.473L221.916 563.425C226.516 563.425 230.258 567.12 230.274 571.722L230.322 589.613C230.339 595.35 235.003 599.985 240.753 599.969L281.343 599.839C281.505 599.839 281.651 599.807 281.813 599.807C281.991 599.807 282.185 599.79 282.363 599.758C282.72 599.709 283.044 599.645 283.384 599.563C284.534 599.272 285.554 598.753 286.413 598.056C286.461 598.008 286.51 597.975 286.575 597.927C286.769 597.765 286.963 597.586 287.141 597.408C287.32 597.23 287.498 597.035 287.66 596.841C287.708 596.792 287.741 596.744 287.789 596.679C288.47 595.82 288.988 594.799 289.279 593.648C289.36 593.324 289.425 592.984 289.474 592.627C289.49 592.449 289.506 592.255 289.522 592.06C289.522 591.898 289.555 591.752 289.555 591.59L289.425 551.011C289.409 545.274 284.744 540.64 278.994 540.656L261.437 540.704C256.837 540.704 253.095 537.01 253.079 532.407L253.031 516.801C253.014 511.064 248.35 506.429 242.6 506.446L227.229 506.494C222.629 506.494 218.887 502.799 218.871 498.197L218.822 482.591C218.806 476.854 214.141 472.219 208.392 472.235L167.802 472.365C167.64 472.365 167.494 472.397 167.332 472.397C167.138 472.397 166.96 472.414 166.781 472.446C166.425 472.495 166.101 472.559 165.761 472.64C164.611 472.932 163.591 473.451 162.732 474.148C162.684 474.196 162.635 474.229 162.57 474.277C162.376 474.439 162.181 474.617 162.003 474.796C161.825 474.974 161.647 475.168 161.485 475.363C161.436 475.412 161.404 475.46 161.355 475.525C160.675 476.384 160.157 477.405 159.865 478.555C159.784 478.896 159.72 479.236 159.671 479.576C159.655 479.755 159.639 479.949 159.639 480.144C159.639 480.306 159.606 480.452 159.606 480.614L159.736 521.193C159.752 526.93 164.417 531.564 170.167 531.548H170.15Z" fill="#D5ECF2"/>
<path d="M423.18 529.262L438.778 529.213C444.511 529.197 449.144 524.53 449.127 518.777L448.998 478.149C448.998 477.987 448.965 477.841 448.965 477.679C448.965 477.484 448.949 477.306 448.917 477.112C448.868 476.755 448.803 476.431 448.723 476.091C448.431 474.94 447.913 473.935 447.216 473.06C447.168 473.012 447.135 472.963 447.087 472.898C446.973 472.769 446.86 472.623 446.73 472.493C446.665 472.428 446.601 472.38 446.536 472.315C446.39 472.169 446.228 472.023 446.05 471.877C445.937 471.78 445.823 471.683 445.71 471.602C445.499 471.44 445.289 471.294 445.062 471.164C444.949 471.099 444.851 471.035 444.738 470.97C444.527 470.856 444.317 470.759 444.106 470.662C443.912 470.581 443.701 470.5 443.507 470.419C443.394 470.386 443.28 470.338 443.167 470.305C442.13 469.981 441.013 469.852 439.911 469.965L400.212 470.095C394.479 470.111 389.846 474.778 389.863 480.531L389.911 498.114C389.911 502.717 386.218 506.46 381.618 506.476L366.021 506.525C360.287 506.541 355.654 511.209 355.671 516.962L355.719 532.341C355.719 536.943 352.026 540.687 347.426 540.703L331.829 540.752C326.095 540.768 321.463 545.435 321.479 551.188L321.608 590.989C321.511 592.091 321.641 593.193 321.981 594.23C322.013 594.344 322.062 594.473 322.094 594.587C322.175 594.781 322.24 594.976 322.337 595.17C322.434 595.397 322.548 595.608 322.661 595.802C322.726 595.9 322.791 596.013 322.855 596.11C323.001 596.337 323.147 596.564 323.309 596.775C323.39 596.888 323.487 596.985 323.584 597.099C323.73 597.261 323.876 597.439 324.038 597.585C324.103 597.65 324.151 597.715 324.216 597.763C324.346 597.893 324.491 597.99 324.637 598.12C324.686 598.168 324.734 598.201 324.799 598.249C325.658 598.93 326.678 599.449 327.828 599.74C328.152 599.821 328.492 599.886 328.848 599.935C329.027 599.951 329.221 599.967 329.415 599.967C329.577 599.967 329.723 600 329.885 600L370.426 599.87C376.16 599.854 380.792 595.186 380.776 589.433L380.727 571.866C380.727 567.264 384.42 563.521 389.02 563.504L404.618 563.456C410.352 563.44 415 558.772 414.968 553.019L414.919 537.64C414.919 533.038 418.612 529.294 423.212 529.278L423.18 529.262Z" fill="#D5ECF2"/>
<path d="M600.439 228.16L582.882 228.208C578.282 228.208 574.54 224.514 574.524 219.911L574.476 204.305C574.459 198.568 569.795 193.933 564.045 193.95L548.674 193.998C544.074 193.998 540.332 190.303 540.316 185.701L540.268 170.095C540.251 164.358 535.587 159.723 529.837 159.739L489.247 159.869C489.085 159.869 488.939 159.901 488.777 159.901C488.583 159.901 488.405 159.918 488.227 159.95C487.87 159.999 487.546 160.063 487.206 160.145C486.056 160.436 485.036 160.955 484.177 161.652C484.129 161.7 484.08 161.733 484.015 161.781C483.821 161.943 483.627 162.122 483.448 162.3C483.27 162.478 483.092 162.673 482.93 162.867C482.882 162.916 482.849 162.964 482.801 163.029C482.12 163.888 481.602 164.909 481.31 166.06C481.229 166.384 481.165 166.724 481.116 167.081C481.1 167.259 481.084 167.453 481.084 167.632C481.084 167.794 481.051 167.939 481.051 168.101L481.181 208.681C481.197 214.417 485.862 219.052 491.612 219.036L509.169 218.987C513.769 218.987 517.511 222.682 517.527 227.285L517.576 242.891C517.592 248.628 522.257 253.263 528.006 253.246L543.377 253.198C547.977 253.198 551.719 256.893 551.735 261.495L551.784 277.101C551.8 282.838 556.465 287.473 562.215 287.457L602.804 287.327C602.966 287.327 603.112 287.294 603.274 287.294C603.468 287.294 603.647 287.278 603.825 287.246C604.181 287.197 604.505 287.132 604.845 287.051C605.995 286.76 607.016 286.241 607.874 285.544C607.923 285.496 607.971 285.463 608.036 285.415C608.23 285.253 608.425 285.074 608.603 284.896C608.781 284.718 608.959 284.523 609.121 284.329C609.17 284.28 609.202 284.232 609.251 284.167C609.947 283.308 610.449 282.287 610.741 281.136C610.822 280.812 610.887 280.472 610.935 280.115C610.951 279.937 610.968 279.743 610.968 279.564C610.968 279.402 611 279.256 611 279.094L610.87 238.515C610.854 232.779 606.189 228.144 600.439 228.16Z" fill="#D5ECF2"/>
<path d="M582.768 369.587L600.649 369.539C606.383 369.522 611.015 364.855 610.999 359.102L610.87 318.474C610.87 318.312 610.837 318.167 610.837 318.005C610.837 317.81 610.821 317.632 610.789 317.437C610.74 317.081 610.675 316.757 610.594 316.416C610.303 315.266 609.784 314.261 609.088 313.386C609.039 313.337 609.007 313.289 608.958 313.224C608.845 313.094 608.732 312.948 608.602 312.819C608.537 312.754 608.473 312.705 608.408 312.64C608.262 312.495 608.1 312.349 607.922 312.203C607.808 312.106 607.695 312.008 607.582 311.927C607.371 311.765 607.161 311.619 606.934 311.49C606.82 311.425 606.723 311.36 606.61 311.295C606.399 311.182 606.189 311.085 605.978 310.987C605.784 310.906 605.573 310.825 605.379 310.744C605.266 310.712 605.152 310.663 605.039 310.631C604.002 310.307 602.885 310.177 601.783 310.291L562.084 310.42C556.351 310.436 551.718 315.104 551.734 320.857L551.783 336.155C551.783 340.757 548.09 344.501 543.49 344.517L527.892 344.566C522.159 344.582 517.526 349.249 517.542 355.002L517.591 370.381C517.591 374.984 513.898 378.727 509.298 378.744L493.7 378.792C487.967 378.808 483.334 383.476 483.351 389.229L483.48 429.03C483.383 430.132 483.513 431.234 483.853 432.271C483.885 432.384 483.934 432.514 483.966 432.628C484.047 432.822 484.112 433.016 484.209 433.211C484.306 433.438 484.42 433.648 484.533 433.843C484.598 433.94 484.663 434.054 484.727 434.151C484.873 434.378 485.019 434.605 485.181 434.815C485.262 434.929 485.359 435.026 485.456 435.139C485.602 435.301 485.748 435.48 485.91 435.626C485.974 435.69 486.023 435.755 486.088 435.804C486.217 435.933 486.363 436.031 486.509 436.16C486.558 436.209 486.606 436.241 486.671 436.29C487.529 436.971 488.55 437.489 489.7 437.781C490.024 437.862 490.364 437.927 490.72 437.975C490.898 437.992 491.093 438.008 491.287 438.008C491.449 438.008 491.595 438.04 491.757 438.04L532.298 437.911C538.032 437.894 542.664 433.227 542.648 427.474L542.599 412.176C542.599 407.574 546.292 403.83 550.892 403.814L564.206 403.765C569.94 403.749 574.572 399.082 574.556 393.345L574.507 377.966C574.507 373.363 578.2 369.62 582.8 369.603L582.768 369.587Z" fill="#D5ECF2"/>
<path d="M25.9477 230.446L10.3499 230.494C4.61619 230.51 -0.0161547 235.178 4.23455e-05 240.931L0.129621 281.559C0.129621 281.721 0.16201 281.866 0.16201 282.028C0.16201 282.223 0.178205 282.401 0.210599 282.596C0.25919 282.952 0.323983 283.276 0.404968 283.617C0.696514 284.767 1.21482 285.772 1.91129 286.647C1.95988 286.696 1.99228 286.744 2.04087 286.793C2.20284 286.987 2.38101 287.182 2.55917 287.36C2.73734 287.538 2.9317 287.7 3.12607 287.863C3.17466 287.911 3.22325 287.944 3.28804 287.992C4.14648 288.673 5.16689 289.191 6.31688 289.483C6.64082 289.564 6.98096 289.629 7.33729 289.678C7.51546 289.694 7.70982 289.71 7.90418 289.71C8.06615 289.71 8.21193 289.742 8.3739 289.742L48.915 289.613C54.6488 289.597 59.2811 284.929 59.2649 279.176L59.2163 261.609C59.2163 257.007 62.9093 253.263 67.5092 253.247L83.1069 253.199C88.8407 253.182 93.473 248.515 93.4568 242.762L93.4082 227.383C93.4082 222.78 97.1012 219.037 101.701 219.021L117.299 218.972C123.033 218.956 127.681 214.289 127.649 208.536L127.519 169.869C127.519 169.707 127.487 169.561 127.487 169.415C127.487 169.237 127.471 169.058 127.438 168.88C127.39 168.54 127.325 168.216 127.244 167.908C126.952 166.806 126.434 165.834 125.737 165.007C125.689 164.958 125.656 164.91 125.608 164.861C125.446 164.667 125.268 164.488 125.09 164.326C124.911 164.148 124.717 163.986 124.523 163.84C124.474 163.792 124.426 163.759 124.361 163.711C123.502 163.046 122.482 162.56 121.332 162.284C121.008 162.203 120.668 162.139 120.311 162.106C120.133 162.09 119.939 162.074 119.761 162.074C119.599 162.074 119.453 162.041 119.291 162.041L78.7499 162.171C73.0162 162.187 68.3676 166.854 68.4 172.607L68.4486 187.906C68.4486 192.508 64.7557 196.252 60.1558 196.268L44.558 196.316C38.8243 196.333 34.1757 201 34.2081 206.753L34.2567 222.132C34.2567 226.735 30.5638 230.478 25.9639 230.494L25.9477 230.446Z" fill="#D5ECF2"/>
<path d="M10.5604 369.587L25.8504 369.539C30.4503 369.539 34.1918 373.234 34.208 377.836L34.2566 393.442C34.2728 399.179 38.9375 403.83 44.6875 403.797L60.0585 403.749C64.6584 403.749 68.3999 407.444 68.4161 412.046L68.4647 427.652C68.4809 433.389 73.1457 438.024 78.8956 438.008L119.485 437.878C119.647 437.878 119.793 437.846 119.955 437.846C120.133 437.846 120.328 437.829 120.506 437.797C120.862 437.748 121.186 437.684 121.526 437.603C122.676 437.311 123.697 436.792 124.555 436.095C124.604 436.047 124.652 436.014 124.717 435.966C124.911 435.804 125.106 435.625 125.284 435.447C125.462 435.269 125.64 435.074 125.802 434.88C125.851 434.831 125.883 434.783 125.932 434.718C126.612 433.859 127.13 432.838 127.422 431.687C127.503 431.363 127.568 431.023 127.616 430.667C127.632 430.488 127.649 430.294 127.665 430.099C127.665 429.937 127.697 429.791 127.697 429.629L127.568 389.05C127.551 383.313 122.887 378.679 117.137 378.695L101.847 378.743C97.2468 378.743 93.5053 375.049 93.4891 370.446L93.4405 354.84C93.4243 349.103 88.7596 344.452 83.0096 344.485L67.6387 344.533C63.0387 344.533 59.2972 340.838 59.281 336.236L59.2324 320.63C59.2162 314.893 54.5515 310.258 48.8015 310.274L8.2118 310.404C8.04983 310.404 7.90406 310.436 7.74209 310.436C7.54772 310.436 7.36955 310.453 7.19138 310.485C6.83505 310.534 6.51111 310.598 6.17097 310.679C5.02099 310.971 4.00057 311.49 3.14213 312.187C3.09354 312.235 3.04495 312.268 2.98016 312.316C2.78579 312.478 2.59143 312.657 2.41327 312.835C2.2351 313.013 2.05693 313.208 1.89496 313.402C1.84637 313.451 1.81397 313.499 1.76538 313.564C1.08511 314.423 0.566806 315.444 0.275259 316.595C0.194274 316.935 0.129482 317.275 0.0808905 317.616C0.0646935 317.794 0.0485019 317.988 0.0485019 318.183C0.0485019 318.345 0.0161133 318.491 0.0161133 318.653L0.14568 359.232C0.161877 364.969 4.82662 369.603 10.5766 369.587H10.5604Z" fill="#D5ECF2"/>
</g>
</g>
</svg>
