<svg width="90" height="100" viewBox="0 0 90 100" fill="none" xmlns="http://www.w3.org/2000/svg">
<g clip-path="url(#clip0_1172_1207)">
<path d="M89.9999 9.66164L89.9999 73.102C89.9999 86.6237 80.045 97.8126 67.0829 99.7159C65.8114 99.9058 64.513 100.001 63.1875 100.001L45.0044 100.001L26.8214 100.001C25.4958 100.001 24.1929 99.9058 22.9215 99.7159C9.95482 97.8127 0.00440968 86.6237 0.00440731 73.0975L0.00439622 9.66166L0.0134134 9.65714C0.0494816 8.28734 0.36959 6.91302 1.0053 5.63363C1.09998 5.42115 1.21269 5.20868 1.33442 4.9962C3.99898 0.371425 9.76544 -1.29675 14.4408 1.07667L14.4769 1.05406C24.2289 5.55225 35.1442 13.6806 45.0044 25.0504C54.8646 13.6806 65.7709 5.55677 75.5274 1.05405L75.5635 1.07666C80.2434 -1.29676 86.0098 0.37141 88.6699 4.99166C88.7916 5.20414 88.8998 5.41662 88.999 5.62909C89.6347 6.913 89.9548 8.2828 89.9909 9.6526L89.9999 9.6526L89.9999 9.66164Z" fill="#CDE667"/>
</g>
<defs>
<clipPath id="clip0_1172_1207">
<rect width="90" height="100" fill="white"/>
</clipPath>
</defs>
</svg>
