<svg width="100" height="100" viewBox="0 0 100 100" fill="none" xmlns="http://www.w3.org/2000/svg">
<path d="M3.68159 44.0096L14.4019 38.588C24.8391 33.3106 33.3106 24.8338 38.588 14.4019L44.0096 3.68161C46.4933 -1.22719 53.5067 -1.22719 55.9904 3.68161L61.412 14.4019C66.6894 24.8391 75.1662 33.3106 85.5981 38.588L96.3184 44.0096C101.227 46.4933 101.227 53.5067 96.3184 55.9904L85.5981 61.412C75.1609 66.6894 66.6894 75.1662 61.412 85.5981L55.9904 96.3184C53.5067 101.227 46.4933 101.227 44.0096 96.3184L38.588 85.5981C33.3106 75.1609 24.8337 66.6894 14.4019 61.412L3.68159 55.9904C-1.2272 53.5067 -1.2272 46.4933 3.68159 44.0096Z" fill="#469EE0"/>
</svg>
