<svg width="115" height="115" viewBox="0 0 115 115" fill="none" xmlns="http://www.w3.org/2000/svg">
<path d="M113.993 73.6352C113.953 74.0639 113.888 74.4903 113.816 74.9314C113.707 75.5572 113.594 76.1725 113.441 76.779C113.095 78.2629 112.587 79.737 111.954 81.1741C111.864 81.3794 111.774 81.5847 111.684 81.79C111.684 81.79 111.677 81.8047 111.671 81.8193C111.482 82.2088 111.282 82.6024 111.09 82.9814L111.077 83.0107C104.735 94.8618 90.2326 100.02 77.7076 94.5146C77.3996 94.3792 77.0834 94.2228 76.7713 94.0768L76.7584 94.1062L73.2825 92.5784C73.1651 92.5268 73.0519 92.4858 72.9281 92.4489C71.4387 91.9955 69.7992 92.7186 69.1542 94.185L67.6255 97.6605L67.5962 97.6476C67.4648 97.9662 67.3335 98.2847 67.2021 98.6032C61.4163 111.757 46.0962 117.72 32.9511 111.933C19.8101 106.157 13.8453 90.8307 19.6247 77.6913C19.7707 77.3792 19.9126 77.0566 20.0774 76.7615L20.0481 76.7486L21.5768 73.2731C22.2218 71.8067 21.6467 70.1101 20.3055 69.3194C20.1988 69.2637 20.0879 69.1975 19.9706 69.1459L16.4946 67.6182L16.5075 67.5888C16.189 67.4576 15.8704 67.3263 15.5519 67.195C4.87074 62.4915 -1.06992 51.5068 0.159538 40.5149C0.209914 40.0821 0.264398 39.6598 0.33589 39.2187C0.444895 38.5929 0.558008 37.9776 0.711011 37.3712C0.719804 37.3313 0.728596 37.2914 0.741496 37.2621L0.885707 36.6954C1.21517 35.449 1.65609 34.2079 2.19791 32.976C2.28822 32.7707 2.37852 32.5654 2.46882 32.3601C2.46882 32.3601 2.47527 32.3455 2.48173 32.3308C2.67055 31.9413 2.86993 31.5477 3.06286 31.1688L3.07576 31.1394C9.40914 19.2672 23.9327 14.101 36.4577 19.6062C36.7657 19.7416 37.0819 19.8981 37.3834 20.0481L37.3963 20.0188L41.2096 21.6948C42.7032 22.1588 44.3426 21.4357 44.9835 19.9587L46.5122 16.4832L46.5416 16.496C46.6729 16.1775 46.8043 15.859 46.9356 15.5405C52.7109 2.39051 68.0415 -3.57592 81.1866 2.21055C94.3276 7.98647 100.303 23.3089 94.513 36.4524C94.3775 36.7604 94.221 37.0766 94.0709 37.3781L94.1002 37.391L92.5715 40.8665C91.9265 42.3329 92.4975 44.0189 93.8427 44.8202L97.6706 46.5026L97.6577 46.532C97.9827 46.6486 98.3054 46.7904 98.6134 46.9258C109.301 51.6146 115.239 62.6245 113.978 73.6288L113.993 73.6352Z" fill="#CDE667"/>
</svg>
