<svg width="183" height="163" viewBox="0 0 183 163" fill="none" xmlns="http://www.w3.org/2000/svg">
<path d="M75.2402 157.56L14.0504 115.976C4.5759 109.543 -0.738252 98.5368 0.0830828 87.1248L5.63263 11.5193L5.64215 11.3803C5.64958 11.1549 5.67659 10.9186 5.69233 10.6988L5.7036 10.6823C5.85089 9.03592 6.35706 7.41496 7.22948 5.93355C7.37068 5.68986 7.52018 5.45182 7.68926 5.2028C11.2625 -0.0597213 18.3059 -1.53497 23.6761 1.72328L23.809 1.8135C23.9475 1.89541 24.0694 1.96605 24.2022 2.05627L24.443 2.21977C24.443 2.21977 24.5261 2.27615 24.5397 2.30966C24.7058 2.42242 24.8745 2.54913 25.032 2.69244C25.0735 2.72063 25.1233 2.75444 25.1592 2.79093C31.6467 7.92356 43.1721 19.7877 45.7183 22.5595C70.4645 49.5976 83.028 80.2484 83.028 80.2484L83.0529 80.2653C84.066 80.2741 116.717 80.8576 150.417 93.7099C152.631 94.5584 159.566 97.4239 166.171 100.454C170.006 102.221 173.712 104.034 176.358 105.551C176.411 105.563 176.461 105.597 176.483 105.636C176.674 105.73 176.868 105.837 177.037 105.964C177.059 105.967 177.089 105.975 177.1 105.995C177.1 105.995 177.111 106.002 177.133 106.017L177.15 106.029L177.397 106.184C178.634 107.024 179.661 108.049 180.458 109.197C183.198 113.131 183.387 118.498 180.541 122.69C179.358 124.433 177.788 125.78 176.004 126.656L107.2 159.93C96.8879 164.897 84.7118 164.015 75.2289 157.577L75.2402 157.56Z" fill="#CDE667"/>
</svg>
