<svg width="28" height="20" viewBox="0 0 28 20" fill="none" xmlns="http://www.w3.org/2000/svg">
<path d="M18.4007 15.9873L26.8781 7.53646C27.0059 7.40909 27.1041 7.24242 27.1629 7.06589C27.1727 7.03647 27.1825 7.00705 27.1923 6.97763C27.3245 6.47251 27.1466 5.95224 26.7721 5.63774C26.7475 5.61318 26.7179 5.59352 26.6884 5.57385C26.6686 5.5542 26.6391 5.53453 26.6145 5.51978C22.6931 2.69836 17.7978 3.63838 14.2839 7.14118L13.6205 7.80254L12.9552 7.13933C9.42658 3.62182 4.52854 2.66818 0.620038 5.48361C0.595452 5.49829 0.565951 5.51787 0.546293 5.53747C0.521721 5.56196 0.487289 5.57663 0.462717 5.60112C0.0891365 5.91458 -0.0922312 6.42944 0.0462804 6.93985C0.0561644 6.96929 0.0660483 6.99874 0.0759322 7.02819C0.135235 7.20488 0.23881 7.36692 0.362029 7.49955L0.431023 7.56833L8.86316 15.974C11.5047 18.6072 15.7813 18.6083 18.4105 15.9873L18.4007 15.9873Z" fill="#A5CC1F"/>
</svg>
